<?xml version="1.0" encoding="UTF-8" standalone="no"?>
<!-- Created with Inkscape (http://www.inkscape.org/) -->

<svg
   version="1.1"
   id="svg2"
   width="490.32001"
   height="146.13333"
   viewBox="0 0 490.32001 146.13333"
   sodipodi:docname="EESystem Logo (All Black) (EPS).eps"
   xmlns:inkscape="http://www.inkscape.org/namespaces/inkscape"
   xmlns:sodipodi="http://sodipodi.sourceforge.net/DTD/sodipodi-0.dtd"
   xmlns="http://www.w3.org/2000/svg"
   xmlns:svg="http://www.w3.org/2000/svg">
  <defs
     id="defs6" />
  <sodipodi:namedview
     id="namedview4"
     pagecolor="#ffffff"
     bordercolor="#000000"
     borderopacity="0.25"
     inkscape:showpageshadow="2"
     inkscape:pageopacity="0.0"
     inkscape:pagecheckerboard="0"
     inkscape:deskcolor="#d1d1d1" />
  <g
     id="g8"
     inkscape:groupmode="layer"
     inkscape:label="ink_ext_XXXXXX"
     transform="matrix(1.3333333,0,0,-1.3333333,0,146.13333)">
    <g
       id="g10"
       transform="scale(0.1)">
      <path
         d="m 518.879,124.66 c -11.262,0.442 -22.613,0.442 -33.863,1.692 l -8.461,0.742 -4.239,0.359 -4.211,0.567 -16.871,2.304 c -5.613,0.84 -11.16,2.071 -16.75,3.098 l -8.379,1.629 -8.289,2.012 -8.296,2.011 c -2.77,0.684 -5.555,1.309 -8.274,2.168 l -16.41,4.824 c -21.734,6.954 -43.059,15.391 -63.672,25.43 -20.531,10.176 -40.516,21.594 -59.613,34.453 -76.258,51.653 -137.356,126.406 -173.2346,212.414 l -6.4453,16.239 c -1.1328,2.687 -1.9883,5.468 -2.9531,8.222 l -2.836,8.274 -2.8242,8.269 -2.4414,8.399 -2.4336,8.41 c -0.793,2.801 -1.6875,5.586 -2.3008,8.437 l -4.039,17.039 c -0.7188,2.832 -1.2227,5.703 -1.75,8.575 l -1.586,8.613 -1.582,8.613 c -0.4883,2.883 -0.8125,5.781 -1.2187,8.672 -0.7579,5.793 -1.6133,11.574 -2.2774,17.383 -0.9492,11.64 -2.2187,23.273 -2.3945,34.961 l -0.3125,8.769 c -0.043,1.457 -0.125,2.922 -0.1367,4.387 l 0.0742,4.375 0.2969,17.547 c -0.0079,2.922 0.246,5.84 0.4375,8.762 l 0.5898,8.75 0.5977,8.757 c 0.1484,2.93 0.6289,5.821 0.9296,8.731 L 55.7852,676 c 0.914,5.781 1.9414,11.551 2.9101,17.332 0.5156,2.883 0.9453,5.781 1.5235,8.652 l 1.9023,8.586 c 1.3164,5.711 2.4258,11.473 3.9727,17.129 l 4.7226,16.942 1.1914,4.238 1.3828,4.172 2.7774,8.347 c 3.4648,11.223 8.0664,22.032 12.2422,33 4.8476,10.672 9.3007,21.551 14.8238,31.922 l 3.973,7.852 2.004,3.918 2.187,3.828 8.75,15.273 c 3.008,5.039 6.274,9.922 9.399,14.883 1.594,2.469 3.141,4.961 4.769,7.403 l 5.082,7.187 5.094,7.176 c 1.703,2.394 3.36,4.816 5.211,7.101 l 10.86,13.856 c 1.765,2.344 3.726,4.531 5.632,6.758 l 5.754,6.672 5.758,6.66 c 1.981,2.156 4.027,4.265 6.039,6.406 15.93,17.254 33.484,32.949 51.734,47.684 4.629,3.605 9.219,7.265 13.887,10.82 l 14.363,10.173 c 4.719,3.5 9.774,6.5 14.696,9.7 4.965,3.13 9.816,6.44 14.988,9.22 l 15.309,8.7 15.691,7.97 c 2.633,1.29 5.199,2.73 7.891,3.89 l 8.039,3.59 8.031,3.59 4.02,1.78 4.093,1.61 16.403,6.37 c 5.48,2.09 11.105,3.78 16.652,5.68 l 8.344,2.78 c 2.808,0.83 5.64,1.59 8.465,2.37 5.66,1.53 11.285,3.17 16.972,4.6 11.453,2.49 22.832,5.32 34.43,7.04 l 8.664,1.46 4.328,0.73 4.363,0.52 17.438,2.07 c 2.894,0.4 5.824,0.5 8.738,0.73 l 8.754,0.59 8.758,0.59 c 2.914,0.2 5.844,0.13 8.762,0.2 l 17.531,0.24 c 5.84,-0.12 11.68,-0.38 17.519,-0.57 2.914,-0.14 5.832,-0.12 8.743,-0.4 l 8.738,-0.71 8.723,-0.72 c 1.457,-0.13 2.914,-0.23 4.363,-0.38 l 4.344,-0.56 17.371,-2.26 c 5.754,-0.93 11.496,-2 17.238,-3.02 5.762,-0.93 11.43,-2.34 17.121,-3.63 5.68,-1.33 11.391,-2.5 16.98,-4.17 5.614,-1.58 11.243,-3.09 16.833,-4.73 l 16.601,-5.45 c 21.992,-7.68 43.438,-16.83 64.098,-27.47 20.574,-10.8 40.418,-22.91 59.269,-36.38 37.547,-27.138 71.336,-59.325 99.442,-95.802 7.179,-8.992 13.632,-18.523 20.164,-27.957 l 9.261,-14.523 c 1.59,-2.383 2.965,-4.91 4.411,-7.383 l 4.296,-7.449 c 1.415,-2.5 2.911,-4.934 4.247,-7.473 l 3.953,-7.625 c 2.597,-5.109 5.39,-10.098 7.691,-15.344 2.375,-5.203 4.852,-10.351 7.145,-15.586 l 6.382,-15.898 c 8.082,-21.348 14.857,-43.125 19.937,-65.273 4.75,-22.215 8.18,-44.637 9.87,-67.157 -3.97,22.235 -9.02,44.188 -15.63,65.625 -6.645,21.426 -14.817,42.293 -24.223,62.508 l -7.344,15.02 -7.91,14.707 c -2.535,4.953 -5.547,9.648 -8.356,14.433 l -4.269,7.149 c -1.438,2.375 -3.039,4.66 -4.547,6.984 l -4.586,6.942 c -1.543,2.316 -3.008,4.66 -4.684,6.875 l -9.769,13.449 c -6.852,8.711 -13.582,17.488 -21,25.703 -14.504,16.668 -29.953,32.5 -46.68,46.844 -16.656,14.394 -34.043,27.921 -52.461,39.875 -18.449,11.894 -37.558,22.666 -57.305,32.096 -19.816,9.3 -40.285,17.04 -61.066,23.65 -83.355,25.76 -173.637,27.7 -257.461,5.65 -5.226,-1.41 -10.398,-3.03 -15.605,-4.52 l -7.789,-2.29 -7.672,-2.64 c -5.102,-1.82 -10.282,-3.41 -15.317,-5.4 l -15.066,-6.04 -3.762,-1.51 -3.687,-1.7 -7.375,-3.39 -7.379,-3.38 c -2.477,-1.09 -4.821,-2.45 -7.235,-3.66 l -14.394,-7.5 -14.02,-8.167 c -4.734,-2.617 -9.215,-5.664 -13.769,-8.574 -4.524,-2.969 -9.18,-5.723 -13.512,-8.973 L 272.75,968.41 c -4.285,-3.289 -8.5,-6.687 -12.758,-10.019 C 243.223,944.758 227.105,930.238 212.473,914.309 153.07,851.391 111.938,771.508 95.3516,686.438 L 92.3789,670.453 90.1875,654.34 c -0.3242,-2.688 -0.832,-5.363 -1.0078,-8.067 l -0.6875,-8.105 -0.6875,-8.105 c -0.2266,-2.708 -0.5195,-5.411 -0.5469,-8.125 l -0.5586,-16.282 -0.1445,-4.07 c -0.0234,-1.359 0.0234,-2.715 0.0351,-4.074 l 0.0938,-8.145 c -0.1094,-10.879 0.8437,-21.707 1.4414,-32.558 2.0313,-21.641 5.168,-43.204 9.9922,-64.442 0.4883,-2.676 1.25,-5.293 1.9058,-7.929 l 2.04,-7.911 2.027,-7.922 2.406,-7.8 2.41,-7.813 c 0.824,-2.597 1.539,-5.234 2.528,-7.773 l 5.558,-15.391 c 30.918,-81.64 85.426,-154.687 155.813,-208.262 17.578,-13.429 36.144,-25.566 55.41,-36.613 19.34,-10.937 39.594,-20.203 60.242,-28.64 20.742,-8.254 42.184,-14.739 63.941,-20.176 21.801,-5.352 44.047,-8.821 66.481,-11.477"
         style="fill:#100f0d;fill-opacity:1;fill-rule:nonzero;stroke:none"
         id="path12" />
      <path
         d="m 926.844,1023.74 15.472,-12.13 7.723,-6.11 c 2.559,-2.05 4.941,-4.3 7.43,-6.453 l 14.769,-13.067 c 2.524,-2.121 4.754,-4.542 7.129,-6.816 l 7.031,-6.934 7.012,-6.964 c 1.153,-1.18 2.363,-2.305 3.473,-3.516 l 3.307,-3.672 13.23,-14.715 3.31,-3.683 c 1.09,-1.231 2.08,-2.547 3.13,-3.828 l 6.22,-7.704 6.22,-7.726 c 2.04,-2.598 4.23,-5.086 6.09,-7.82 l 11.6,-16.114 c 1.9,-2.707 3.93,-5.332 5.72,-8.117 l 5.3,-8.398 10.62,-16.825 9.69,-17.375 4.85,-8.71 c 1.64,-2.891 2.96,-5.946 4.45,-8.907 l 8.72,-17.937 c 1.52,-2.969 2.76,-6.047 4.04,-9.114 l 3.86,-9.207 3.85,-9.218 1.93,-4.61 c 0.64,-1.543 1.14,-3.125 1.71,-4.687 18.5,-49.973 30.21,-102.656 34.32,-156.094 l 0.97,-20.07 c 0.3,-6.699 0.75,-13.399 0.53,-20.098 l -0.19,-20.125 c -0.15,-6.699 -0.73,-13.398 -1.08,-20.098 l -0.6,-10.058 c -0.21,-3.352 -0.7,-6.68 -1.03,-10.02 l -2.22,-20.039 c -1.01,-6.64 -2.12,-13.281 -3.21,-19.914 -0.55,-3.32 -1.07,-6.648 -1.67,-9.961 l -2.14,-9.851 c -1.47,-6.575 -2.76,-13.184 -4.38,-19.719 l -5.26,-19.5 c -1.62,-6.555 -3.9,-12.902 -5.93,-19.328 l -3.11,-9.617 c -0.53,-1.602 -1.02,-3.215 -1.58,-4.805 l -1.8,-4.727 -7.19,-18.906 c -1.14,-3.183 -2.65,-6.203 -3.96,-9.308 l -4.07,-9.266 -4.08,-9.27 c -1.45,-3.035 -3,-6.035 -4.5,-9.062 -3.04,-6.024 -5.96,-12.117 -9.11,-18.086 -6.65,-11.746 -13,-23.68 -20.42,-34.981 -6.94,-11.609 -14.93,-22.519 -22.65,-33.613 -4.02,-5.429 -8.24,-10.711 -12.35,-16.082 -2.08,-2.656 -4.11,-5.363 -6.24,-7.988 l -6.58,-7.715 -6.59,-7.715 c -2.21,-2.558 -4.34,-5.195 -6.7,-7.609 l -13.894,-14.793 c -1.168,-1.223 -2.297,-2.481 -3.496,-3.672 l -3.649,-3.527 -7.293,-7.059 -7.297,-7.051 c -2.422,-2.375 -5.058,-4.504 -7.578,-6.758 L 943.395,133.559 927.484,120.93 C 905.988,104.496 883.645,89.0508 859.98,75.8086 l -8.792,-5.0898 -9.028,-4.6797 c -6.043,-3.0586 -12.015,-6.2696 -18.121,-9.211 -12.359,-5.5664 -24.59,-11.4375 -37.305,-16.1679 l -9.453,-3.7383 c -1.582,-0.6133 -3.14,-1.2813 -4.742,-1.8438 l -4.812,-1.6289 -19.258,-6.5508 c -6.446,-2.0898 -13.016,-3.789 -19.52,-5.707 l -9.777,-2.7812 c -3.285,-0.8399 -6.598,-1.5586 -9.899,-2.3399 C 702.668,14.5391 696.066,13 689.445,11.5508 L 669.422,8 C 666.074,7.44922 662.762,6.71875 659.391,6.32813 L 649.309,5.05078 639.219,3.78906 C 635.855,3.39844 632.508,2.85156 629.117,2.67969 615.602,1.71875 602.105,0.378906 588.551,0.351563 L 578.395,0.109375 c -3.387,-0.0898437 -6.774,-0.1875 -10.157,-0.03125 l -20.308,0.5625 -5.078,0.140625 c -1.688,0.089844 -3.375,0.25781 -5.063,0.39063 l -10.129,0.80859 -10.125,0.82031 -5.062,0.41797 -5.035,0.65234 -20.149,2.66016 c -3.367,0.36719 -6.691,1.01953 -10.023,1.62891 l -9.996,1.82812 c -13.375,2.14062 -26.477,5.68362 -39.676,8.68362 -6.531,1.7695 -13.024,3.7187 -19.528,5.5898 l -9.742,2.8672 -9.594,3.3203 C 286.113,65.0586 193.879,129.23 126.363,213.156 92.6289,255.082 64.5313,301.496 43.8828,350.98 c -1.3086,3.086 -2.6758,6.141 -3.9297,9.247 l -3.5117,9.414 -3.5078,9.414 c -1.1211,3.156 -2.4336,6.23 -3.3789,9.453 l -6.0742,19.121 -1.5117,4.785 c -0.4805,1.602 -0.8633,3.234 -1.3008,4.844 l -2.5274,9.707 c -3.6484,12.863 -6.0742,26.015 -8.83201,39.062 -1.26953,6.555 -2.1289,13.184 -3.21093,19.758 l -1.54297,9.871 c -0.47266,3.301 -0.71094,6.633 -1.07422,9.942 l -2,19.875 L 0.46875,545.414 0,555.363 l 0.00390625,9.973 0.05078125,19.922 c 0.3125005,6.629 0.4062505,13.262 0.9218755,19.871 l 0.660157,9.922 0.91406,9.902 c 0.53906,6.602 1.44531,13.176 2.23828,19.738 l 1.47266,9.825 c 0.49219,3.269 0.97656,6.543 1.59375,9.793 l 1.75,9.765 c 0.60543,3.242 1.32423,6.477 1.97653,9.707 1.2618,6.485 2.8789,12.903 4.3594,19.328 3.25,12.793 6.6719,25.528 10.8164,38.036 1.9649,6.281 4.2774,12.453 6.4414,18.664 1.1289,3.086 2.3438,6.14 3.5117,9.218 1.1641,3.067 2.3438,6.141 3.6289,9.161 4.8555,12.207 10.4297,24.109 16.1641,35.878 -9.4844,-24.425 -17.8086,-49.238 -23.918,-74.589 -3.25,-12.618 -5.8632,-25.383 -8.2382,-38.157 -1.0508,-6.414 -2.2383,-12.8 -3.0664,-19.246 -0.4415,-3.215 -0.9375,-6.418 -1.3282,-9.64 l -1.1054,-9.668 c -2.7813,-25.789 -3.8321,-51.707 -3.2696,-77.539 l 0.9766,-19.344 0.4961,-9.668 0.9726,-9.629 1.9883,-19.219 2.9531,-19.094 c 0.5118,-3.171 0.9297,-6.367 1.5118,-9.519 l 1.9179,-9.465 c 1.3203,-6.289 2.4258,-12.617 3.9297,-18.867 3.2227,-12.43 6.0938,-24.949 10.1485,-37.129 l 2.832,-9.188 c 0.4844,-1.523 0.918,-3.066 1.4375,-4.582 l 1.6289,-4.531 6.5156,-18.066 c 1.0117,-3.035 2.3985,-5.938 3.5821,-8.914 l 3.7031,-8.86 3.6914,-8.847 c 1.3086,-2.918 2.7344,-5.789 4.0976,-8.68 2.7735,-5.762 5.4375,-11.574 8.293,-17.285 l 9.043,-16.895 c 2.8789,-5.703 6.3242,-11.093 9.5625,-16.593 l 4.9062,-8.211 c 0.8324,-1.36 1.6054,-2.754 2.4804,-4.094 l 2.652,-3.984 10.594,-15.926 c 3.629,-5.235 7.528,-10.293 11.274,-15.442 l 5.675,-7.683 6.016,-7.422 6.008,-7.434 c 2.031,-2.449 3.914,-5.019 6.094,-7.343 l 12.699,-14.258 3.176,-3.555 3.343,-3.406 6.68,-6.817 c 8.699,-9.277 18.328,-17.617 27.563,-26.339 19.214,-16.629 39.175,-32.372 60.289,-46.465 2.558,-1.875 5.316,-3.446 7.988,-5.157 l 8.058,-5.046 8.059,-5.04 c 2.734,-1.601 5.527,-3.117 8.281,-4.679 5.547,-3.055 11.016,-6.258 16.598,-9.258 l 16.98,-8.5235 C 353.133,83.9102 376.5,74 400.68,66.5195 l 9.008,-2.9804 9.14,-2.5391 c 6.102,-1.6484 12.164,-3.4414 18.281,-5.0312 12.36,-2.6797 24.594,-5.8985 37.11,-7.7579 l 9.344,-1.6328 c 3.109,-0.5468 6.218,-1.1289 9.363,-1.4375 l 18.816,-2.3125 4.707,-0.5664 4.731,-0.3398 9.457,-0.6836 9.453,-0.668 c 1.578,-0.1094 3.148,-0.25 4.726,-0.3086 l 4.743,-0.1015 18.953,-0.4414 c 3.16,-0.1407 6.316,-0.0391 9.476,0.0703 l 9.481,0.25 c 12.648,0.0507 25.226,1.3711 37.824,2.2812 3.16,0.1602 6.273,0.6992 9.414,1.0703 l 9.395,1.211 9.394,1.1992 c 3.137,0.3711 6.223,1.0781 9.336,1.5976 L 681.473,50.75 699.93,55 c 98.269,23.3906 189.582,74.867 261.086,146.555 l 13.211,13.644 c 2.253,2.227 4.269,4.668 6.375,7.031 l 6.269,7.129 6.277,7.129 c 2.036,2.43 3.965,4.942 5.954,7.403 3.928,4.968 7.968,9.851 11.798,14.89 7.38,10.293 15.04,20.403 21.79,31.145 7.19,10.449 13.36,21.531 19.85,32.429 3.09,5.547 5.94,11.211 8.92,16.809 1.47,2.813 2.98,5.606 4.41,8.438 l 4.01,8.632 4.02,8.621 c 1.3,2.903 2.79,5.715 3.91,8.692 l 7.21,17.629 1.81,4.402 c 0.56,1.485 1.06,3 1.6,4.492 l 3.18,8.985 c 2.07,5.996 4.4,11.933 6.07,18.066 l 5.47,18.274 c 1.7,6.132 3.08,12.343 4.64,18.515 l 2.28,9.266 c 0.65,3.117 1.22,6.25 1.83,9.375 l 3.63,18.762 2.73,18.925 c 0.42,3.153 0.99,6.297 1.29,9.473 l 0.88,9.531 c 2.91,25.391 2.81,50.985 2.46,76.571 -2.06,51.132 -11.08,102.062 -26.62,151.132 -15.5,49.121 -38.65,95.801 -66.89,139.297 -1.65,2.793 -3.65,5.352 -5.49,8.028 l -5.61,7.949 -5.62,7.969 c -0.95,1.32 -1.85,2.675 -2.84,3.957 l -3.03,3.828 -12.102,15.3 -3.028,3.829 c -1.019,1.269 -2.137,2.453 -3.203,3.683 l -6.453,7.332 c -16.793,19.992 -35.879,37.873 -55.16,55.623"
         style="fill:#100f0d;fill-opacity:1;fill-rule:nonzero;stroke:none"
         id="path14" />
      <path
         d="m 863.941,349.574 c -0.757,-1.183 -1.617,-2.316 -2.574,-3.371 -9.617,-10.586 -20.054,-20.418 -31.25,-29.324 -12.433,-9.895 -25.398,-19.004 -39.293,-26.75 -13.539,-7.559 -27.808,-13.926 -42.375,-19.238 -27.664,-10.098 -57.199,-15.489 -86.605,-16.485 -29.285,-0.996 -59.106,2.766 -87.239,10.91 -28.746,8.329 -56.48,21.289 -81.054,38.387 -26.758,18.613 -50.141,41.086 -68.129,68.371 -16.262,24.656 -27.738,53.086 -33.067,82.137 -5.617,30.617 -5.363,61.602 1.071,92.082 6.14,29.102 18.41,57.43 35.531,81.758 18.582,26.406 42.082,49.199 70.988,64.062 27.555,14.168 58.426,21.719 89.453,21.239 31.29,-0.477 62.368,-8.817 89.637,-24.168 27.746,-15.625 52.274,-38.731 66.906,-67.227 7.09,-13.809 12.446,-28.672 14.997,-43.996 1.39,-8.359 2.394,-16.816 2.531,-25.293 0.14,-8.633 -0.731,-17.137 -1.926,-25.684 -4.352,-31.191 -19.453,-61.14 -41.414,-83.66 -23.059,-23.633 -55.109,-37.265 -88.043,-38.164 -33.199,-0.898 -66.039,11.961 -90.215,34.617 -12.734,11.934 -22.008,27.121 -27.637,43.575 -5.609,16.378 -6.246,33.625 -3.796,50.605 2.195,15.285 8.406,30.578 17.472,43.066 5.262,7.247 10.926,14.082 17.992,19.629 3.922,3.067 7.844,6.086 12.184,8.536 4.394,2.492 9.082,4.464 13.781,6.281 15.86,6.14 33.805,6.66 50.301,3.035 8.238,-1.816 16.363,-5.106 23.695,-9.246 7.5,-4.231 14.77,-9.758 20.524,-16.172 12.531,-13.977 19.855,-31.945 19.859,-50.801 0.004,-19.062 -7.476,-36.953 -20.098,-51.066 -3.539,-3.953 -9.023,-5.633 -14.16,-5.86 -5.336,-0.242 -10.347,2.356 -14.16,5.86 -3.687,3.39 -5.863,9.25 -5.863,14.16 0,5.43 2.312,10.195 5.863,14.16 0.418,0.481 0.813,0.977 1.223,1.457 1.676,2.43 3.168,4.981 4.457,7.637 1.058,2.918 1.879,5.898 2.449,8.945 0.262,3.125 0.262,6.27 0,9.402 -0.578,3.067 -1.41,6.075 -2.48,9.016 -1.274,2.625 -2.743,5.137 -4.403,7.539 -2.191,2.567 -4.586,4.922 -7.164,7.09 -3.441,2.449 -7.07,4.59 -10.89,6.387 -4.024,1.504 -8.157,2.636 -12.387,3.398 -4.367,0.399 -8.754,0.399 -13.125,0 -4.274,-0.762 -8.445,-1.906 -12.508,-3.43 -3.719,-1.757 -7.258,-3.816 -10.609,-6.191 -3.532,-2.957 -6.75,-6.25 -9.696,-9.793 -3.375,-4.648 -6.277,-9.601 -8.683,-14.816 -2.082,-5.43 -3.61,-11.035 -4.578,-16.766 -0.59,-5.891 -0.586,-11.809 0.004,-17.695 0.98,-5.762 2.515,-11.379 4.605,-16.836 2.355,-5.09 5.176,-9.934 8.453,-14.485 3.969,-4.793 8.418,-9.128 13.242,-13.066 6.075,-4.453 12.575,-8.262 19.434,-11.375 7.418,-2.902 15.105,-4.98 22.976,-6.211 7.563,-0.762 15.165,-0.723 22.715,0.078 7.434,1.211 14.715,3.164 21.739,5.86 6.961,3.105 13.546,6.921 19.703,11.406 6.633,5.39 12.562,11.523 17.894,18.191 5.653,7.735 10.473,16.016 14.387,24.746 3.727,9.395 6.391,19.153 7.961,29.133 1.137,10.184 1.137,20.449 -0.008,30.633 -1.574,10.02 -4.254,19.824 -7.992,29.25 -3.981,8.875 -8.891,17.293 -14.668,25.117 -6.703,8.309 -14.359,15.731 -22.688,22.41 -10.238,7.657 -21.289,14.133 -32.976,19.297 -12.094,4.856 -24.703,8.293 -37.582,10.254 -13.145,1.535 -26.41,1.543 -39.559,0.012 -13.011,-1.973 -25.738,-5.449 -37.953,-10.363 -11.519,-5.098 -22.422,-11.473 -32.527,-19.004 -10.762,-8.614 -20.336,-18.524 -28.922,-29.305 -9.801,-13.027 -18.067,-27.129 -24.625,-42.051 -6.317,-15.547 -10.758,-31.797 -13.234,-48.398 -2.036,-16.887 -2.04,-33.957 -0.012,-50.84 2.48,-16.692 6.933,-33.039 13.285,-48.672 6.488,-14.785 14.652,-28.77 24.344,-41.699 11.035,-13.887 23.797,-26.223 37.707,-37.219 16.582,-12.527 34.582,-23.066 53.629,-31.367 12.547,-5.137 25.461,-9.317 38.629,-12.461 30.472,-3.367 61.293,-3.856 91.746,-0.106 22.988,3.262 45.586,9.043 67.093,17.821 9.286,4.054 18.317,8.644 27.02,13.82 5.898,3.738 11.641,7.723 17.226,11.922 11.672,9.191 22.575,19.316 32.567,30.312 0.855,0.938 1.816,1.75 2.851,2.442 1.168,1.367 2.348,2.715 3.485,4.113 0.793,0.977 1.582,1.973 2.367,2.957 0.121,0.168 0.242,0.324 0.363,0.488 1.75,2.325 3.457,4.688 5.117,7.082 3.348,4.813 6.52,9.754 9.512,14.793 5.703,9.602 10.731,19.582 15.184,29.817 10.379,25.223 17.113,51.805 20.902,78.797 3.774,30.234 4.293,61.035 0.59,91.301 -3.844,27.167 -11.074,53.757 -21.547,79.121 -6.91,15.906 -15.039,31.277 -24.387,45.906 -4.382,6.855 -9.019,13.555 -13.91,20.078 -0.48,0.645 -0.972,1.281 -1.461,1.926 -1.199,1.531 -2.414,3.047 -3.64,4.558 -2.52,3.086 -5.098,6.133 -7.731,9.141 -10.711,12.207 -22.332,23.613 -34.734,34.102 -3.098,2.617 -6.25,5.168 -9.43,7.675 -0.668,0.508 -1.332,1.008 -2.004,1.516 -1.488,1.102 -2.98,2.207 -4.484,3.289 -6.613,4.766 -13.399,9.289 -20.348,13.555 -13.269,8.136 -27.144,15.273 -41.441,21.445 -24.981,10.254 -51.149,17.363 -77.875,21.203 -27.254,3.387 -54.86,3.387 -82.11,0 -26.957,-3.867 -53.339,-11.066 -78.511,-21.457 -15.91,-6.914 -31.285,-15.039 -45.907,-24.383 -6.863,-4.386 -13.558,-9.023 -20.078,-13.918 -0.644,-0.476 -1.285,-0.965 -1.929,-1.453 -1.528,-1.203 -3.047,-2.422 -4.555,-3.644 -3.094,-2.52 -6.141,-5.098 -9.141,-7.735 -12.207,-10.711 -23.613,-22.332 -34.105,-34.734 -2.617,-3.098 -5.164,-6.25 -7.68,-9.434 -0.5,-0.664 -1.004,-1.328 -1.508,-1.992 -1.105,-1.496 -2.207,-2.988 -3.289,-4.492 -4.769,-6.613 -9.293,-13.398 -13.554,-20.344 -8.141,-13.281 -15.274,-27.148 -21.446,-41.445 -10.254,-24.981 -17.371,-51.152 -21.203,-77.879 -1.691,-13.625 -2.57,-27.324 -2.594,-41.055 -0.011,-10.988 -8.968,-19.133 -19.605,-19.601 -10.578,-0.477 -19.621,9.347 -19.606,19.601 0.012,13.36 0.801,26.7 2.422,39.961 6.68,54.707 25.473,107.5 56.559,153.184 30.324,44.578 70.648,82.176 117.742,108.555 48.789,27.324 103.965,42.402 159.848,43.945 56.051,1.551 111.875,-10.93 162.191,-35.539 48.903,-23.914 90.934,-59.824 123.781,-103.047 32.11,-42.254 54.192,-92.793 63.364,-145.067 9.093,-51.808 7.093,-105.996 -5.239,-157.148 -10.703,-44.355 -30.679,-86.34 -60.332,-121.133 z m -274.57,623.789 c -228.891,0 -414.441,-185.558 -414.441,-414.445 0,-228.887 185.55,-414.434 414.441,-414.434 228.887,0 414.439,185.547 414.439,414.434 0,228.887 -185.552,414.445 -414.439,414.445"
         style="fill:#100f0d;fill-opacity:1;fill-rule:nonzero;stroke:none"
         id="path16" />
      <path
         d="m 2471.98,241.496 c -6.56,0 -13.13,0 -19.7,0 -196.82,0.02 -393.66,1.445 -590.48,4.504 -196.83,3.211 -393.65,7.684 -590.49,16.316 196.84,8.625 393.66,13.098 590.49,16.321 196.82,3.054 393.66,4.472 590.48,4.5 196.83,0.031 393.65,-1.395 590.48,-4.442 196.83,-3.215 393.66,-7.695 590.48,-16.379 -196.82,-8.679 -393.65,-13.171 -590.48,-16.375 -190.26,-2.949 -380.52,-4.386 -570.78,-4.445"
         style="fill:#100f0d;fill-opacity:1;fill-rule:nonzero;stroke:none"
         id="path18" />
      <path
         d="m 1318,832.004 c 0,70.332 -0.29,108.293 -0.86,113.898 -0.34,9.442 -1.95,16.446 -4.83,20.996 -3.06,5.067 -8.9,8.309 -17.55,9.707 -5.25,1.043 -12.03,1.571 -20.34,1.571 -5.94,-0.352 -8.9,1.269 -8.9,4.844 0,3.058 3.82,4.582 11.45,4.582 31.57,-0.352 56.6,-0.879 75.1,-1.575 46.84,0 90.28,0.176 130.33,0.528 10.35,1.047 17.82,2.101 22.4,3.144 2.72,1.055 5.52,1.75 8.4,2.102 2.04,-0.352 3.06,-1.926 3.06,-4.727 -0.33,-1.047 -1.65,-12.636 -3.96,-34.765 -0.66,-11.164 -1.57,-22.922 -2.72,-35.293 0,-3.664 -1.76,-5.664 -5.25,-6.016 -3.68,0 -5.25,2.539 -4.73,7.605 0,5.079 -1.1,11.555 -3.31,19.426 -1.03,4.891 -4,9.004 -8.93,12.332 -4.76,3.145 -13.43,5.422 -26.02,6.828 -5.95,0.692 -17.93,1.219 -35.95,1.571 -18.2,0.343 -30.95,0.519 -38.26,0.519 -2.38,0 -3.57,-1.75 -3.57,-5.254 V 817.805 c -0.35,-4.043 0.84,-6.055 3.57,-6.055 7.99,0 22.11,0.176 42.35,0.527 19.9,0 33.68,0.176 41.33,0.528 12.24,0.879 20.58,3.593 25,8.156 3.57,4.727 6.37,7.098 8.42,7.098 2.38,0 3.57,-1.493 3.57,-4.461 -0.36,-1.055 -1.78,-14.082 -4.27,-39.082 -1.43,-15.411 -2.14,-27.395 -2.14,-35.969 0,-2.274 -0.17,-4.461 -0.51,-6.563 -0.34,-2.449 -1.78,-3.671 -4.32,-3.671 -3.4,0 -4.92,1.574 -4.57,4.718 0,5.782 -0.68,12.254 -2.04,19.434 -1.18,5.418 -3.81,10.058 -7.88,13.906 -4.59,3.672 -11.72,6.043 -21.39,7.09 -6.27,0.691 -18.07,1.219 -35.38,1.57 -17.82,0 -30.71,0 -38.68,0 -2.39,0 -3.41,-1.746 -3.06,-5.242 v -42.531 c -0.35,-29.051 -0.35,-56.875 0,-83.477 0,-17.851 4.01,-29.832 12.04,-35.957 8.02,-6.484 25.01,-9.539 50.95,-9.187 7.35,0 15.54,0.351 24.59,1.043 9.39,0.351 17.58,2.187 24.58,5.519 12.98,5.418 20.83,18.633 23.56,39.637 0.34,3.32 1.02,5.508 2.05,6.562 1.19,1.055 2.47,1.575 3.84,1.575 3.07,-0.352 4.44,-3.586 4.09,-9.707 0,-7.18 -0.68,-17.141 -2.05,-29.914 -1.35,-13.301 -2.89,-23.184 -4.58,-29.649 -1.54,-6.473 -4.17,-10.41 -7.91,-11.816 -3.91,-1.395 -10.72,-2.09 -20.41,-2.09 -72.11,1.035 -120.32,2.07 -144.64,3.098 -17.51,-0.332 -39.45,-0.852 -65.81,-1.524 -6.97,0 -10.46,1.699 -10.46,5.086 -0.35,2.891 2.36,4.336 8.11,4.336 8.11,0 14.36,0.703 18.75,2.102 5.24,1.406 8.88,4.812 10.9,10.253 2.2,4.903 3.63,11.387 4.31,19.442 1.69,24.707 2.53,62.91 2.53,114.601 v 94.813"
         style="fill:#100f0d;fill-opacity:1;fill-rule:nonzero;stroke:none"
         id="path20" />
      <path
         d="m 1686.92,654.133 c 0.68,-20.332 2.55,-35.047 5.6,-44.16 3.04,-8.582 7.19,-13.75 12.45,-15.508 9.32,-2.801 18.38,-4.024 27.19,-3.672 5.93,0 8.9,-1.445 8.9,-4.336 -0.51,-3.387 -4.58,-5.086 -12.2,-5.086 -33.21,0.672 -54.73,1.192 -64.55,1.524 -7.63,-0.332 -26.35,-0.852 -56.16,-1.524 -7.63,-0.351 -11.44,1.348 -11.44,5.086 0,2.891 2.8,4.336 8.4,4.336 7.64,0 15.46,0.871 23.45,2.629 6.62,1.746 11.12,7.703 13.5,17.871 2.2,9.98 3.14,26.277 2.8,48.875 l 4.59,318.516 c -0.36,11.718 1.93,17.765 6.85,18.105 3.05,0 6.02,-1.492 8.9,-4.461 3.04,-3.156 6.43,-7.265 10.16,-12.344 19.13,-21.875 72.9,-79.375 161.31,-172.492 19.81,-20.476 42.42,-44.285 67.83,-71.414 24.89,-27.656 40.47,-44.726 46.74,-51.203 h 2.52 l -5.09,241.789 c 0,16.121 -1.27,27.774 -3.81,34.961 -3.05,6.824 -7.71,11.297 -13.98,13.398 -9.31,2.45 -18.55,3.504 -27.7,3.153 -5.77,0 -8.48,1.613 -8.13,4.844 0,2.031 1.36,3.39 4.07,4.074 2.71,0.34 5.84,0.508 9.4,0.508 29.13,-0.352 50.13,-0.879 63,-1.575 3.06,0 9.07,0.352 18.05,1.047 9.14,0.352 20.07,0.528 32.77,0.528 7.62,0.351 11.6,-1.184 11.94,-4.582 0,-3.231 -3.06,-4.844 -9.19,-4.844 -4.6,0 -9.87,-0.528 -15.82,-1.571 -7.32,-1.757 -12.17,-6.046 -14.55,-12.882 -2.9,-6.836 -4.51,-17.782 -4.85,-32.852 l -5.62,-339.558 c 0,-11.008 -2.29,-16.504 -6.85,-16.504 -2.71,0 -5.42,1.484 -8.13,4.461 -3.22,2.101 -6.35,4.55 -9.4,7.355 -40.64,41.297 -91.77,93.984 -153.4,158.047 -64.85,69.316 -106.17,114.473 -123.94,135.476 h -1.58 l 5.97,-226.015"
         style="fill:#100f0d;fill-opacity:1;fill-rule:nonzero;stroke:none"
         id="path22" />
      <path
         d="m 2166.43,831.73 c 0,70.461 -0.3,108.497 -0.87,114.114 -0.34,9.461 -1.95,16.472 -4.83,21.035 -3.05,5.078 -8.9,8.32 -17.55,9.726 -5.25,1.043 -12.03,1.571 -20.34,1.571 -5.93,-0.352 -8.9,1.269 -8.9,4.844 0,3.058 3.82,4.582 11.46,4.582 31.58,-0.352 56.62,-0.879 75.13,-1.575 46.86,0 90.33,0.176 130.4,0.528 10.36,1.047 17.83,2.101 22.42,3.144 2.71,1.055 5.52,1.75 8.4,2.102 2.04,-0.352 3.06,-1.926 3.06,-4.707 -0.36,-1.055 -1.76,-12.668 -4.22,-34.824 -0.71,-11.172 -1.67,-22.961 -2.9,-35.352 0,-3.672 -1.75,-5.695 -5.23,-6.035 -3.66,0 -5.22,2.539 -4.7,7.617 0,5.086 -1.1,11.57 -3.31,19.473 -1.01,4.91 -3.98,9.031 -8.9,12.371 -4.75,3.156 -13.41,5.429 -25.96,6.847 -5.94,0.692 -17.9,1.211 -35.88,1.551 -18.15,0.344 -30.87,0.52 -38.16,0.52 -2.38,0 -3.57,-1.75 -3.57,-5.254 V 817.805 c -0.35,-4.043 0.84,-6.055 3.57,-6.055 7.99,0 22.09,0.176 42.32,0.527 19.88,0 33.64,0.176 41.3,0.528 12.23,0.879 20.56,3.593 24.98,8.156 3.56,4.727 6.37,7.098 8.41,7.098 2.38,0 3.57,-1.493 3.57,-4.461 -0.36,-1.055 -1.76,-14.082 -4.22,-39.082 -1.4,-15.411 -2.1,-27.395 -2.1,-35.969 0,-2.274 -0.17,-4.461 -0.51,-6.563 -0.34,-2.449 -1.79,-3.671 -4.34,-3.671 -3.42,0 -4.95,1.574 -4.59,4.718 0,5.782 -0.69,12.254 -2.04,19.434 -1.19,5.418 -3.82,10.058 -7.89,13.906 -4.58,3.672 -11.7,6.043 -21.37,7.09 -6.28,0.691 -18.06,1.219 -35.36,1.57 -17.82,0 -30.7,0 -38.67,0 -2.39,0 -3.41,-1.746 -3.06,-5.242 v -42.531 c -0.35,-29.051 -0.35,-56.875 0,-83.477 0,-17.851 4.01,-29.832 12.02,-35.957 8,-6.484 24.96,-9.539 50.86,-9.187 7.32,0 15.5,0.351 24.54,1.043 9.37,0.351 17.54,2.187 24.53,5.519 12.95,5.418 20.79,18.633 23.51,39.637 0.34,3.32 1.02,5.508 2.05,6.562 1.19,1.055 2.47,1.575 3.84,1.575 3.07,-0.352 4.43,-3.586 4.09,-9.707 0,-7.18 -0.69,-17.141 -2.04,-29.914 -1.37,-13.301 -2.89,-23.184 -4.59,-29.649 -1.53,-6.473 -4.16,-10.41 -7.9,-11.816 -3.91,-1.395 -10.7,-2.09 -20.38,-2.09 -72.04,1.035 -120.2,2.07 -144.49,3.098 -17.5,-0.332 -39.41,-0.852 -65.75,-1.524 -6.96,0 -10.44,1.699 -10.44,5.086 -0.36,2.891 2.35,4.336 8.11,4.336 8.1,0 14.35,0.703 18.75,2.102 5.24,1.406 8.86,4.812 10.89,10.253 2.2,4.903 3.63,11.387 4.31,19.454 1.69,24.695 2.54,62.898 2.54,114.589 v 94.539"
         style="fill:#100f0d;fill-opacity:1;fill-rule:nonzero;stroke:none"
         id="path24" />
      <path
         d="m 2567.36,789.191 c -0.35,-5.253 1.26,-8.406 4.83,-9.453 12.21,-3.679 25.42,-5.515 39.66,-5.515 10,0 17.79,0.703 23.39,2.097 4.74,1.399 9.23,3.762 13.47,7.09 8.3,5.781 15.42,15.227 21.35,28.352 5.93,12.949 9.07,30.359 9.41,52.234 0,19.426 -2.46,35.352 -7.37,47.774 -5.26,12.949 -12.21,23.019 -20.85,30.187 -7.96,7.527 -16.44,12.859 -25.42,16.016 -9.33,2.968 -18.05,4.461 -26.19,4.461 -13.04,0 -22.19,-0.704 -27.45,-2.098 -3.57,-0.879 -5.18,-3.41 -4.83,-7.609 z m -61.35,42.59 c 0,70.438 -0.3,108.465 -0.87,114.071 -0.34,9.464 -1.95,16.464 -4.83,21.027 -3.06,5.078 -8.9,8.32 -17.55,9.726 -5.25,1.043 -12.04,1.571 -20.34,1.571 -5.93,-0.352 -8.9,1.269 -8.9,4.844 0,3.058 3.81,4.582 11.44,4.582 32.37,-0.352 56.17,-0.879 71.43,-1.575 25.25,0.352 49.66,0.871 73.21,1.575 17.11,0 33.81,-1.223 50.08,-3.684 16.26,-2.969 31.52,-9.441 45.76,-19.422 7.97,-5.078 15.78,-13.828 23.42,-26.269 7.64,-12.95 11.62,-28.801 11.97,-47.532 0.34,-19.609 -4.32,-38.953 -14,-58.035 -10.35,-19.609 -28.6,-40.363 -54.73,-62.238 45.44,-60.586 83.09,-107.762 112.94,-141.551 15.09,-15.058 27.64,-24.687 37.65,-28.887 10,-4.375 16.95,-6.925 20.86,-7.617 5.59,-1.054 10.42,-1.574 14.49,-1.574 4.25,0 6.37,-1.445 6.37,-4.336 0,-3.387 -3.32,-5.086 -9.93,-5.086 h -49.59 c -14.24,0 -25.34,0.848 -33.31,2.547 -8.31,1.359 -15.77,3.828 -22.38,7.395 -20.52,11.746 -44.25,38.125 -71.21,79.148 -10.85,15.773 -21.11,31.027 -30.77,45.754 -9.84,14.375 -16.79,23.836 -20.86,28.398 -2.37,2.625 -5.51,3.946 -9.41,3.946 l -45.26,1.043 c -2.89,0 -4.33,-1.485 -4.33,-4.461 v -7.364 c -0.35,-52.07 0.59,-90.461 2.8,-115.175 0.68,-8.059 2.37,-14.551 5.09,-19.454 2.53,-5.441 7.62,-8.859 15.25,-10.253 9.32,-1.379 17.79,-2.051 25.41,-2.051 4.24,0 6.36,-1.457 6.36,-4.356 0,-3.418 -3.47,-5.117 -10.42,-5.117 -36.94,0.672 -62.43,1.192 -76.49,1.524 -15.76,-0.332 -36.94,-0.852 -63.54,-1.524 -6.94,0 -10.42,1.699 -10.42,5.086 -0.35,2.891 2.36,4.336 8.11,4.336 8.11,0 14.36,0.703 18.76,2.102 5.23,1.406 8.86,4.812 10.89,10.253 2.2,4.903 3.63,11.395 4.31,19.461 1.69,24.719 2.54,62.922 2.54,114.641 v 94.531"
         style="fill:#100f0d;fill-opacity:1;fill-rule:nonzero;stroke:none"
         id="path26" />
      <path
         d="m 3225.26,617.063 c 0,-6.473 -0.17,-10.938 -0.5,-13.379 -1.02,-2.098 -3.14,-4.11 -6.37,-6.036 -17.29,-8.828 -37.21,-14.968 -59.76,-18.437 -22.9,-3.633 -44.77,-5.457 -65.62,-5.457 -65.62,0 -121.58,16.707 -167.86,50.125 -47.48,33.242 -71.73,86.777 -72.74,160.605 0.33,43.039 9.66,79.426 27.97,109.172 17.47,29.735 38.32,51.961 62.57,66.649 24.93,15.402 49.26,25.195 73,29.394 22.89,4.024 45.27,5.86 67.15,5.52 43.4,-1.055 74.09,-3.946 92.07,-8.664 13.22,-2.801 26.96,-4.813 41.2,-6.035 5.27,-0.352 7.73,-2.45 7.38,-6.297 -1,1.394 -2.25,-27.989 -3.73,-88.157 0,-7.871 -1.88,-11.64 -5.62,-11.289 -3.23,0 -5.02,2.364 -5.36,7.09 -0.34,6.836 -1.7,14.024 -4.06,21.574 -2.38,7.899 -6.87,15.614 -13.48,23.164 -7.97,9.305 -21.87,18.602 -41.7,27.911 -19.84,8.953 -44.67,13.601 -74.51,13.953 -14.23,0.351 -30.34,-1.231 -48.31,-4.735 -18.14,-4.023 -36.36,-13.574 -54.66,-28.644 -14.58,-12.09 -26.28,-28.738 -35.09,-49.942 -8.65,-21.199 -12.97,-48.445 -12.97,-81.738 0.34,-58.875 17.03,-106.972 50.09,-144.297 31.87,-38.027 75.6,-57.39 131.2,-58.086 7.29,0 14.91,0.344 22.88,1.047 7.97,0.703 15.09,2.285 21.36,4.735 6.96,4.023 10.26,10.683 9.92,19.98 v 50.481 c 0,26.64 -0.18,47.839 -0.51,63.621 0.35,9.289 -1.09,16.3 -4.33,21.027 -3.38,5.086 -9.41,8.328 -18.05,9.727 -5.26,1.054 -12.03,1.582 -20.34,1.582 -5.26,0 -7.88,1.347 -7.88,4.062 0,3.555 3.64,5.332 10.93,5.332 30.84,-0.351 56.01,-0.879 75.51,-1.574 19.82,0.351 40.16,0.879 61.01,1.574 6.94,0 10.42,-1.777 10.42,-5.332 -0.34,-2.715 -2.63,-4.062 -6.86,-4.062 -3.4,0 -8.06,-0.528 -13.99,-1.582 -13.24,-2.102 -19.85,-12.356 -19.85,-30.762 -0.34,-16.125 -0.51,-37.676 -0.51,-64.668 v -59.152"
         style="fill:#100f0d;fill-opacity:1;fill-rule:nonzero;stroke:none"
         id="path28" />
      <path
         d="m 3443.65,720.355 c 0,14.012 -1.02,25.145 -3.05,33.379 -2.04,8.231 -5.01,15.946 -8.91,23.125 -0.68,2.977 -4.83,11.036 -12.47,24.188 -7.63,13.312 -16.89,28.82 -27.74,46.516 -22.57,38.015 -39.7,66.14 -51.41,84.363 -13.57,20.148 -25.62,33.293 -36.14,39.426 -7.63,4.199 -14.93,6.472 -21.88,6.824 -4.75,-0.352 -7.3,1.269 -7.64,4.844 0.34,3.058 3.65,4.582 9.92,4.582 17.97,-0.352 39.83,-0.879 65.6,-1.575 5.76,0 13.73,0.352 23.89,1.047 9.67,0.352 20.26,0.528 31.79,0.528 5.08,0 7.63,-1.536 7.63,-4.59 0,-2.571 -3.82,-4.524 -11.45,-5.879 -4.74,-1.406 -7.12,-4.649 -7.12,-9.727 0,-4.211 2.04,-10.254 6.11,-18.136 2.54,-4.383 8.14,-14.11 16.78,-29.168 8.31,-15.071 17.46,-32.161 27.46,-51.25 22.54,-41.184 37.29,-68.079 44.24,-80.684 1.86,4.023 6.61,13.047 14.24,27.07 7.29,13.133 15.42,28.379 24.41,45.731 20.17,37.668 33.39,62.715 39.66,75.156 4.75,11.914 7.12,21.289 7.12,28.125 0,2.805 -0.68,5.695 -2.03,8.672 -1.36,2.101 -4.32,3.683 -8.9,4.726 -5.93,0.684 -9.07,2.473 -9.4,5.372 0,3.058 2.96,4.582 8.89,4.582 17.46,-0.352 33.82,-0.879 49.08,-1.575 19.32,0.352 37.88,0.871 55.68,1.575 5.93,0 9.07,-1.36 9.4,-4.075 -0.33,-3.562 -3.64,-5.351 -9.9,-5.351 -6.27,0 -13.9,-2.098 -22.88,-6.297 -9.14,-4.387 -18.55,-13.234 -28.2,-26.555 -10.67,-15.066 -28.03,-43.183 -52.08,-84.363 -11.02,-19.102 -20.84,-36.711 -29.48,-52.824 -9.15,-16.121 -15.08,-27.422 -17.78,-33.907 -1.7,-4.726 -3.06,-9.199 -4.07,-13.398 -1.19,-4.734 -2.12,-9.199 -2.79,-13.406 -0.69,-9.113 -1.02,-18.137 -1.02,-27.071 v -44.152 c -0.35,-10.691 0.16,-28.562 1.52,-53.613 0.34,-8.067 2.28,-14.551 5.83,-19.453 2.71,-5.43 7.87,-8.848 15.48,-10.242 8.8,-1.379 17.5,-2.051 26.13,-2.051 5.58,0 8.37,-1.457 8.37,-4.356 -0.5,-3.418 -4.23,-5.117 -11.18,-5.117 -35.59,0.672 -62.12,1.192 -79.57,1.524 -18.3,-0.332 -40,-0.852 -65.08,-1.524 -7.63,0 -11.44,1.699 -11.44,5.086 0,2.891 2.8,4.336 8.42,4.336 7.31,0 13.43,0.703 18.36,2.102 5.1,1.406 9.1,4.812 11.99,10.253 2.38,4.903 3.74,11.375 4.08,19.442 1.02,25.051 1.53,42.922 1.53,53.613 v 44.152"
         style="fill:#100f0d;fill-opacity:1;fill-rule:nonzero;stroke:none"
         id="path30" />
      <path
         d="m 1290.11,449.094 c 0,34.961 -0.14,53.828 -0.43,56.621 -0.17,4.687 -0.97,8.176 -2.4,10.43 -1.52,2.519 -4.42,4.132 -8.72,4.835 -2.61,0.516 -5.99,0.782 -10.11,0.782 -2.96,-0.176 -4.43,0.625 -4.43,2.402 0,1.524 1.9,2.274 5.7,2.274 15.69,-0.176 28.13,-0.43 37.33,-0.782 23.28,0 44.88,0.09 64.79,0.266 5.14,0.516 8.85,1.043 11.13,1.562 1.36,0.528 2.75,0.868 4.18,1.043 1.01,-0.175 1.52,-0.957 1.52,-2.343 -0.16,-0.528 -0.82,-6.289 -1.97,-17.286 -0.33,-5.546 -0.78,-11.394 -1.35,-17.546 0,-1.817 -0.87,-2.813 -2.61,-2.989 -1.83,0 -2.61,1.258 -2.35,3.778 0,2.519 -0.55,5.742 -1.65,9.66 -0.51,2.429 -1.99,4.472 -4.43,6.133 -2.37,1.562 -6.68,2.695 -12.94,3.386 -2.96,0.352 -8.92,0.606 -17.87,0.782 -9.05,0.175 -15.39,0.265 -19.02,0.265 -1.18,0 -1.77,-0.871 -1.77,-2.617 v -67.727 c -0.18,-2 0.41,-2.996 1.77,-2.996 3.97,0 10.99,0.086 21.05,0.262 9.89,0 16.74,0.078 20.55,0.254 6.08,0.441 10.22,1.789 12.43,4.055 1.77,2.351 3.17,3.535 4.18,3.535 1.18,0 1.77,-0.742 1.77,-2.227 -0.17,-0.519 -0.88,-6.992 -2.12,-19.426 -0.71,-7.656 -1.06,-13.613 -1.06,-17.878 0,-1.133 -0.09,-2.219 -0.25,-3.262 -0.17,-1.223 -0.89,-1.828 -2.15,-1.828 -1.69,0 -2.45,0.781 -2.27,2.343 0,2.872 -0.34,6.094 -1.02,9.668 -0.59,2.688 -1.89,5 -3.92,6.907 -2.28,1.824 -5.82,3.008 -10.62,3.523 -3.13,0.352 -8.99,0.617 -17.6,0.793 -8.85,0 -15.27,0 -19.23,0 -1.18,0 -1.69,-0.879 -1.51,-2.617 v -21.145 c -0.18,-14.433 -0.18,-28.269 0,-41.492 0,-8.879 1.99,-14.836 5.98,-17.871 3.99,-3.223 12.43,-4.746 25.33,-4.57 3.65,0 7.72,0.176 12.22,0.515 4.67,0.176 8.74,1.094 12.22,2.747 6.45,2.695 10.36,9.257 11.72,19.707 0.16,1.648 0.5,2.734 1.01,3.261 0.59,0.516 1.23,0.782 1.91,0.782 1.52,-0.176 2.2,-1.79 2.03,-4.825 0,-3.574 -0.33,-8.527 -1.01,-14.875 -0.68,-6.609 -1.44,-11.523 -2.28,-14.734 -0.76,-3.223 -2.08,-5.176 -3.94,-5.879 -1.94,-0.695 -5.32,-1.035 -10.14,-1.035 -35.85,0.508 -59.81,1.023 -71.9,1.543 -8.71,-0.168 -19.61,-0.43 -32.72,-0.762 -3.47,0 -5.2,0.84 -5.2,2.527 -0.18,1.438 1.17,2.149 4.03,2.149 4.03,0 7.14,0.351 9.32,1.055 2.61,0.695 4.41,2.394 5.42,5.089 1.09,2.442 1.81,5.664 2.14,9.668 0.84,12.286 1.26,31.278 1.26,56.973 v 47.137"
         style="fill:#100f0d;fill-opacity:1;fill-rule:nonzero;stroke:none"
         id="path32" />
      <path
         d="m 1473.51,360.668 c 0.34,-10.109 1.27,-17.422 2.78,-21.953 1.52,-4.27 3.58,-6.836 6.2,-7.707 4.63,-1.395 9.13,-2.012 13.51,-1.836 2.95,0 4.43,-0.711 4.43,-2.149 -0.26,-1.687 -2.28,-2.527 -6.07,-2.527 -16.51,0.332 -27.21,0.594 -32.09,0.762 -3.79,-0.168 -13.1,-0.43 -27.92,-0.762 -3.79,-0.176 -5.69,0.672 -5.69,2.527 0,1.438 1.39,2.149 4.18,2.149 3.8,0 7.69,0.441 11.66,1.308 3.29,0.872 5.53,3.84 6.71,8.887 1.1,4.961 1.56,13.067 1.39,24.297 l 2.28,158.34 c -0.17,5.832 0.97,8.828 3.41,9.004 1.52,0 2.99,-0.742 4.42,-2.215 1.51,-1.574 3.2,-3.613 5.05,-6.133 9.52,-10.879 36.24,-39.465 80.2,-85.754 9.84,-10.183 21.08,-22.019 33.71,-35.508 12.38,-13.75 20.12,-22.226 23.24,-25.449 h 1.25 l -2.53,120.196 c 0,8.019 -0.63,13.808 -1.89,17.382 -1.51,3.399 -3.83,5.618 -6.95,6.661 -4.63,1.222 -9.22,1.738 -13.77,1.574 -2.87,0 -4.22,0.801 -4.04,2.402 0,1.004 0.67,1.688 2.02,2.02 1.35,0.175 2.91,0.254 4.67,0.254 14.49,-0.176 24.92,-0.43 31.33,-0.782 1.51,0 4.5,0.176 8.97,0.528 4.54,0.168 9.97,0.254 16.28,0.254 3.79,0.175 5.77,-0.586 5.94,-2.274 0,-1.601 -1.52,-2.402 -4.56,-2.402 -2.29,0 -4.91,-0.266 -7.87,-0.793 -3.64,-0.867 -6.05,-2.996 -7.24,-6.395 -1.44,-3.398 -2.24,-8.847 -2.41,-16.328 l -2.79,-168.808 c 0,-5.469 -1.13,-8.204 -3.4,-8.204 -1.35,0 -2.7,0.731 -4.05,2.215 -1.6,1.047 -3.15,2.266 -4.67,3.653 -20.2,20.539 -45.62,46.73 -76.26,78.574 -32.24,34.453 -52.78,56.906 -61.62,67.355 h -0.78 l 2.97,-112.363"
         style="fill:#100f0d;fill-opacity:1;fill-rule:nonzero;stroke:none"
         id="path34" />
      <path
         d="m 1844.62,441.371 c 0.92,0 1.46,0.606 1.64,1.836 v 5.625 c 0,35.086 -0.18,54.031 -0.51,56.824 -0.17,4.707 -0.97,8.203 -2.4,10.469 -1.52,2.531 -4.43,4.152 -8.73,4.844 -2.61,0.527 -5.99,0.793 -10.11,0.793 -2.96,-0.176 -4.43,0.625 -4.43,2.402 0,1.524 1.81,2.274 5.44,2.274 15.86,-0.176 28.29,-0.43 37.32,-0.782 8.94,0.176 19.82,0.442 32.64,0.782 3.63,0 5.44,-0.75 5.44,-2.274 0,-1.777 -1.56,-2.578 -4.69,-2.402 -1.95,0 -4.45,-0.266 -7.49,-0.793 -3.3,-0.516 -5.67,-1.953 -7.11,-4.305 -1.52,-2.441 -2.37,-6.094 -2.54,-10.976 -0.17,-3.575 -0.25,-9.016 -0.25,-16.329 -0.17,-7.324 -0.26,-20.773 -0.26,-40.371 v -47.043 c -0.17,-25.691 0.25,-44.812 1.27,-57.351 0.34,-3.75 1.19,-6.836 2.54,-9.278 1.27,-2.707 3.8,-4.394 7.61,-5.097 4.31,-0.676 8.71,-1.016 13.18,-1.016 2.79,0 4.19,-0.723 4.19,-2.16 -0.17,-1.699 -1.9,-2.547 -5.19,-2.547 -18.3,0.332 -31.75,0.594 -40.35,0.762 -8.69,-0.168 -19.49,-0.43 -32.39,-0.762 -3.63,0 -5.44,0.84 -5.44,2.527 -0.18,1.438 1.17,2.149 4.05,2.149 3.96,0 7.08,0.351 9.35,1.055 2.62,0.695 4.43,2.394 5.44,5.089 1.01,2.442 1.69,5.664 2.02,9.668 0.93,12.286 1.4,31.278 1.4,56.973 v 23.523 c -0.18,1.036 -0.72,1.563 -1.64,1.563 h -98.89 c -1.01,0 -1.52,-0.527 -1.52,-1.563 v -23.523 c -0.17,-25.695 0.25,-44.816 1.26,-57.363 0.34,-3.75 1.23,-6.836 2.66,-9.278 1.18,-2.707 3.67,-4.394 7.46,-5.097 4.3,-0.676 8.68,-1.016 13.15,-1.016 2.78,0 4.18,-0.723 4.18,-2.16 -0.17,-1.699 -1.9,-2.547 -5.18,-2.547 -18.27,0.332 -31.69,0.594 -40.28,0.762 -8.67,-0.168 -19.52,-0.43 -32.57,-0.762 -3.45,0 -5.18,0.84 -5.18,2.527 -0.17,1.438 1.17,2.149 4.04,2.149 4.02,0 7.13,0.351 9.32,1.055 2.6,0.695 4.41,2.394 5.41,5.089 1.1,2.442 1.81,5.664 2.15,9.668 0.84,12.286 1.26,31.27 1.26,56.961 v 47.043 c 0,35.008 -0.15,53.907 -0.43,56.7 -0.17,4.707 -0.98,8.183 -2.41,10.457 -1.51,2.519 -4.43,4.132 -8.72,4.824 -2.61,0.527 -5.98,0.793 -10.11,0.793 -2.95,-0.176 -4.43,0.625 -4.43,2.402 0,1.524 1.81,2.274 5.43,2.274 15.83,-0.176 28.24,-0.43 37.25,-0.782 8.91,0.176 19.77,0.442 32.57,0.782 3.62,0 5.43,-0.75 5.43,-2.274 0,-1.777 -1.56,-2.578 -4.68,-2.402 -1.85,0 -4.34,-0.266 -7.46,-0.793 -3.29,-0.528 -5.65,-1.961 -7.08,-4.317 -1.52,-2.449 -2.37,-6.113 -2.53,-10.996 -0.17,-3.582 -0.26,-9.031 -0.26,-16.367 -0.16,-7.332 -0.25,-20.82 -0.25,-40.457 v -5.625 c 0,-1.23 0.51,-1.836 1.52,-1.836 h 98.89"
         style="fill:#100f0d;fill-opacity:1;fill-rule:nonzero;stroke:none"
         id="path36" />
      <path
         d="m 2034.83,407.453 c 1.19,0 1.61,0.52 1.26,1.563 l -23.37,66.015 c -0.17,1.387 -0.59,2.168 -1.26,2.344 -0.68,-0.176 -1.18,-0.957 -1.52,-2.344 l -23.75,-65.75 c -0.44,-1.222 -0.1,-1.828 1.01,-1.828 z m -52.81,-13.281 c -1.26,0 -2.06,-0.703 -2.4,-2.09 l -13.9,-38.32 c -2.61,-7.149 -3.91,-12.598 -3.91,-16.348 0,-2.266 0.75,-4.141 2.27,-5.625 1.6,-1.738 4.29,-2.617 8.08,-2.617 h 3.92 c 2.7,0 3.96,-0.711 3.79,-2.149 0,-1.687 -1.43,-2.527 -4.29,-2.527 -9.35,0.332 -18.53,0.594 -27.55,0.762 -4.8,-0.168 -14.95,-0.43 -30.44,-0.762 -3.29,0 -4.93,0.84 -4.93,2.527 0,1.446 1.05,2.168 3.16,2.168 2.69,0 5.35,0.168 7.96,0.508 5.89,0.871 10.48,3.438 13.77,7.696 1.85,2.179 3.37,4.699 4.55,7.57 1.26,2.605 2.48,5.527 3.66,8.738 l 64.94,167.766 c 2.78,7.312 5.18,10.879 7.2,10.703 2.11,0 4.29,-2.832 6.57,-8.477 16.17,-41.925 37.52,-96.718 64.06,-164.386 5.05,-11.563 9.47,-19.219 13.26,-22.957 3.79,-3.567 6.99,-5.606 9.6,-6.133 3.96,-0.676 7.58,-1.016 10.87,-1.016 2.19,0 3.28,-0.723 3.28,-2.168 0,-1.015 -0.67,-1.613 -2.02,-1.777 -1.77,-0.52 -5.05,-0.781 -9.85,-0.781 -10.53,0 -26.83,0.175 -48.9,0.515 -4.96,0 -7.54,0.684 -7.7,2.031 0,1.446 1.17,2.247 3.53,2.415 2.44,0.703 3.25,2.742 2.4,6.14 l -20.72,56.758 c -0.5,1.223 -1.39,1.836 -2.65,1.836 h -57.61"
         style="fill:#100f0d;fill-opacity:1;fill-rule:nonzero;stroke:none"
         id="path38" />
      <path
         d="m 2173.16,360.668 c 0.34,-10.109 1.26,-17.422 2.78,-21.953 1.51,-4.27 3.58,-6.836 6.19,-7.707 4.63,-1.395 9.14,-2.012 13.52,-1.836 2.95,0 4.42,-0.711 4.42,-2.149 -0.25,-1.687 -2.28,-2.527 -6.07,-2.527 -16.5,0.332 -27.2,0.594 -32.09,0.762 -3.78,-0.168 -13.09,-0.43 -27.91,-0.762 -3.79,-0.176 -5.69,0.672 -5.69,2.527 0,1.438 1.39,2.149 4.18,2.149 3.8,0 7.69,0.441 11.65,1.308 3.29,0.872 5.53,3.84 6.72,8.887 1.09,4.961 1.56,13.067 1.39,24.297 l 2.28,158.34 c -0.18,5.832 0.96,8.828 3.41,9.004 1.51,0 2.99,-0.742 4.42,-2.215 1.51,-1.574 3.2,-3.613 5.05,-6.133 9.51,-10.879 36.24,-39.465 80.19,-85.754 9.85,-10.183 21.09,-22.019 33.72,-35.508 12.37,-13.75 20.12,-22.226 23.24,-25.449 h 1.25 l -2.53,120.196 c 0,8.019 -0.63,13.808 -1.89,17.382 -1.52,3.399 -3.84,5.618 -6.95,6.661 -4.63,1.222 -9.22,1.738 -13.78,1.574 -2.86,0 -4.21,0.801 -4.03,2.402 0,1.004 0.67,1.688 2.01,2.02 1.35,0.175 2.91,0.254 4.68,0.254 14.48,-0.176 24.92,-0.43 31.32,-0.782 1.52,0 4.51,0.176 8.97,0.528 4.55,0.168 9.98,0.254 16.29,0.254 3.79,0.175 5.77,-0.586 5.94,-2.274 0,-1.601 -1.52,-2.402 -4.57,-2.402 -2.28,0 -4.91,-0.266 -7.87,-0.793 -3.63,-0.867 -6.05,-2.996 -7.23,-6.395 -1.44,-3.398 -2.24,-8.847 -2.41,-16.328 l -2.79,-168.808 c 0,-5.469 -1.14,-8.204 -3.41,-8.204 -1.35,0 -2.7,0.731 -4.04,2.215 -1.6,1.047 -3.16,2.266 -4.67,3.653 -20.21,20.539 -45.63,46.73 -76.26,78.574 -32.24,34.453 -52.78,56.906 -61.62,67.355 h -0.78 l 2.97,-112.363"
         style="fill:#100f0d;fill-opacity:1;fill-rule:nonzero;stroke:none"
         id="path40" />
      <path
         d="m 2502.84,320.707 c -35.54,-0.344 -65.11,9.356 -88.7,29.09 -12.46,11.828 -20.93,24.66 -25.39,38.488 -4.64,13.914 -6.88,27.403 -6.7,40.449 -0.18,9.559 1.8,21.133 5.93,34.696 4.14,13.476 12.22,26.308 24.27,38.488 9.18,8.867 20.38,15.781 33.61,20.742 13.14,5.039 29.18,7.567 48.14,7.567 14.65,0 27.16,-0.918 37.52,-2.735 5.06,-0.527 9.73,-1.219 14.03,-2.09 4.12,-1.043 8.08,-1.863 11.87,-2.468 2.62,-0.352 3.92,-1.399 3.92,-3.125 -0.17,-1.223 -0.59,-6.133 -1.27,-14.727 -0.17,-11.379 -0.46,-20.977 -0.88,-28.789 0,-4.094 -1.03,-6.133 -3.07,-6.133 -1.96,0 -2.85,1.953 -2.68,5.867 -0.16,8.887 -3.53,17.071 -10.09,24.571 -9.76,10.539 -27.21,16.066 -52.37,16.593 -21.7,-0.175 -37.9,-5.703 -48.58,-16.593 -9.17,-8.887 -15.48,-19.297 -18.93,-31.231 -3.45,-12.109 -5.1,-24.785 -4.92,-38.015 0.76,-31.797 10.1,-55.625 28.04,-71.477 17.18,-15.859 34.98,-23.777 53.42,-23.777 22.14,-0.528 37.93,4.48 47.36,15.019 4.72,6.004 7.66,11.895 8.84,17.637 0.5,3.75 1.61,5.535 3.3,5.359 1.61,-0.175 2.41,-1.523 2.41,-4.031 0,-2.355 -0.59,-7.434 -1.77,-15.246 -1.27,-8.164 -2.59,-14.891 -3.94,-20.184 -0.34,-2.004 -1.05,-3.527 -2.15,-4.562 -0.84,-1.219 -2.35,-2.305 -4.55,-3.262 -5.39,-1.902 -12.39,-3.426 -20.99,-4.551 -8.52,-1.043 -17.07,-1.57 -25.68,-1.57"
         style="fill:#100f0d;fill-opacity:1;fill-rule:nonzero;stroke:none"
         id="path42" />
      <path
         d="m 2623.92,448.957 c 0,35.031 -0.15,53.938 -0.43,56.719 -0.17,4.707 -0.97,8.195 -2.41,10.461 -1.51,2.527 -4.42,4.14 -8.72,4.832 -2.61,0.527 -5.98,0.793 -10.11,0.793 -2.95,-0.176 -4.43,0.625 -4.43,2.402 0,1.524 1.9,2.274 5.7,2.274 15.7,-0.176 28.15,-0.43 37.35,-0.782 23.3,0 44.91,0.09 64.83,0.266 5.15,0.516 8.86,1.043 11.14,1.562 1.35,0.528 2.74,0.868 4.18,1.043 1.01,-0.175 1.52,-0.957 1.52,-2.343 -0.18,-0.516 -0.88,-6.289 -2.1,-17.305 -0.35,-5.555 -0.83,-11.414 -1.44,-17.578 0,-1.824 -0.87,-2.821 -2.6,-2.996 -1.82,0 -2.6,1.258 -2.34,3.777 0,2.531 -0.54,5.762 -1.64,9.688 -0.51,2.441 -1.98,4.492 -4.43,6.152 -2.36,1.562 -6.66,2.695 -12.9,3.398 -2.96,0.344 -8.9,0.606 -17.84,0.774 -9.02,0.176 -15.35,0.261 -18.97,0.261 -1.18,0 -1.78,-0.867 -1.78,-2.617 v -67.715 c -0.17,-2 0.42,-2.996 1.78,-2.996 3.97,0 10.98,0.086 21.04,0.262 9.88,0 16.73,0.078 20.53,0.254 6.08,0.441 10.22,1.789 12.42,4.055 1.77,2.351 3.17,3.535 4.18,3.535 1.18,0 1.77,-0.742 1.77,-2.227 -0.17,-0.519 -0.87,-6.992 -2.09,-19.426 -0.7,-7.656 -1.05,-13.613 -1.05,-17.878 0,-1.133 -0.08,-2.219 -0.25,-3.262 -0.17,-1.223 -0.89,-1.828 -2.16,-1.828 -1.7,0 -2.46,0.781 -2.28,2.343 0,2.872 -0.34,6.094 -1.01,9.668 -0.59,2.688 -1.9,5 -3.92,6.907 -2.29,1.824 -5.83,3.008 -10.63,3.523 -3.12,0.352 -8.98,0.617 -17.58,0.793 -8.86,0 -15.26,0 -19.23,0 -1.18,0 -1.69,-0.879 -1.52,-2.617 v -21.145 c -0.17,-14.433 -0.17,-28.269 0,-41.492 0,-8.879 2,-14.836 5.98,-17.871 3.98,-3.223 12.41,-4.746 25.28,-4.57 3.64,0 7.71,0.176 12.2,0.515 4.66,0.176 8.72,1.094 12.2,2.747 6.43,2.695 10.33,9.257 11.69,19.707 0.16,1.648 0.51,2.734 1.01,3.261 0.6,0.516 1.23,0.782 1.91,0.782 1.53,-0.176 2.21,-1.79 2.03,-4.825 0,-3.574 -0.33,-8.527 -1.01,-14.875 -0.67,-6.609 -1.44,-11.523 -2.28,-14.734 -0.76,-3.223 -2.07,-5.176 -3.93,-5.879 -1.94,-0.695 -5.32,-1.035 -10.13,-1.035 -35.81,0.508 -59.75,1.023 -71.83,1.543 -8.7,-0.168 -19.59,-0.43 -32.68,-0.762 -3.46,0 -5.2,0.84 -5.2,2.527 -0.17,1.438 1.18,2.149 4.04,2.149 4.03,0 7.14,0.351 9.32,1.055 2.6,0.695 4.41,2.394 5.41,5.089 1.1,2.442 1.81,5.664 2.15,9.668 0.84,12.286 1.26,31.278 1.26,56.973 v 47"
         style="fill:#100f0d;fill-opacity:1;fill-rule:nonzero;stroke:none"
         id="path44" />
      <path
         d="m 2802.33,525.258 c 0.85,4.609 2.28,6.914 4.3,6.914 1.1,0 2.15,-0.442 3.16,-1.309 1.01,-1.222 2.32,-3.515 3.92,-6.914 l 70.64,-150.676 70.39,152.5 c 1.68,4.27 3.58,6.399 5.68,6.399 2.45,0 4,-2.746 4.68,-8.223 l 23.5,-165.156 c 1.6,-16.184 5.81,-25.176 12.64,-27.004 7.41,-1.914 12.76,-2.793 16.05,-2.617 2.61,0 4,-0.625 4.17,-1.895 0,-0.847 -0.59,-1.523 -1.77,-2.019 -1.43,-0.508 -3.08,-0.762 -4.93,-0.762 -15.51,0.164 -33.04,0.672 -52.59,1.512 -5.31,0.508 -7.79,1.484 -7.46,2.922 0,1.211 0.93,2.168 2.79,2.859 0.92,0.352 1.55,1.438 1.89,3.262 0.17,1.738 0,4.484 -0.51,8.222 l -15.54,117.54 h -1.01 l -56.51,-121.075 c -4.97,-10.515 -8.18,-15.508 -9.61,-14.988 -1.01,0 -2.19,1.258 -3.54,3.777 -1.6,2.434 -3.41,5.598 -5.43,9.504 -3.63,7.469 -8.89,18.231 -15.8,32.293 -7.08,13.887 -11.77,23.313 -14.04,28.254 -5.48,12.695 -14.45,32.488 -26.93,59.363 h -1.01 l -13.52,-106.328 c -0.5,-4.433 -0.75,-8.652 -0.75,-12.656 0.16,-4.785 2.77,-7.605 7.83,-8.477 4.64,-0.847 8.26,-1.269 10.87,-1.269 2.36,0 3.62,-0.645 3.79,-1.914 -0.17,-1.875 -2.22,-2.801 -6.18,-2.801 -12.02,0.332 -21.06,0.594 -27.11,0.762 -6.89,-0.168 -15.39,-0.43 -25.48,-0.762 -2.94,0 -4.5,0.926 -4.66,2.781 0,1.27 1.34,1.895 4.03,1.895 1.76,-0.176 4.37,0.09 7.81,0.793 3.45,1.035 6.02,3.691 7.7,7.957 1.59,3.906 2.56,8.301 2.89,13.176 l 25.65,174.16"
         style="fill:#100f0d;fill-opacity:1;fill-rule:nonzero;stroke:none"
         id="path46" />
      <path
         d="m 3071.39,448.957 c 0,35.031 -0.15,53.938 -0.43,56.719 -0.17,4.707 -0.97,8.195 -2.4,10.461 -1.52,2.527 -4.43,4.14 -8.73,4.832 -2.61,0.527 -5.98,0.793 -10.11,0.793 -2.95,-0.176 -4.43,0.625 -4.43,2.402 0,1.524 1.9,2.274 5.7,2.274 15.71,-0.176 28.15,-0.43 37.35,-0.782 23.3,0 44.91,0.09 64.83,0.266 5.15,0.516 8.86,1.043 11.14,1.562 1.35,0.528 2.75,0.868 4.18,1.043 1.01,-0.175 1.52,-0.957 1.52,-2.343 -0.18,-0.516 -0.88,-6.289 -2.1,-17.305 -0.35,-5.555 -0.83,-11.414 -1.44,-17.578 0,-1.824 -0.87,-2.821 -2.6,-2.996 -1.82,0 -2.59,1.258 -2.34,3.777 0,2.531 -0.54,5.762 -1.64,9.688 -0.5,2.441 -1.98,4.492 -4.43,6.152 -2.36,1.562 -6.66,2.695 -12.9,3.398 -2.95,0.344 -8.9,0.606 -17.84,0.774 -9.02,0.176 -15.34,0.261 -18.97,0.261 -1.18,0 -1.77,-0.867 -1.77,-2.617 v -67.715 c -0.18,-2 0.42,-2.996 1.77,-2.996 3.97,0 10.98,0.086 21.04,0.262 9.88,0 16.73,0.078 20.53,0.254 6.08,0.441 10.22,1.789 12.42,4.055 1.77,2.351 3.17,3.535 4.18,3.535 1.18,0 1.77,-0.742 1.77,-2.227 -0.17,-0.519 -0.87,-6.992 -2.09,-19.426 -0.7,-7.656 -1.05,-13.613 -1.05,-17.878 0,-1.133 -0.08,-2.219 -0.25,-3.262 -0.17,-1.223 -0.89,-1.828 -2.16,-1.828 -1.7,0 -2.46,0.781 -2.28,2.343 0,2.872 -0.34,6.094 -1.01,9.668 -0.59,2.688 -1.9,5 -3.92,6.907 -2.28,1.824 -5.82,3.008 -10.63,3.523 -3.12,0.352 -8.98,0.617 -17.58,0.793 -8.85,0 -15.26,0 -19.22,0 -1.19,0 -1.7,-0.879 -1.52,-2.617 v -21.145 c -0.18,-14.433 -0.18,-28.269 0,-41.492 0,-8.879 1.99,-14.836 5.97,-17.871 3.98,-3.223 12.41,-4.746 25.29,-4.57 3.63,0 7.7,0.176 12.19,0.515 4.66,0.176 8.72,1.094 12.2,2.747 6.44,2.695 10.33,9.257 11.69,19.707 0.17,1.648 0.51,2.734 1.01,3.261 0.6,0.516 1.24,0.782 1.91,0.782 1.53,-0.176 2.21,-1.79 2.04,-4.825 0,-3.574 -0.34,-8.527 -1.02,-14.875 -0.67,-6.609 -1.44,-11.523 -2.28,-14.734 -0.76,-3.223 -2.07,-5.176 -3.93,-5.879 -1.94,-0.695 -5.32,-1.035 -10.13,-1.035 -35.81,0.508 -59.75,1.023 -71.82,1.543 -8.71,-0.168 -19.6,-0.43 -32.69,-0.762 -3.46,0 -5.2,0.84 -5.2,2.527 -0.17,1.438 1.18,2.149 4.04,2.149 4.03,0 7.14,0.351 9.32,1.055 2.6,0.695 4.41,2.394 5.41,5.089 1.1,2.442 1.81,5.664 2.15,9.668 0.84,12.286 1.26,31.278 1.26,56.973 v 47"
         style="fill:#100f0d;fill-opacity:1;fill-rule:nonzero;stroke:none"
         id="path48" />
      <path
         d="m 3254.79,360.668 c 0.33,-10.109 1.26,-17.422 2.78,-21.953 1.51,-4.27 3.57,-6.836 6.19,-7.707 4.63,-1.395 9.14,-2.012 13.52,-1.836 2.95,0 4.42,-0.711 4.42,-2.149 -0.25,-1.687 -2.28,-2.527 -6.06,-2.527 -16.51,0.332 -27.21,0.594 -32.09,0.762 -3.8,-0.168 -13.1,-0.43 -27.92,-0.762 -3.8,-0.176 -5.69,0.672 -5.69,2.527 0,1.438 1.39,2.149 4.18,2.149 3.8,0 7.68,0.441 11.65,1.308 3.29,0.872 5.53,3.84 6.71,8.887 1.1,4.961 1.56,13.067 1.4,24.297 l 2.28,158.34 c -0.18,5.832 0.96,8.828 3.41,9.004 1.51,0 2.98,-0.742 4.42,-2.215 1.51,-1.574 3.19,-3.613 5.05,-6.133 9.51,-10.879 36.24,-39.465 80.19,-85.754 9.85,-10.183 21.09,-22.019 33.72,-35.508 12.37,-13.75 20.12,-22.226 23.23,-25.449 h 1.26 l -2.53,120.196 c 0,8.019 -0.63,13.808 -1.9,17.382 -1.51,3.399 -3.83,5.618 -6.94,6.661 -4.64,1.222 -9.23,1.738 -13.77,1.574 -2.88,0 -4.22,0.801 -4.05,2.402 0,1.004 0.68,1.688 2.02,2.02 1.35,0.175 2.91,0.254 4.68,0.254 14.48,-0.176 24.92,-0.43 31.32,-0.782 1.51,0 4.5,0.176 8.97,0.528 4.55,0.168 9.98,0.254 16.29,0.254 3.79,0.175 5.77,-0.586 5.94,-2.274 0,-1.601 -1.53,-2.402 -4.57,-2.402 -2.28,0 -4.91,-0.266 -7.86,-0.793 -3.65,-0.867 -6.05,-2.996 -7.24,-6.395 -1.44,-3.398 -2.24,-8.847 -2.41,-16.328 l -2.79,-168.808 c 0,-5.469 -1.14,-8.204 -3.41,-8.204 -1.35,0 -2.69,0.731 -4.04,2.215 -1.6,1.047 -3.16,2.266 -4.68,3.653 -20.2,20.539 -45.62,46.73 -76.26,78.574 -32.24,34.453 -52.77,56.906 -61.61,67.355 h -0.78 l 2.97,-112.363"
         style="fill:#100f0d;fill-opacity:1;fill-rule:nonzero;stroke:none"
         id="path50" />
      <path
         d="m 3527.6,511.574 -38.62,-1.035 c -7.26,-0.176 -12.79,-0.691 -16.59,-1.57 -3.8,-1.223 -6.67,-3.262 -8.61,-6.145 -2.36,-4.09 -3.8,-7.226 -4.3,-9.402 -0.34,-2.09 -1.32,-3.137 -2.92,-3.137 -1.69,0 -2.45,1.387 -2.28,4.16 0,1.301 0.34,3.43 1.01,6.379 0.51,3.028 1.02,6.328 1.53,9.883 1.6,7.801 2.57,12.617 2.91,14.434 0.67,3.386 1.69,5.086 3.03,5.086 1.1,0 2.49,-0.477 4.18,-1.434 1.51,-0.871 3.83,-1.484 6.95,-1.828 8.18,-0.867 16.82,-1.309 25.93,-1.309 h 102.56 c 8.09,0 14.04,0.442 17.84,1.309 3.79,0.871 6.15,1.301 7.08,1.301 1.35,0 2.03,-1.817 2.03,-5.461 -0.17,-9.59 -0.42,-19.91 -0.76,-30.965 -0.17,-2.871 -0.98,-4.309 -2.42,-4.309 -1.87,-0.176 -2.8,1.614 -2.8,5.352 l -0.25,3.008 c 0,3.75 -2.23,7.109 -6.7,10.07 -4.55,2.879 -12.51,4.492 -23.87,4.844 l -32.6,0.769 V 401.957 c -0.18,-25.703 0.25,-44.824 1.26,-57.363 0.42,-3.75 1.31,-6.836 2.65,-9.278 1.19,-2.707 3.67,-4.394 7.46,-5.097 4.29,-0.676 8.72,-1.016 13.27,-1.016 2.77,0 4.16,-0.723 4.16,-2.16 -0.25,-1.699 -1.89,-2.547 -4.93,-2.547 -18.54,0.332 -32.1,0.594 -40.69,0.762 -8.6,-0.168 -19.47,-0.43 -32.62,-0.762 -3.45,0 -5.18,0.84 -5.18,2.527 -0.17,1.438 1.22,2.149 4.18,2.149 3.97,0 7.09,0.351 9.37,1.055 2.54,0.695 4.43,2.394 5.7,5.089 1.01,2.442 1.6,5.664 1.77,9.668 0.85,12.286 1.27,31.278 1.27,56.973 v 109.617"
         style="fill:#100f0d;fill-opacity:1;fill-rule:nonzero;stroke:none"
         id="path52" />
      <path
         d="m 1317.29,54.3711 c -10.54,0 -19.7,1.6797 -27.48,5.0273 -1.35,0.6914 -2.3,1.4805 -2.85,2.3711 -0.49,0.8907 -0.74,2.3086 -0.74,4.2696 0.12,12.3398 0.46,20.8203 1.01,25.4414 0.12,3.289 0.85,4.9961 2.19,5.125 1.03,0 1.61,-0.3438 1.73,-1.0469 0.12,-0.6367 0.18,-1.3867 0.18,-2.2773 0,-2.8516 0.56,-6.1719 1.66,-9.9727 2.27,-7.0898 5.87,-12.1172 10.79,-15.0898 4.92,-3.0391 10.33,-4.5469 16.23,-4.5469 8.55,0.1797 14.91,2.6484 19.09,7.3984 4.12,4.5586 6.18,9.4883 6.18,14.8086 0,2.4727 -0.12,4.9297 -0.37,7.4024 -0.49,2.3476 -1.44,4.75 -2.85,7.2187 -2.34,4.875 -7.4,10.383 -15.2,16.523 l -8.74,6.934 c -10.14,8.293 -17.35,16.145 -21.64,23.547 -4.31,7.41 -6.4,14.941 -6.27,22.598 0,10.886 4.02,19.753 12.05,26.589 7.78,6.641 18.27,10.032 31.46,10.157 6.19,0 11.34,-0.34 15.45,-1.035 4.04,-0.762 7.27,-1.512 9.65,-2.274 1.72,-0.254 2.58,-1.047 2.58,-2.363 0,-1.016 -0.12,-3.254 -0.38,-6.719 -0.25,-3.535 -0.37,-9.023 -0.37,-16.465 0,-4.054 -0.68,-6.008 -2.04,-5.879 -1.29,0 -1.93,1.16 -1.93,3.504 0,1.016 -0.25,2.754 -0.74,5.215 -0.74,2.453 -2.12,4.973 -4.15,7.559 -1.29,2.082 -3.49,4.152 -6.62,6.242 -3.13,2.012 -7.77,3.113 -13.9,3.301 -7.06,0 -12.47,-1.836 -16.21,-5.508 -4.17,-3.731 -6.26,-8.574 -6.26,-14.524 -0.12,-4.304 1.32,-8.554 4.33,-12.722 2.89,-4.121 8.11,-9.211 15.67,-15.293 l 5.25,-4.082 c 11.24,-8.742 19.26,-16.907 24.05,-24.492 4.61,-7.54 6.91,-15.93 6.91,-25.1685 0,-5.7031 -1.2,-11.5234 -3.59,-17.4726 -2.77,-6.0703 -7.46,-11.5235 -14.09,-16.3321 -4.67,-2.9687 -9.58,-5.0312 -14.74,-6.1679 -5.04,-1.211 -10.13,-1.8008 -15.29,-1.8008 h -0.01"
         style="fill:#100f0d;fill-opacity:1;fill-rule:nonzero;stroke:none"
         id="path54" />
      <path
         d="m 1745.66,107.406 c 0,5.067 -0.38,9.09 -1.11,12.078 -0.74,2.981 -1.81,5.762 -3.22,8.36 -0.25,1.086 -1.75,3.996 -4.51,8.75 -2.77,4.824 -6.12,10.429 -10.04,16.836 -8.17,13.75 -14.37,23.925 -18.6,30.527 -4.91,7.285 -9.27,12.043 -13.08,14.258 -2.76,1.523 -5.4,2.344 -7.92,2.473 -1.72,-0.129 -2.63,0.457 -2.76,1.746 0.13,1.113 1.32,1.66 3.59,1.66 6.5,-0.125 14.41,-0.313 23.73,-0.567 2.09,0 4.97,0.129 8.65,0.383 3.5,0.125 7.33,0.184 11.5,0.184 1.84,0 2.76,-0.555 2.76,-1.66 0,-0.926 -1.38,-1.629 -4.14,-2.129 -1.72,-0.508 -2.57,-1.68 -2.57,-3.516 0,-1.523 0.73,-3.711 2.2,-6.562 0.92,-1.582 2.95,-5.106 6.07,-10.555 3.01,-5.449 6.32,-11.633 9.94,-18.547 8.16,-14.891 13.49,-24.629 16,-29.187 0.68,1.453 2.4,4.726 5.16,9.792 2.63,4.758 5.58,10.274 8.83,16.543 7.3,13.633 12.08,22.696 14.35,27.2 1.72,4.316 2.58,7.703 2.58,10.175 0,1.016 -0.25,2.059 -0.74,3.133 -0.49,0.762 -1.56,1.34 -3.22,1.719 -2.15,0.246 -3.28,0.891 -3.41,1.934 0,1.113 1.08,1.66 3.23,1.66 6.32,-0.125 12.23,-0.313 17.75,-0.567 6.99,0.129 13.71,0.313 20.15,0.567 2.14,0 3.28,-0.489 3.4,-1.473 -0.12,-1.289 -1.32,-1.933 -3.58,-1.933 -2.27,0 -5.03,-0.762 -8.28,-2.286 -3.31,-1.582 -6.71,-4.785 -10.21,-9.601 -3.85,-5.449 -10.14,-15.625 -18.84,-30.528 -3.98,-6.902 -7.54,-13.281 -10.66,-19.109 -3.31,-5.832 -5.46,-9.922 -6.44,-12.266 -0.61,-1.71 -1.1,-3.332 -1.47,-4.843 -0.43,-1.719 -0.76,-3.332 -1.01,-4.856 -0.25,-3.301 -0.37,-6.562 -0.37,-9.793 V 91.4297 c -0.13,-3.8711 0.06,-10.3281 0.55,-19.3984 0.12,-2.9219 0.83,-5.2618 2.11,-7.043 0.98,-1.957 2.85,-3.1875 5.6,-3.707 3.19,-0.4922 6.34,-0.7305 9.46,-0.7305 2.02,0 3.03,-0.5313 3.03,-1.582 -0.19,-1.2305 -1.54,-1.8477 -4.05,-1.8477 -12.88,0.25 -22.48,0.4297 -28.79,0.5508 -6.62,-0.1211 -14.47,-0.3008 -23.54,-0.5508 -2.76,0 -4.14,0.6172 -4.14,1.8398 0,1.0391 1.01,1.5704 3.04,1.5704 2.65,0 4.86,0.25 6.65,0.7578 1.84,0.5117 3.29,1.7422 4.33,3.7109 0.86,1.7695 1.36,4.1094 1.48,7.0313 0.37,9.0703 0.56,15.5273 0.56,19.3984 v 15.9763"
         style="fill:#100f0d;fill-opacity:1;fill-rule:nonzero;stroke:none"
         id="path56" />
      <path
         d="m 2182.97,54.3711 c -10.53,0 -19.69,1.6797 -27.47,5.0273 -1.35,0.6914 -2.3,1.4805 -2.85,2.3711 -0.49,0.8907 -0.74,2.3086 -0.74,4.2696 0.13,12.3398 0.46,20.832 1.01,25.4492 0.12,3.293 0.85,5 2.19,5.125 1.03,0 1.61,-0.3516 1.73,-1.043 0.12,-0.6406 0.18,-1.3984 0.18,-2.289 0,-2.8399 0.55,-6.1719 1.66,-9.9727 2.28,-7.0898 5.87,-12.1172 10.79,-15.0898 4.92,-3.0391 10.33,-4.5469 16.23,-4.5469 8.55,0.1797 14.91,2.6484 19.09,7.3984 4.12,4.5586 6.18,9.4883 6.18,14.8086 0,2.4727 -0.12,4.9297 -0.37,7.4024 -0.49,2.3476 -1.44,4.75 -2.85,7.2187 -2.33,4.875 -7.4,10.383 -15.2,16.523 l -8.75,6.934 c -10.13,8.293 -17.34,16.145 -21.64,23.547 -4.3,7.41 -6.39,14.941 -6.26,22.598 0,10.886 4.02,19.753 12.05,26.589 7.79,6.641 18.27,10.032 31.46,10.157 6.19,0 11.34,-0.34 15.45,-1.035 4.04,-0.762 7.26,-1.524 9.65,-2.274 1.72,-0.254 2.58,-1.047 2.58,-2.363 0,-1.016 -0.13,-3.254 -0.38,-6.731 -0.25,-3.535 -0.38,-9.023 -0.38,-16.465 0,-4.05 -0.67,-6.015 -2.03,-5.886 -1.29,0 -1.94,1.172 -1.94,3.515 0,1.004 -0.24,2.743 -0.73,5.204 -0.74,2.46 -2.12,4.98 -4.14,7.57 -1.29,2.078 -3.5,4.16 -6.63,6.238 -3.13,2.024 -7.77,3.125 -13.91,3.313 -7.05,0 -12.45,-1.836 -16.2,-5.508 -4.17,-3.731 -6.26,-8.574 -6.26,-14.524 -0.12,-4.304 1.32,-8.554 4.33,-12.722 2.89,-4.121 8.11,-9.211 15.67,-15.293 l 5.25,-4.082 c 11.24,-8.742 19.26,-16.907 24.05,-24.492 4.61,-7.54 6.91,-15.93 6.91,-25.1685 0,-5.7031 -1.2,-11.5234 -3.59,-17.4726 -2.76,-6.0703 -7.46,-11.5235 -14.1,-16.3321 -4.66,-2.9687 -9.57,-5.0312 -14.73,-6.1679 -5.04,-1.211 -10.13,-1.8008 -15.29,-1.8008 h -0.02"
         style="fill:#100f0d;fill-opacity:1;fill-rule:nonzero;stroke:none"
         id="path58" />
      <path
         d="m 2615.24,193.273 -28.11,-0.75 c -5.28,-0.128 -9.31,-0.507 -12.08,-1.144 -2.76,-0.887 -4.85,-2.371 -6.26,-4.473 -1.72,-2.976 -2.76,-5.261 -3.13,-6.843 -0.25,-1.524 -0.96,-2.278 -2.12,-2.278 -1.24,0 -1.79,1.008 -1.66,3.028 0,0.949 0.24,2.492 0.73,4.64 0.37,2.207 0.74,4.598 1.11,7.188 1.16,5.683 1.87,9.179 2.12,10.507 0.49,2.469 1.23,3.7 2.21,3.7 0.8,0 1.81,-0.352 3.03,-1.043 1.11,-0.637 2.8,-1.075 5.07,-1.328 5.95,-0.637 12.24,-0.95 18.87,-0.95 h 74.64 c 5.89,0 10.22,0.313 12.98,0.95 2.76,0.632 4.48,0.945 5.15,0.945 1,0 1.49,-1.317 1.49,-3.973 -0.13,-6.972 -0.31,-14.492 -0.56,-22.539 -0.13,-2.09 -0.71,-3.137 -1.76,-3.137 -1.36,-0.125 -2.04,1.172 -2.04,3.899 l -0.18,2.187 c 0,2.735 -1.63,5.176 -4.88,7.332 -3.31,2.09 -9.1,3.262 -17.37,3.516 l -23.72,0.566 V 113.5 c -0.13,-18.7109 0.18,-32.6289 0.91,-41.75 0.31,-2.7305 0.96,-4.9805 1.94,-6.7617 0.85,-1.957 2.66,-3.1875 5.42,-3.707 3.13,-0.4922 6.34,-0.7305 9.66,-0.7305 2.02,0 3.03,-0.5313 3.03,-1.582 -0.18,-1.2305 -1.38,-1.8477 -3.59,-1.8477 -13.49,0.25 -23.36,0.4297 -29.62,0.5508 -6.26,-0.1211 -14.17,-0.3008 -23.73,-0.5508 -2.52,0 -3.77,0.6172 -3.77,1.8398 -0.13,1.0391 0.88,1.5704 3.04,1.5704 2.89,0 5.16,0.25 6.82,0.7578 1.84,0.5117 3.22,1.7422 4.14,3.7109 0.74,1.7695 1.17,4.1094 1.3,7.0313 0.61,8.9375 0.92,22.7695 0.92,41.4687 v 79.773"
         style="fill:#100f0d;fill-opacity:1;fill-rule:nonzero;stroke:none"
         id="path60" />
      <path
         d="m 3039.35,147.699 c 0,25.496 -0.11,39.258 -0.32,41.289 -0.12,3.418 -0.7,5.957 -1.74,7.606 -1.11,1.836 -3.23,3.019 -6.35,3.527 -1.91,0.379 -4.36,0.567 -7.36,0.567 -2.15,-0.129 -3.22,0.457 -3.22,1.746 0,1.113 1.38,1.66 4.14,1.66 11.43,-0.125 20.49,-0.313 27.19,-0.567 16.95,0 32.68,0.059 47.18,0.188 3.74,0.379 6.45,0.762 8.11,1.14 0.98,0.383 1.99,0.637 3.04,0.762 0.73,-0.125 1.1,-0.703 1.1,-1.707 -0.12,-0.383 -0.64,-4.582 -1.52,-12.597 -0.26,-4.043 -0.61,-8.313 -1.05,-12.793 0,-1.329 -0.63,-2.051 -1.89,-2.18 -1.33,0 -1.89,0.918 -1.7,2.754 0,1.836 -0.4,4.191 -1.2,7.043 -0.37,1.777 -1.44,3.269 -3.23,4.48 -1.71,1.145 -4.84,1.965 -9.39,2.473 -2.14,0.254 -6.47,0.437 -12.98,0.566 -6.56,0.125 -11.17,0.184 -13.8,0.184 -0.87,0 -1.29,-0.633 -1.29,-1.902 V 142.66 c -0.13,-1.457 0.3,-2.187 1.29,-2.187 2.89,0 7.99,0.066 15.31,0.195 7.19,0 12.17,0.059 14.94,0.184 4.42,0.324 7.44,1.3 9.04,2.949 1.29,1.719 2.3,2.57 3.04,2.57 0.86,0 1.29,-0.539 1.29,-1.613 -0.13,-0.379 -0.64,-5.098 -1.52,-14.141 -0.51,-5.574 -0.76,-9.91 -0.76,-13.008 0,-0.828 -0.06,-1.621 -0.19,-2.382 -0.12,-0.879 -0.65,-1.329 -1.57,-1.329 -1.23,0 -1.79,0.579 -1.66,1.711 0,2.09 -0.25,4.434 -0.74,7.032 -0.43,1.961 -1.38,3.64 -2.85,5.027 -1.66,1.328 -4.24,2.187 -7.73,2.57 -2.27,0.254 -6.54,0.438 -12.8,0.567 -6.44,0 -11.1,0 -13.99,0 -0.86,0 -1.23,-0.637 -1.1,-1.895 v -15.39 c -0.13,-10.508 -0.13,-20.5786 0,-30.1997 0,-6.4609 1.44,-10.8008 4.34,-13.0117 2.9,-2.3477 9.03,-3.4492 18.41,-3.3203 2.64,0 5.6,0.1211 8.87,0.3828 3.39,0.1172 6.35,0.7891 8.88,1.9883 4.68,1.9609 7.52,6.7422 8.51,14.3398 0.12,1.211 0.37,2 0.74,2.3789 0.43,0.3828 0.89,0.5625 1.39,0.5625 1.11,-0.1211 1.6,-1.3008 1.47,-3.5117 0,-2.5898 -0.24,-6.1992 -0.73,-10.8203 -0.5,-4.8203 -1.05,-8.3867 -1.66,-10.7305 -0.55,-2.3398 -1.51,-3.7578 -2.86,-4.2695 -1.42,-0.5078 -3.88,-0.7578 -7.38,-0.7578 -26.06,0.3789 -43.48,0.75 -52.27,1.1211 -6.34,-0.1211 -14.26,-0.3008 -23.79,-0.5508 -2.52,0 -3.78,0.6172 -3.78,1.8398 -0.13,1.0391 0.85,1.5704 2.93,1.5704 2.94,0 5.2,0.25 6.79,0.7578 1.9,0.5117 3.21,1.7422 3.94,3.7109 0.8,1.7695 1.31,4.1094 1.56,7.0313 0.61,8.9375 0.92,22.7695 0.92,41.4687 v 34.199"
         style="fill:#100f0d;fill-opacity:1;fill-rule:nonzero;stroke:none"
         id="path62" />
      <path
         d="m 3480.32,203.234 c 0.61,3.352 1.66,5.032 3.13,5.032 0.79,0 1.56,-0.325 2.3,-0.95 0.74,-0.886 1.68,-2.566 2.85,-5.027 l 51.41,-109.6679 51.23,110.9959 c 1.22,3.094 2.6,4.649 4.14,4.649 1.77,0 2.91,-1.993 3.4,-5.977 l 17.11,-120.2109 c 1.16,-11.7695 4.23,-18.3281 9.19,-19.6562 5.4,-1.3828 9.3,-2.0235 11.68,-1.8906 1.9,0 2.92,-0.4727 3.04,-1.3907 0,-0.6093 -0.43,-1.1015 -1.29,-1.4687 -1.04,-0.3633 -2.23,-0.5508 -3.59,-0.5508 -11.28,0.1172 -24.04,0.4883 -38.27,1.1094 -3.86,0.3593 -5.67,1.0703 -5.43,2.1093 0,0.8907 0.68,1.5899 2.03,2.0899 0.67,0.2617 1.13,1.0508 1.37,2.3789 0.13,1.2617 0,3.2617 -0.36,5.9727 l -11.32,85.5507 h -0.73 l -41.13,-88.1132 c -3.62,-7.6602 -5.95,-11.2891 -6.99,-10.9102 -0.74,0 -1.6,0.9219 -2.58,2.7422 -1.16,1.7773 -2.48,4.0781 -3.96,6.9297 -2.63,5.4297 -6.47,13.2578 -11.49,23.4883 -5.16,10.1212 -8.56,16.9652 -10.22,20.5702 -3.98,9.238 -10.52,23.641 -19.59,43.203 h -0.74 l -9.85,-77.3826 c -0.36,-3.2305 -0.54,-6.3008 -0.54,-9.211 0.12,-3.4882 2.02,-5.539 5.7,-6.1679 3.38,-0.6211 6.01,-0.9297 7.91,-0.9297 1.72,0 2.64,-0.4727 2.76,-1.3906 -0.12,-1.3594 -1.62,-2.0391 -4.5,-2.0391 -8.75,0.25 -15.32,0.4297 -19.73,0.5508 -5.02,-0.1211 -11.2,-0.3008 -18.54,-0.5508 -2.14,0 -3.27,0.6797 -3.4,2.0195 0,0.918 0.98,1.3907 2.94,1.3907 1.28,-0.1329 3.18,0.0585 5.69,0.5703 2.5,0.7578 4.37,2.6875 5.59,5.789 1.16,2.8477 1.87,6.0391 2.11,9.5899 l 18.67,126.7535"
         style="fill:#100f0d;fill-opacity:1;fill-rule:nonzero;stroke:none"
         id="path64" />
    </g>
  </g>
</svg>
