<?xml version="1.0" encoding="UTF-8" standalone="no"?>
<!-- Created with Inkscape (http://www.inkscape.org/) -->

<svg
   version="1.1"
   id="svg2"
   width="1010.8933"
   height="570.32001"
   viewBox="0 0 1010.8933 570.32001"
   sodipodi:docname="Energy Enhancement System-All White-01.eps"
   xmlns:inkscape="http://www.inkscape.org/namespaces/inkscape"
   xmlns:sodipodi="http://sodipodi.sourceforge.net/DTD/sodipodi-0.dtd"
   xmlns="http://www.w3.org/2000/svg"
   xmlns:svg="http://www.w3.org/2000/svg">
  <defs
     id="defs6" />
  <sodipodi:namedview
     id="namedview4"
     pagecolor="#ffffff"
     bordercolor="#000000"
     borderopacity="0.25"
     inkscape:showpageshadow="2"
     inkscape:pageopacity="0.0"
     inkscape:pagecheckerboard="0"
     inkscape:deskcolor="#d1d1d1" />
  <g
     id="g8"
     inkscape:groupmode="layer"
     inkscape:label="ink_ext_XXXXXX"
     transform="matrix(1.3333333,0,0,-1.3333333,0,570.32)">
    <g
       id="g10"
       transform="scale(0.1)">
      <path
         d="m 2471,1715.35 c -11.26,0.44 -22.61,0.44 -33.86,1.69 l -8.47,0.75 -4.23,0.36 -4.21,0.56 -16.87,2.31 c -5.62,0.84 -11.17,2.07 -16.76,3.09 l -8.38,1.63 -8.28,2.02 -8.3,2.01 c -2.77,0.68 -5.55,1.31 -8.27,2.17 l -16.41,4.82 c -21.74,6.95 -43.06,15.39 -63.68,25.43 -20.53,10.18 -40.51,21.59 -59.61,34.45 -76.26,51.65 -137.35,126.41 -173.23,212.41 l -6.45,16.24 c -1.13,2.69 -1.99,5.47 -2.95,8.23 l -2.84,8.27 -2.82,8.27 -2.44,8.4 -2.43,8.41 c -0.8,2.8 -1.69,5.58 -2.31,8.43 l -4.04,17.05 c -0.72,2.83 -1.22,5.7 -1.75,8.57 l -1.58,8.61 -1.58,8.62 c -0.49,2.88 -0.82,5.78 -1.23,8.67 -0.75,5.79 -1.61,11.57 -2.27,17.38 -0.95,11.64 -2.22,23.27 -2.39,34.96 l -0.32,8.77 c -0.04,1.46 -0.12,2.92 -0.13,4.39 l 0.07,4.37 0.3,17.55 c -0.01,2.92 0.24,5.84 0.43,8.76 l 0.59,8.75 0.6,8.76 c 0.15,2.93 0.63,5.82 0.93,8.73 l 2.08,17.45 c 0.91,5.78 1.94,11.55 2.91,17.34 0.51,2.88 0.94,5.78 1.52,8.65 l 1.9,8.58 c 1.32,5.71 2.43,11.48 3.98,17.13 l 4.72,16.94 1.19,4.24 1.38,4.17 2.78,8.35 c 3.47,11.22 8.06,22.03 12.24,33 4.85,10.67 9.3,21.55 14.82,31.92 l 3.98,7.86 2,3.91 2.19,3.83 8.75,15.27 c 3.01,5.04 6.27,9.92 9.4,14.89 1.59,2.47 3.14,4.96 4.77,7.4 l 5.08,7.19 5.09,7.17 c 1.71,2.4 3.36,4.82 5.21,7.1 l 10.86,13.86 c 1.77,2.34 3.73,4.53 5.64,6.76 l 5.75,6.67 5.76,6.66 c 1.98,2.16 4.02,4.27 6.04,6.4 15.92,17.26 33.48,32.95 51.73,47.69 4.63,3.6 9.22,7.27 13.89,10.82 l 14.36,10.18 c 4.72,3.49 9.77,6.49 14.69,9.69 4.97,3.13 9.82,6.44 14.99,9.22 l 15.31,8.7 15.7,7.97 c 2.63,1.29 5.2,2.73 7.89,3.89 l 8.03,3.59 8.04,3.59 4.01,1.78 4.1,1.61 16.4,6.37 c 5.48,2.09 11.11,3.78 16.65,5.69 l 8.35,2.77 c 2.8,0.83 5.64,1.59 8.46,2.37 5.66,1.54 11.29,3.18 16.98,4.6 11.45,2.49 22.83,5.32 34.43,7.04 l 8.66,1.47 4.33,0.72 4.36,0.52 17.44,2.07 c 2.89,0.4 5.82,0.51 8.74,0.73 l 8.75,0.6 8.76,0.58 c 2.91,0.21 5.84,0.13 8.76,0.21 l 17.53,0.23 c 5.84,-0.12 11.68,-0.38 17.52,-0.56 2.91,-0.15 5.83,-0.13 8.74,-0.41 l 8.74,-0.71 8.72,-0.72 c 1.46,-0.13 2.92,-0.23 4.37,-0.38 l 4.34,-0.56 17.37,-2.25 c 5.76,-0.94 11.5,-2.01 17.24,-3.03 5.76,-0.93 11.43,-2.34 17.12,-3.62 5.68,-1.33 11.39,-2.5 16.98,-4.17 5.61,-1.59 11.24,-3.1 16.83,-4.74 l 16.6,-5.45 c 22,-7.68 43.44,-16.83 64.1,-27.47 20.58,-10.8 40.42,-22.91 59.27,-36.38 37.55,-27.14 71.34,-59.32 99.44,-95.8 7.18,-8.99 13.63,-18.52 20.17,-27.96 l 9.26,-14.52 c 1.59,-2.38 2.96,-4.91 4.41,-7.38 l 4.3,-7.45 c 1.41,-2.5 2.91,-4.93 4.24,-7.47 l 3.95,-7.63 c 2.6,-5.11 5.4,-10.1 7.7,-15.34 2.37,-5.21 4.85,-10.35 7.14,-15.59 l 6.39,-15.9 c 8.08,-21.34 14.85,-43.12 19.93,-65.27 4.75,-22.22 8.18,-44.64 9.87,-67.16 -3.97,22.24 -9.02,44.19 -15.63,65.63 -6.65,21.42 -14.82,42.29 -24.22,62.51 l -7.35,15.02 -7.91,14.7 c -2.53,4.95 -5.54,9.65 -8.35,14.44 l -4.27,7.15 c -1.44,2.37 -3.04,4.65 -4.55,6.98 l -4.58,6.94 c -1.55,2.32 -3.01,4.66 -4.69,6.88 l -9.77,13.44 c -6.85,8.71 -13.58,17.49 -21,25.71 -14.5,16.67 -29.95,32.5 -46.68,46.84 -16.65,14.4 -34.04,27.92 -52.46,39.88 -18.45,11.89 -37.56,22.66 -57.3,32.09 -19.82,9.3 -40.29,17.05 -61.07,23.66 -83.35,25.75 -173.64,27.69 -257.46,5.64 -5.23,-1.4 -10.4,-3.03 -15.6,-4.52 l -7.79,-2.29 -7.68,-2.64 c -5.1,-1.82 -10.28,-3.41 -15.31,-5.4 l -15.07,-6.04 -3.76,-1.51 -3.69,-1.7 -7.37,-3.39 -7.38,-3.38 c -2.48,-1.09 -4.82,-2.45 -7.24,-3.66 l -14.39,-7.5 -14.02,-8.16 c -4.74,-2.62 -9.22,-5.67 -13.77,-8.58 -4.52,-2.97 -9.18,-5.72 -13.51,-8.97 l -13.21,-9.43 c -4.29,-3.29 -8.5,-6.69 -12.76,-10.02 -16.77,-13.63 -32.88,-28.15 -47.52,-44.08 -59.4,-62.92 -100.53,-142.8 -117.12,-227.87 l -2.97,-15.99 -2.19,-16.11 c -0.33,-2.68 -0.83,-5.36 -1.01,-8.07 l -0.69,-8.1 -0.69,-8.11 c -0.22,-2.7 -0.51,-5.41 -0.54,-8.12 l -0.56,-16.28 -0.15,-4.07 c -0.02,-1.36 0.03,-2.72 0.04,-4.08 l 0.1,-8.14 c -0.12,-10.88 0.84,-21.71 1.44,-32.56 2.03,-21.64 5.16,-43.2 9.99,-64.44 0.48,-2.68 1.25,-5.29 1.91,-7.93 l 2.03,-7.91 2.03,-7.92 2.41,-7.8 2.41,-7.82 c 0.82,-2.59 1.54,-5.23 2.52,-7.77 l 5.56,-15.39 c 30.92,-81.64 85.43,-154.69 155.81,-208.26 17.58,-13.43 36.15,-25.57 55.41,-36.61 19.35,-10.94 39.6,-20.21 60.25,-28.65 20.74,-8.25 42.18,-14.73 63.94,-20.17 21.8,-5.35 44.05,-8.82 66.48,-11.48"
         style="fill:#ffffff;fill-opacity:1;fill-rule:nonzero;stroke:none"
         id="path12" />
      <path
         d="m 2878.96,2614.44 15.48,-12.13 7.72,-6.12 c 2.56,-2.05 4.94,-4.3 7.43,-6.45 l 14.77,-13.07 c 2.52,-2.12 4.75,-4.54 7.13,-6.81 l 7.03,-6.94 7.01,-6.96 c 1.15,-1.18 2.36,-2.31 3.47,-3.52 l 3.31,-3.67 13.23,-14.72 3.31,-3.68 c 1.09,-1.23 2.08,-2.55 3.13,-3.83 l 6.22,-7.7 6.22,-7.72 c 2.04,-2.6 4.23,-5.09 6.09,-7.83 l 11.6,-16.11 c 1.9,-2.71 3.93,-5.33 5.72,-8.12 l 5.3,-8.39 10.62,-16.83 9.69,-17.37 4.85,-8.71 c 1.64,-2.89 2.96,-5.95 4.45,-8.91 l 8.72,-17.94 c 1.52,-2.97 2.76,-6.04 4.05,-9.11 l 3.85,-9.21 3.86,-9.22 1.92,-4.61 c 0.64,-1.54 1.14,-3.12 1.71,-4.69 18.5,-49.97 30.21,-102.65 34.32,-156.09 l 0.97,-20.07 c 0.3,-6.7 0.75,-13.4 0.53,-20.1 l -0.19,-20.12 c -0.15,-6.7 -0.72,-13.4 -1.08,-20.1 l -0.6,-10.06 c -0.21,-3.35 -0.7,-6.68 -1.03,-10.02 l -2.22,-20.04 c -1.01,-6.64 -2.12,-13.28 -3.21,-19.91 -0.55,-3.32 -1.07,-6.65 -1.67,-9.96 l -2.14,-9.85 c -1.47,-6.58 -2.76,-13.19 -4.38,-19.72 l -5.26,-19.5 c -1.62,-6.56 -3.9,-12.9 -5.93,-19.33 l -3.11,-9.62 c -0.53,-1.6 -1.02,-3.21 -1.58,-4.8 l -1.8,-4.73 -7.19,-18.91 c -1.14,-3.18 -2.65,-6.2 -3.96,-9.3 l -4.07,-9.27 -4.08,-9.27 c -1.45,-3.03 -3,-6.03 -4.5,-9.06 -3.04,-6.03 -5.96,-12.12 -9.11,-18.09 -6.65,-11.74 -13,-23.68 -20.42,-34.98 -6.93,-11.61 -14.93,-22.52 -22.65,-33.61 -4.02,-5.43 -8.23,-10.71 -12.35,-16.08 -2.08,-2.66 -4.11,-5.36 -6.24,-7.99 l -6.58,-7.72 -6.59,-7.71 c -2.21,-2.56 -4.34,-5.2 -6.7,-7.61 l -13.9,-14.79 c -1.16,-1.22 -2.29,-2.48 -3.49,-3.68 l -3.65,-3.52 -7.29,-7.06 -7.3,-7.05 c -2.42,-2.38 -5.06,-4.5 -7.58,-6.76 l -15.31,-13.34 -15.9,-12.63 c -21.5,-16.43 -43.85,-31.88 -67.51,-45.11 l -8.79,-5.1 -9.03,-4.68 c -6.04,-3.06 -12.02,-6.27 -18.12,-9.21 -12.36,-5.57 -24.59,-11.43 -37.31,-16.17 l -9.45,-3.74 c -1.58,-0.61 -3.14,-1.28 -4.74,-1.84 l -4.81,-1.63 -19.26,-6.55 c -6.45,-2.09 -13.01,-3.79 -19.52,-5.7 l -9.78,-2.79 c -3.28,-0.84 -6.6,-1.56 -9.9,-2.34 -6.6,-1.52 -13.2,-3.07 -19.83,-4.52 l -20.02,-3.55 c -3.34,-0.54 -6.66,-1.28 -10.03,-1.67 l -10.08,-1.28 -10.09,-1.26 c -3.36,-0.39 -6.71,-0.93 -10.1,-1.11 -13.52,-0.96 -27.01,-2.29 -40.57,-2.32 l -10.16,-0.25 c -3.38,-0.09 -6.77,-0.18 -10.15,-0.03 l -20.31,0.56 -5.08,0.15 c -1.69,0.08 -3.37,0.25 -5.06,0.38 l -10.13,0.81 -10.12,0.82 -5.07,0.42 -5.03,0.65 -20.15,2.66 c -3.37,0.37 -6.69,1.02 -10.02,1.63 l -10,1.84 c -13.38,2.13 -26.48,5.67 -39.68,8.68 -6.53,1.76 -13.02,3.71 -19.52,5.58 l -9.74,2.87 -9.6,3.32 c -102.62,34.61 -194.85,98.78 -262.37,182.71 -33.73,41.92 -61.83,88.34 -82.48,137.82 -1.31,3.09 -2.67,6.14 -3.93,9.25 l -3.51,9.41 -3.5,9.42 c -1.13,3.15 -2.44,6.23 -3.38,9.45 l -6.08,19.12 -1.51,4.79 c -0.48,1.6 -0.87,3.23 -1.3,4.84 l -2.53,9.71 c -3.65,12.86 -6.07,26.01 -8.83,39.06 -1.27,6.55 -2.13,13.18 -3.21,19.76 l -1.54,9.87 c -0.48,3.3 -0.72,6.63 -1.08,9.94 l -2,19.87 -1.01,19.95 -0.47,9.95 0.01,9.97 0.05,19.92 c 0.31,6.63 0.4,13.26 0.92,19.87 l 0.66,9.92 0.91,9.91 c 0.54,6.6 1.45,13.17 2.24,19.73 l 1.47,9.83 c 0.49,3.27 0.98,6.54 1.6,9.79 l 1.75,9.77 c 0.6,3.24 1.32,6.47 1.97,9.7 1.26,6.49 2.88,12.9 4.36,19.33 3.25,12.79 6.67,25.53 10.82,38.04 1.96,6.28 4.28,12.45 6.44,18.66 1.13,3.09 2.34,6.14 3.51,9.22 1.17,3.07 2.34,6.14 3.63,9.16 4.86,12.21 10.43,24.11 16.17,35.88 -9.49,-24.43 -17.81,-49.24 -23.93,-74.59 -3.24,-12.62 -5.85,-25.38 -8.23,-38.16 -1.05,-6.41 -2.24,-12.8 -3.07,-19.24 -0.44,-3.22 -0.94,-6.42 -1.33,-9.64 l -1.1,-9.67 c -2.78,-25.79 -3.83,-51.71 -3.27,-77.54 l 0.97,-19.35 0.5,-9.66 0.97,-9.63 1.99,-19.22 2.96,-19.09 c 0.51,-3.18 0.92,-6.37 1.51,-9.52 l 1.91,-9.47 c 1.33,-6.29 2.43,-12.61 3.93,-18.86 3.23,-12.44 6.1,-24.96 10.16,-37.13 l 2.83,-9.19 c 0.48,-1.53 0.92,-3.07 1.43,-4.58 l 1.63,-4.53 6.52,-18.07 c 1.01,-3.04 2.39,-5.94 3.58,-8.92 l 3.7,-8.85 3.69,-8.85 c 1.31,-2.92 2.74,-5.79 4.1,-8.68 2.77,-5.77 5.44,-11.58 8.3,-17.29 l 9.04,-16.89 c 2.88,-5.71 6.32,-11.1 9.56,-16.6 l 4.91,-8.21 c 0.83,-1.36 1.6,-2.75 2.48,-4.09 l 2.65,-3.98 10.59,-15.93 c 3.63,-5.24 7.53,-10.29 11.27,-15.44 l 5.68,-7.69 6.02,-7.42 6,-7.43 c 2.04,-2.45 3.92,-5.02 6.1,-7.34 l 12.7,-14.26 3.17,-3.56 3.35,-3.4 6.68,-6.82 c 8.7,-9.28 18.33,-17.62 27.56,-26.34 19.21,-16.63 39.17,-32.37 60.29,-46.46 2.56,-1.88 5.32,-3.45 7.99,-5.16 l 8.06,-5.05 8.05,-5.04 c 2.74,-1.6 5.53,-3.11 8.29,-4.68 5.54,-3.05 11.01,-6.26 16.59,-9.25 l 16.98,-8.53 c 22.86,-10.86 46.23,-20.77 70.41,-28.25 l 9.01,-2.98 9.14,-2.54 c 6.1,-1.65 12.16,-3.44 18.28,-5.03 12.36,-2.67 24.6,-5.9 37.11,-7.76 l 9.34,-1.63 c 3.11,-0.55 6.22,-1.13 9.37,-1.44 l 18.81,-2.3 4.71,-0.58 4.73,-0.34 9.46,-0.67 9.45,-0.68 c 1.58,-0.11 3.15,-0.25 4.73,-0.31 l 4.74,-0.1 18.95,-0.44 c 3.16,-0.13 6.32,-0.04 9.48,0.07 l 9.48,0.25 c 12.65,0.05 25.23,1.37 37.82,2.28 3.16,0.17 6.28,0.7 9.42,1.07 l 9.39,1.21 9.4,1.21 c 3.13,0.37 6.22,1.07 9.33,1.59 l 18.64,3.35 18.46,4.26 c 98.27,23.38 189.58,74.86 261.09,146.55 l 13.2,13.64 c 2.26,2.23 4.28,4.67 6.38,7.03 l 6.27,7.13 6.28,7.13 c 2.03,2.43 3.97,4.94 5.95,7.4 3.93,4.97 7.97,9.86 11.8,14.89 7.38,10.3 15.04,20.4 21.79,31.15 7.19,10.45 13.36,21.53 19.86,32.43 3.08,5.55 5.93,11.21 8.91,16.81 1.47,2.81 2.98,5.6 4.42,8.43 l 4,8.64 4.02,8.62 c 1.3,2.9 2.79,5.71 3.91,8.69 l 7.21,17.63 1.81,4.4 c 0.56,1.49 1.06,3 1.6,4.49 l 3.18,8.99 c 2.07,5.99 4.4,11.93 6.07,18.06 l 5.47,18.28 c 1.7,6.13 3.08,12.34 4.64,18.51 l 2.28,9.27 c 0.65,3.11 1.22,6.25 1.83,9.37 l 3.63,18.76 2.73,18.93 c 0.42,3.15 0.99,6.3 1.29,9.47 l 0.88,9.53 c 2.91,25.39 2.81,50.99 2.46,76.58 -2.06,51.13 -11.08,102.06 -26.62,151.13 -15.5,49.12 -38.65,95.8 -66.89,139.3 -1.65,2.79 -3.65,5.35 -5.49,8.02 l -5.61,7.95 -5.62,7.97 c -0.95,1.32 -1.85,2.68 -2.84,3.96 l -3.03,3.82 -12.1,15.31 -3.03,3.82 c -1.02,1.27 -2.14,2.46 -3.2,3.69 l -6.46,7.33 c -16.79,19.99 -35.88,37.87 -55.16,55.63"
         style="fill:#ffffff;fill-opacity:1;fill-rule:nonzero;stroke:none"
         id="path14" />
      <path
         d="m 2816.06,1940.27 c -0.76,-1.19 -1.61,-2.32 -2.57,-3.37 -9.62,-10.59 -20.06,-20.42 -31.25,-29.33 -12.44,-9.89 -25.4,-19 -39.29,-26.75 -13.54,-7.56 -27.82,-13.92 -42.38,-19.24 -27.66,-10.09 -57.2,-15.48 -86.61,-16.48 -29.28,-1 -59.1,2.76 -87.23,10.91 -28.75,8.33 -56.48,21.29 -81.06,38.39 -26.76,18.61 -50.14,41.08 -68.13,68.37 -16.26,24.65 -27.74,53.08 -33.07,82.13 -5.61,30.62 -5.36,61.61 1.07,92.08 6.15,29.11 18.42,57.44 35.54,81.76 18.58,26.41 42.08,49.2 70.99,64.06 27.55,14.17 58.42,21.72 89.45,21.24 31.29,-0.47 62.36,-8.81 89.63,-24.17 27.75,-15.62 52.28,-38.73 66.91,-67.22 7.09,-13.81 12.45,-28.67 15,-44 1.39,-8.36 2.39,-16.81 2.53,-25.29 0.14,-8.63 -0.73,-17.14 -1.93,-25.68 -4.35,-31.19 -19.45,-61.14 -41.41,-83.66 -23.06,-23.64 -55.11,-37.27 -88.04,-38.17 -33.2,-0.9 -66.04,11.96 -90.22,34.62 -12.73,11.93 -22.01,27.12 -27.64,43.57 -5.61,16.38 -6.24,33.63 -3.79,50.61 2.19,15.28 8.4,30.58 17.47,43.07 5.26,7.24 10.92,14.08 17.99,19.63 3.93,3.06 7.85,6.08 12.19,8.53 4.39,2.49 9.08,4.46 13.78,6.28 15.86,6.14 33.8,6.66 50.3,3.04 8.24,-1.82 16.36,-5.11 23.7,-9.25 7.5,-4.23 14.76,-9.76 20.52,-16.17 12.53,-13.98 19.85,-31.95 19.86,-50.8 0,-19.07 -7.48,-36.96 -20.1,-51.07 -3.54,-3.95 -9.02,-5.63 -14.16,-5.86 -5.34,-0.24 -10.35,2.36 -14.16,5.86 -3.69,3.39 -5.87,9.25 -5.87,14.16 0,5.43 2.32,10.2 5.87,14.16 0.42,0.48 0.81,0.98 1.22,1.46 1.68,2.43 3.17,4.98 4.46,7.63 1.06,2.92 1.88,5.9 2.45,8.95 0.26,3.12 0.26,6.27 0,9.4 -0.58,3.07 -1.41,6.08 -2.48,9.02 -1.28,2.62 -2.75,5.13 -4.41,7.54 -2.19,2.56 -4.58,4.92 -7.16,7.09 -3.44,2.45 -7.07,4.59 -10.89,6.38 -4.02,1.51 -8.16,2.64 -12.39,3.4 -4.37,0.4 -8.75,0.4 -13.12,0 -4.27,-0.76 -8.45,-1.9 -12.51,-3.43 -3.72,-1.75 -7.26,-3.81 -10.61,-6.19 -3.53,-2.96 -6.75,-6.25 -9.69,-9.79 -3.38,-4.65 -6.28,-9.6 -8.69,-14.82 -2.08,-5.43 -3.61,-11.03 -4.57,-16.76 -0.6,-5.89 -0.59,-11.81 0,-17.7 0.98,-5.76 2.51,-11.38 4.6,-16.84 2.36,-5.08 5.18,-9.93 8.46,-14.48 3.97,-4.79 8.41,-9.13 13.24,-13.06 6.07,-4.46 12.57,-8.27 19.43,-11.38 7.42,-2.9 15.11,-4.98 22.98,-6.21 7.56,-0.76 15.16,-0.73 22.72,0.08 7.43,1.21 14.71,3.16 21.73,5.85 6.96,3.11 13.55,6.93 19.71,11.41 6.63,5.39 12.56,11.52 17.89,18.19 5.65,7.74 10.47,16.02 14.39,24.75 3.72,9.4 6.39,19.15 7.96,29.13 1.13,10.19 1.13,20.45 -0.01,30.64 -1.58,10.02 -4.25,19.82 -7.99,29.24 -3.98,8.88 -8.89,17.3 -14.67,25.12 -6.7,8.31 -14.36,15.73 -22.69,22.41 -10.24,7.66 -21.29,14.13 -32.97,19.3 -12.1,4.85 -24.71,8.29 -37.59,10.25 -13.14,1.54 -26.41,1.55 -39.55,0.01 -13.02,-1.97 -25.75,-5.45 -37.96,-10.36 -11.52,-5.09 -22.42,-11.47 -32.53,-19 -10.76,-8.61 -20.33,-18.53 -28.92,-29.31 -9.8,-13.03 -18.06,-27.13 -24.62,-42.05 -6.32,-15.55 -10.76,-31.8 -13.24,-48.4 -2.03,-16.88 -2.04,-33.95 -0.01,-50.84 2.48,-16.69 6.93,-33.03 13.29,-48.67 6.49,-14.78 14.65,-28.77 24.34,-41.7 11.03,-13.88 23.8,-26.22 37.71,-37.21 16.58,-12.53 34.58,-23.07 53.63,-31.37 12.54,-5.14 25.46,-9.32 38.62,-12.46 30.48,-3.37 61.3,-3.86 91.75,-0.11 22.99,3.26 45.59,9.04 67.1,17.82 9.28,4.05 18.31,8.64 27.01,13.82 5.9,3.74 11.64,7.72 17.23,11.92 11.67,9.19 22.57,19.32 32.57,30.32 0.85,0.93 1.81,1.74 2.85,2.44 1.17,1.37 2.35,2.71 3.48,4.11 0.8,0.98 1.58,1.97 2.37,2.96 0.12,0.16 0.24,0.32 0.37,0.49 1.74,2.32 3.45,4.68 5.11,7.08 3.35,4.81 6.52,9.75 9.51,14.79 5.71,9.6 10.73,19.58 15.19,29.82 10.38,25.22 17.11,51.8 20.9,78.79 3.77,30.24 4.29,61.04 0.59,91.3 -3.84,27.17 -11.07,53.76 -21.55,79.12 -6.91,15.91 -15.04,31.28 -24.38,45.91 -4.39,6.86 -9.03,13.56 -13.91,20.08 -0.49,0.65 -0.98,1.28 -1.46,1.93 -1.21,1.53 -2.42,3.04 -3.65,4.56 -2.52,3.08 -5.09,6.13 -7.73,9.14 -10.71,12.2 -22.33,23.61 -34.73,34.1 -3.1,2.62 -6.25,5.16 -9.43,7.67 -0.67,0.51 -1.33,1.01 -2,1.52 -1.49,1.1 -2.99,2.2 -4.49,3.29 -6.61,4.76 -13.4,9.29 -20.35,13.55 -13.27,8.14 -27.14,15.28 -41.44,21.45 -24.98,10.25 -51.15,17.36 -77.87,21.2 -27.26,3.39 -54.86,3.39 -82.11,0 -26.96,-3.87 -53.34,-11.06 -78.51,-21.46 -15.92,-6.91 -31.29,-15.03 -45.91,-24.38 -6.86,-4.39 -13.56,-9.02 -20.08,-13.92 -0.64,-0.47 -1.28,-0.96 -1.93,-1.45 -1.53,-1.2 -3.05,-2.42 -4.55,-3.64 -3.1,-2.52 -6.14,-5.1 -9.15,-7.74 -12.2,-10.71 -23.61,-22.33 -34.1,-34.73 -2.62,-3.1 -5.16,-6.25 -7.68,-9.44 -0.5,-0.66 -1,-1.33 -1.51,-1.99 -1.1,-1.49 -2.2,-2.99 -3.29,-4.49 -4.77,-6.61 -9.29,-13.4 -13.55,-20.34 -8.14,-13.29 -15.28,-27.15 -21.45,-41.45 -10.25,-24.98 -17.37,-51.15 -21.2,-77.88 -1.69,-13.62 -2.57,-27.32 -2.59,-41.06 -0.02,-10.98 -8.97,-19.13 -19.61,-19.6 -10.58,-0.47 -19.62,9.35 -19.61,19.6 0.02,13.36 0.81,26.7 2.43,39.97 6.68,54.7 25.47,107.5 56.55,153.18 30.33,44.58 70.65,82.18 117.75,108.55 48.79,27.33 103.96,42.41 159.85,43.95 56.05,1.55 111.87,-10.93 162.19,-35.54 48.9,-23.91 90.93,-59.82 123.78,-103.04 32.11,-42.26 54.19,-92.8 63.36,-145.07 9.09,-51.81 7.1,-106 -5.24,-157.15 -10.7,-44.36 -30.67,-86.34 -60.33,-121.13 z m -274.57,623.78 c -228.89,0 -414.44,-185.55 -414.44,-414.44 0,-228.89 185.55,-414.43 414.44,-414.43 228.89,0 414.44,185.54 414.44,414.43 0,228.89 -185.55,414.44 -414.44,414.44"
         style="fill:#ffffff;fill-opacity:1;fill-rule:nonzero;stroke:none"
         id="path16" />
      <path
         d="m 4424.1,1832.19 c -6.56,0 -13.13,0 -19.7,0 -196.82,0.02 -393.66,1.44 -590.48,4.5 -196.83,3.21 -393.65,7.69 -590.49,16.32 196.84,8.62 393.66,13.1 590.49,16.32 196.82,3.05 393.66,4.47 590.48,4.5 196.83,0.03 393.65,-1.4 590.48,-4.44 196.83,-3.22 393.66,-7.7 590.48,-16.38 -196.82,-8.68 -393.65,-13.17 -590.48,-16.38 -190.26,-2.95 -380.52,-4.38 -570.78,-4.44"
         style="fill:#ffffff;fill-opacity:1;fill-rule:nonzero;stroke:none"
         id="path18" />
      <path
         d="m 3270.12,2422.7 c 0,70.33 -0.29,108.29 -0.86,113.89 -0.34,9.45 -1.95,16.45 -4.83,21 -3.06,5.07 -8.9,8.31 -17.55,9.71 -5.25,1.04 -12.03,1.57 -20.34,1.57 -5.94,-0.35 -8.9,1.27 -8.9,4.84 0,3.06 3.82,4.58 11.45,4.58 31.57,-0.35 56.6,-0.88 75.1,-1.57 46.84,0 90.28,0.18 130.33,0.53 10.35,1.04 17.82,2.1 22.4,3.14 2.72,1.06 5.52,1.75 8.4,2.1 2.04,-0.35 3.06,-1.92 3.06,-4.72 -0.33,-1.05 -1.65,-12.64 -3.96,-34.77 -0.66,-11.16 -1.57,-22.92 -2.72,-35.29 0,-3.67 -1.76,-5.67 -5.25,-6.02 -3.68,0 -5.25,2.54 -4.73,7.61 0,5.08 -1.1,11.55 -3.31,19.42 -1.03,4.9 -4,9.01 -8.93,12.34 -4.76,3.14 -13.43,5.42 -26.02,6.82 -5.95,0.7 -17.93,1.22 -35.95,1.58 -18.2,0.34 -30.95,0.51 -38.25,0.51 -2.39,0 -3.58,-1.75 -3.58,-5.25 V 2408.5 c -0.35,-4.04 0.84,-6.06 3.58,-6.06 7.98,0 22.1,0.18 42.34,0.53 19.9,0 33.68,0.18 41.33,0.53 12.24,0.88 20.58,3.59 25,8.15 3.57,4.73 6.37,7.1 8.42,7.1 2.38,0 3.57,-1.49 3.57,-4.46 -0.36,-1.06 -1.78,-14.08 -4.27,-39.08 -1.43,-15.41 -2.14,-27.4 -2.14,-35.97 0,-2.28 -0.17,-4.46 -0.51,-6.56 -0.34,-2.45 -1.78,-3.67 -4.32,-3.67 -3.39,0 -4.92,1.57 -4.57,4.71 0,5.78 -0.68,12.26 -2.04,19.44 -1.18,5.42 -3.81,10.05 -7.88,13.9 -4.59,3.67 -11.72,6.05 -21.39,7.09 -6.27,0.7 -18.07,1.22 -35.38,1.57 -17.82,0 -30.71,0 -38.68,0 -2.39,0 -3.41,-1.74 -3.06,-5.24 v -42.53 c -0.35,-29.05 -0.35,-56.87 0,-83.48 0,-17.85 4.01,-29.83 12.04,-35.95 8.02,-6.49 25.01,-9.54 50.95,-9.19 7.35,0 15.54,0.35 24.59,1.04 9.39,0.35 17.58,2.19 24.58,5.52 12.98,5.42 20.83,18.63 23.56,39.64 0.35,3.32 1.02,5.51 2.05,6.56 1.19,1.06 2.47,1.57 3.84,1.57 3.07,-0.35 4.44,-3.58 4.09,-9.7 0,-7.18 -0.68,-17.14 -2.05,-29.92 -1.35,-13.3 -2.89,-23.18 -4.58,-29.64 -1.53,-6.48 -4.17,-10.41 -7.91,-11.82 -3.91,-1.4 -10.72,-2.09 -20.41,-2.09 -72.11,1.04 -120.32,2.07 -144.64,3.1 -17.51,-0.34 -39.45,-0.85 -65.81,-1.53 -6.97,0 -10.46,1.7 -10.46,5.09 -0.35,2.89 2.36,4.34 8.11,4.34 8.11,0 14.36,0.7 18.75,2.1 5.24,1.4 8.88,4.81 10.9,10.25 2.2,4.9 3.63,11.39 4.31,19.44 1.69,24.71 2.53,62.91 2.53,114.6 v 94.82"
         style="fill:#ffffff;fill-opacity:1;fill-rule:nonzero;stroke:none"
         id="path20" />
      <path
         d="m 3639.05,2244.83 c 0.67,-20.34 2.54,-35.05 5.59,-44.16 3.04,-8.59 7.19,-13.75 12.45,-15.51 9.32,-2.8 18.38,-4.03 27.19,-3.67 5.93,0 8.9,-1.45 8.9,-4.34 -0.51,-3.39 -4.58,-5.09 -12.2,-5.09 -33.21,0.68 -54.73,1.19 -64.55,1.53 -7.63,-0.34 -26.35,-0.85 -56.16,-1.53 -7.63,-0.35 -11.44,1.35 -11.44,5.09 0,2.89 2.8,4.34 8.4,4.34 7.65,0 15.46,0.87 23.45,2.62 6.62,1.75 11.12,7.71 13.5,17.87 2.2,9.98 3.14,26.28 2.8,48.88 l 4.59,318.52 c -0.36,11.72 1.93,17.76 6.85,18.1 3.05,0 6.02,-1.49 8.9,-4.46 3.04,-3.15 6.43,-7.27 10.16,-12.34 19.13,-21.88 72.9,-79.38 161.31,-172.49 19.81,-20.48 42.42,-44.29 67.83,-71.42 24.89,-27.66 40.47,-44.73 46.74,-51.2 h 2.52 l -5.09,241.79 c 0,16.12 -1.27,27.77 -3.81,34.96 -3.05,6.82 -7.71,11.3 -13.97,13.39 -9.32,2.46 -18.56,3.51 -27.71,3.16 -5.77,0 -8.48,1.61 -8.13,4.84 0,2.03 1.36,3.39 4.07,4.08 2.71,0.34 5.84,0.5 9.4,0.5 29.13,-0.35 50.13,-0.88 63,-1.57 3.06,0 9.07,0.35 18.05,1.05 9.14,0.35 20.07,0.52 32.77,0.52 7.62,0.35 11.6,-1.18 11.94,-4.58 0,-3.23 -3.06,-4.84 -9.19,-4.84 -4.6,0 -9.87,-0.53 -15.82,-1.57 -7.32,-1.76 -12.17,-6.05 -14.55,-12.88 -2.9,-6.84 -4.51,-17.79 -4.85,-32.86 L 3936.37,2182 c 0,-11 -2.29,-16.5 -6.85,-16.5 -2.71,0 -5.42,1.48 -8.13,4.46 -3.22,2.1 -6.35,4.55 -9.4,7.36 -40.64,41.3 -91.77,93.98 -153.4,158.04 -64.85,69.32 -106.17,114.48 -123.94,135.48 h -1.58 l 5.98,-226.01"
         style="fill:#ffffff;fill-opacity:1;fill-rule:nonzero;stroke:none"
         id="path22" />
      <path
         d="m 4118.55,2422.42 c 0,70.46 -0.3,108.5 -0.87,114.12 -0.34,9.46 -1.95,16.47 -4.83,21.03 -3.05,5.08 -8.9,8.32 -17.55,9.73 -5.25,1.04 -12.03,1.57 -20.34,1.57 -5.93,-0.35 -8.9,1.27 -8.9,4.84 0,3.06 3.82,4.58 11.46,4.58 31.58,-0.35 56.62,-0.88 75.13,-1.57 46.86,0 90.33,0.18 130.4,0.53 10.36,1.04 17.83,2.1 22.42,3.14 2.71,1.06 5.52,1.75 8.4,2.1 2.04,-0.35 3.06,-1.92 3.06,-4.7 -0.36,-1.06 -1.76,-12.67 -4.22,-34.83 -0.71,-11.17 -1.67,-22.96 -2.9,-35.35 0,-3.67 -1.75,-5.69 -5.23,-6.04 -3.66,0 -5.22,2.54 -4.7,7.62 0,5.09 -1.1,11.57 -3.31,19.47 -1.01,4.92 -3.98,9.04 -8.9,12.38 -4.75,3.15 -13.41,5.43 -25.96,6.84 -5.94,0.7 -17.9,1.21 -35.88,1.56 -18.15,0.34 -30.87,0.51 -38.16,0.51 -2.38,0 -3.57,-1.74 -3.57,-5.25 v -136.2 c -0.35,-4.04 0.84,-6.06 3.57,-6.06 7.99,0 22.09,0.18 42.32,0.53 19.88,0 33.64,0.18 41.3,0.53 12.23,0.88 20.56,3.59 24.98,8.15 3.56,4.73 6.37,7.1 8.41,7.1 2.38,0 3.57,-1.49 3.57,-4.46 -0.36,-1.06 -1.76,-14.08 -4.21,-39.08 -1.41,-15.41 -2.11,-27.4 -2.11,-35.97 0,-2.28 -0.17,-4.46 -0.51,-6.56 -0.34,-2.45 -1.79,-3.67 -4.34,-3.67 -3.42,0 -4.95,1.57 -4.59,4.71 0,5.78 -0.69,12.26 -2.04,19.44 -1.19,5.42 -3.82,10.05 -7.89,13.9 -4.58,3.67 -11.7,6.05 -21.37,7.09 -6.28,0.7 -18.06,1.22 -35.36,1.57 -17.82,0 -30.7,0 -38.67,0 -2.39,0 -3.41,-1.74 -3.06,-5.24 v -42.53 c -0.35,-29.05 -0.35,-56.87 0,-83.48 0,-17.85 4.01,-29.83 12.02,-35.95 8,-6.49 24.96,-9.54 50.86,-9.19 7.32,0 15.5,0.35 24.54,1.04 9.37,0.35 17.54,2.19 24.53,5.52 12.95,5.42 20.79,18.63 23.51,39.64 0.34,3.32 1.02,5.51 2.05,6.56 1.19,1.06 2.47,1.57 3.84,1.57 3.07,-0.35 4.43,-3.58 4.09,-9.7 0,-7.18 -0.69,-17.14 -2.04,-29.92 -1.37,-13.3 -2.89,-23.18 -4.59,-29.64 -1.53,-6.48 -4.16,-10.41 -7.9,-11.82 -3.91,-1.4 -10.7,-2.09 -20.38,-2.09 -72.04,1.04 -120.2,2.07 -144.49,3.1 -17.5,-0.34 -39.41,-0.85 -65.75,-1.53 -6.96,0 -10.44,1.7 -10.44,5.09 -0.36,2.89 2.35,4.34 8.11,4.34 8.1,0 14.35,0.7 18.75,2.1 5.24,1.4 8.86,4.81 10.89,10.25 2.2,4.9 3.63,11.39 4.31,19.45 1.69,24.7 2.54,62.9 2.54,114.59 v 94.54"
         style="fill:#ffffff;fill-opacity:1;fill-rule:nonzero;stroke:none"
         id="path24" />
      <path
         d="m 4519.48,2379.88 c -0.35,-5.25 1.26,-8.4 4.83,-9.45 12.21,-3.68 25.42,-5.52 39.66,-5.52 10,0 17.79,0.71 23.39,2.1 4.74,1.4 9.23,3.76 13.47,7.09 8.3,5.78 15.42,15.23 21.35,28.35 5.93,12.95 9.07,30.36 9.41,52.24 0,19.42 -2.46,35.35 -7.37,47.77 -5.26,12.95 -12.21,23.02 -20.85,30.19 -7.96,7.53 -16.44,12.86 -25.42,16.01 -9.32,2.97 -18.05,4.47 -26.19,4.47 -13.04,0 -22.19,-0.71 -27.45,-2.1 -3.57,-0.88 -5.18,-3.41 -4.83,-7.61 z m -61.35,42.59 c 0,70.44 -0.3,108.47 -0.87,114.07 -0.34,9.47 -1.95,16.47 -4.83,21.03 -3.06,5.08 -8.9,8.32 -17.55,9.73 -5.25,1.04 -12.04,1.57 -20.34,1.57 -5.93,-0.35 -8.9,1.27 -8.9,4.84 0,3.06 3.82,4.58 11.44,4.58 32.37,-0.35 56.17,-0.88 71.43,-1.57 25.25,0.35 49.66,0.87 73.21,1.57 17.12,0 33.81,-1.22 50.08,-3.68 16.26,-2.97 31.52,-9.44 45.76,-19.42 7.97,-5.08 15.78,-13.83 23.42,-26.27 7.64,-12.95 11.62,-28.8 11.97,-47.53 0.34,-19.61 -4.32,-38.96 -14,-58.04 -10.35,-19.61 -28.6,-40.36 -54.73,-62.23 45.45,-60.59 83.09,-107.77 112.94,-141.56 15.09,-15.06 27.64,-24.69 37.65,-28.88 10,-4.38 16.95,-6.93 20.86,-7.62 5.59,-1.06 10.42,-1.57 14.49,-1.57 4.25,0 6.37,-1.45 6.37,-4.34 0,-3.39 -3.31,-5.09 -9.93,-5.09 h -49.59 c -14.24,0 -25.34,0.85 -33.31,2.55 -8.31,1.36 -15.77,3.83 -22.38,7.39 -20.52,11.75 -44.25,38.13 -71.21,79.15 -10.85,15.78 -21.11,31.03 -30.77,45.76 -9.84,14.37 -16.79,23.83 -20.86,28.39 -2.37,2.63 -5.51,3.95 -9.41,3.95 l -45.26,1.04 c -2.89,0 -4.33,-1.48 -4.33,-4.46 v -7.36 c -0.35,-52.07 0.59,-90.46 2.8,-115.18 0.68,-8.05 2.37,-14.55 5.09,-19.45 2.53,-5.44 7.62,-8.86 15.25,-10.25 9.32,-1.38 17.79,-2.05 25.41,-2.05 4.24,0 6.36,-1.46 6.36,-4.36 0,-3.42 -3.47,-5.12 -10.42,-5.12 -36.94,0.68 -62.43,1.19 -76.49,1.53 -15.76,-0.34 -36.94,-0.85 -63.54,-1.53 -6.94,0 -10.42,1.7 -10.42,5.09 -0.35,2.89 2.36,4.34 8.11,4.34 8.11,0 14.36,0.7 18.76,2.1 5.23,1.4 8.87,4.81 10.89,10.25 2.2,4.9 3.63,11.4 4.31,19.46 1.69,24.72 2.54,62.92 2.54,114.64 v 94.53"
         style="fill:#ffffff;fill-opacity:1;fill-rule:nonzero;stroke:none"
         id="path26" />
      <path
         d="m 5177.38,2207.76 c 0,-6.48 -0.17,-10.94 -0.5,-13.38 -1.02,-2.1 -3.14,-4.11 -6.37,-6.04 -17.29,-8.83 -37.21,-14.97 -59.76,-18.44 -22.9,-3.63 -44.77,-5.45 -65.62,-5.45 -65.62,0 -121.58,16.7 -167.86,50.12 -47.48,33.24 -71.73,86.78 -72.74,160.61 0.33,43.03 9.66,79.42 27.97,109.17 17.47,29.73 38.32,51.96 62.57,66.65 24.93,15.4 49.26,25.19 73,29.39 22.89,4.03 45.27,5.86 67.15,5.52 43.41,-1.05 74.09,-3.95 92.07,-8.66 13.22,-2.8 26.96,-4.82 41.2,-6.04 5.27,-0.35 7.73,-2.45 7.38,-6.3 -1,1.4 -2.25,-27.98 -3.73,-88.15 0,-7.87 -1.88,-11.64 -5.62,-11.29 -3.23,0 -5.02,2.36 -5.36,7.09 -0.34,6.84 -1.7,14.02 -4.06,21.57 -2.38,7.9 -6.87,15.62 -13.48,23.17 -7.97,9.3 -21.87,18.6 -41.7,27.91 -19.84,8.95 -44.67,13.6 -74.51,13.95 -14.23,0.35 -30.34,-1.23 -48.31,-4.73 -18.14,-4.03 -36.36,-13.58 -54.66,-28.65 -14.58,-12.09 -26.28,-28.74 -35.09,-49.94 -8.64,-21.2 -12.97,-48.45 -12.97,-81.74 0.34,-58.87 17.04,-106.97 50.09,-144.29 31.87,-38.03 75.6,-57.4 131.2,-58.09 7.29,0 14.92,0.34 22.88,1.05 7.97,0.7 15.09,2.28 21.36,4.73 6.96,4.03 10.26,10.69 9.92,19.98 v 50.48 c 0,26.64 -0.18,47.84 -0.51,63.62 0.35,9.29 -1.09,16.3 -4.33,21.03 -3.38,5.09 -9.4,8.33 -18.05,9.73 -5.26,1.05 -12.03,1.58 -20.34,1.58 -5.26,0 -7.88,1.35 -7.88,4.06 0,3.56 3.64,5.33 10.93,5.33 30.84,-0.35 56.01,-0.88 75.51,-1.57 19.82,0.35 40.16,0.88 61.01,1.57 6.94,0 10.42,-1.77 10.42,-5.33 -0.34,-2.71 -2.63,-4.06 -6.86,-4.06 -3.4,0 -8.06,-0.53 -13.99,-1.58 -13.24,-2.1 -19.85,-12.36 -19.85,-30.77 -0.34,-16.12 -0.51,-37.67 -0.51,-64.66 v -59.15"
         style="fill:#ffffff;fill-opacity:1;fill-rule:nonzero;stroke:none"
         id="path28" />
      <path
         d="m 5395.77,2311.05 c 0,14.01 -1.02,25.14 -3.05,33.38 -2.04,8.23 -5.01,15.94 -8.91,23.12 -0.68,2.98 -4.83,11.04 -12.47,24.19 -7.63,13.31 -16.89,28.82 -27.74,46.51 -22.57,38.02 -39.7,66.15 -51.41,84.37 -13.57,20.15 -25.62,33.29 -36.14,39.42 -7.63,4.2 -14.93,6.48 -21.88,6.83 -4.75,-0.35 -7.3,1.27 -7.64,4.84 0.34,3.06 3.65,4.58 9.92,4.58 17.97,-0.35 39.83,-0.88 65.6,-1.57 5.76,0 13.73,0.35 23.89,1.05 9.67,0.35 20.26,0.52 31.79,0.52 5.08,0 7.63,-1.53 7.63,-4.59 0,-2.57 -3.82,-4.52 -11.45,-5.88 -4.74,-1.4 -7.12,-4.64 -7.12,-9.72 0,-4.21 2.04,-10.26 6.11,-18.14 2.54,-4.38 8.14,-14.11 16.78,-29.17 8.31,-15.07 17.46,-32.16 27.46,-51.25 22.54,-41.18 37.29,-68.07 44.24,-80.68 1.86,4.02 6.61,13.05 14.24,27.07 7.29,13.13 15.42,28.38 24.41,45.73 20.17,37.67 33.39,62.72 39.66,75.16 4.75,11.91 7.12,21.29 7.12,28.12 0,2.81 -0.68,5.7 -2.03,8.68 -1.36,2.09 -4.32,3.68 -8.9,4.72 -5.93,0.69 -9.07,2.47 -9.4,5.37 0,3.06 2.96,4.58 8.89,4.58 17.46,-0.35 33.82,-0.88 49.08,-1.57 19.32,0.35 37.88,0.87 55.68,1.57 5.93,0 9.07,-1.35 9.4,-4.07 -0.33,-3.56 -3.64,-5.35 -9.9,-5.35 -6.27,0 -13.9,-2.1 -22.88,-6.3 -9.14,-4.38 -18.55,-13.23 -28.2,-26.55 -10.67,-15.07 -28.03,-43.19 -52.08,-84.37 -11.02,-19.1 -20.84,-36.71 -29.48,-52.82 -9.15,-16.12 -15.08,-27.42 -17.78,-33.91 -1.7,-4.72 -3.06,-9.2 -4.07,-13.39 -1.19,-4.74 -2.12,-9.2 -2.79,-13.41 -0.69,-9.11 -1.02,-18.14 -1.02,-27.07 v -44.15 c -0.35,-10.7 0.16,-28.57 1.52,-53.62 0.34,-8.06 2.28,-14.55 5.83,-19.45 2.71,-5.43 7.87,-8.85 15.48,-10.24 8.8,-1.38 17.5,-2.05 26.13,-2.05 5.58,0 8.37,-1.46 8.37,-4.36 -0.5,-3.42 -4.23,-5.12 -11.18,-5.12 -35.59,0.68 -62.12,1.19 -79.57,1.53 -18.3,-0.34 -40,-0.85 -65.08,-1.53 -7.63,0 -11.44,1.7 -11.44,5.09 0,2.89 2.8,4.34 8.42,4.34 7.31,0 13.43,0.7 18.36,2.1 5.1,1.4 9.1,4.81 11.99,10.25 2.38,4.9 3.74,11.38 4.08,19.44 1.02,25.05 1.53,42.92 1.53,53.62 v 44.15"
         style="fill:#ffffff;fill-opacity:1;fill-rule:nonzero;stroke:none"
         id="path30" />
      <path
         d="m 3242.23,2039.79 c 0,34.96 -0.14,53.83 -0.43,56.62 -0.17,4.69 -0.97,8.17 -2.4,10.43 -1.52,2.52 -4.42,4.13 -8.72,4.83 -2.61,0.52 -5.99,0.78 -10.11,0.78 -2.96,-0.17 -4.43,0.63 -4.43,2.41 0,1.52 1.9,2.27 5.7,2.27 15.69,-0.18 28.13,-0.43 37.33,-0.78 23.28,0 44.88,0.09 64.79,0.26 5.14,0.52 8.85,1.05 11.13,1.57 1.36,0.52 2.75,0.86 4.18,1.04 1.02,-0.18 1.52,-0.96 1.52,-2.34 -0.16,-0.53 -0.82,-6.29 -1.97,-17.29 -0.33,-5.55 -0.78,-11.39 -1.35,-17.55 0,-1.81 -0.87,-2.81 -2.61,-2.99 -1.83,0 -2.61,1.26 -2.35,3.78 0,2.52 -0.55,5.75 -1.65,9.66 -0.51,2.43 -1.99,4.47 -4.43,6.13 -2.37,1.57 -6.68,2.7 -12.94,3.39 -2.96,0.36 -8.92,0.61 -17.87,0.78 -9.05,0.18 -15.39,0.27 -19.02,0.27 -1.18,0 -1.77,-0.87 -1.77,-2.62 v -67.72 c -0.18,-2.01 0.41,-3 1.77,-3 3.97,0 10.99,0.09 21.05,0.26 9.89,0 16.74,0.08 20.55,0.26 6.08,0.44 10.22,1.78 12.43,4.05 1.77,2.35 3.17,3.53 4.18,3.53 1.18,0 1.77,-0.74 1.77,-2.22 -0.17,-0.52 -0.88,-6.99 -2.12,-19.43 -0.71,-7.65 -1.06,-13.61 -1.06,-17.88 0,-1.13 -0.09,-2.21 -0.25,-3.26 -0.17,-1.22 -0.89,-1.83 -2.15,-1.83 -1.69,0 -2.45,0.79 -2.27,2.35 0,2.87 -0.34,6.09 -1.02,9.67 -0.59,2.68 -1.89,5 -3.92,6.9 -2.28,1.83 -5.82,3.01 -10.62,3.53 -3.13,0.35 -8.99,0.61 -17.6,0.79 -8.85,0 -15.27,0 -19.23,0 -1.18,0 -1.69,-0.88 -1.51,-2.62 v -21.14 c -0.18,-14.44 -0.18,-28.27 0,-41.5 0,-8.87 1.99,-14.83 5.98,-17.87 3.99,-3.22 12.43,-4.74 25.33,-4.57 3.65,0 7.72,0.18 12.22,0.52 4.67,0.18 8.74,1.09 12.22,2.74 6.45,2.7 10.36,9.26 11.72,19.71 0.16,1.65 0.5,2.74 1.01,3.26 0.59,0.52 1.23,0.78 1.91,0.78 1.53,-0.17 2.2,-1.78 2.03,-4.82 0,-3.57 -0.33,-8.53 -1.01,-14.87 -0.68,-6.61 -1.44,-11.53 -2.28,-14.74 -0.76,-3.22 -2.08,-5.18 -3.94,-5.88 -1.94,-0.69 -5.32,-1.03 -10.14,-1.03 -35.84,0.5 -59.81,1.02 -71.9,1.54 -8.71,-0.17 -19.61,-0.43 -32.72,-0.76 -3.47,0 -5.2,0.84 -5.2,2.53 -0.18,1.43 1.17,2.15 4.03,2.15 4.03,0 7.14,0.35 9.33,1.05 2.6,0.69 4.4,2.39 5.41,5.09 1.09,2.44 1.81,5.66 2.14,9.67 0.84,12.28 1.26,31.27 1.26,56.97 v 47.14"
         style="fill:#ffffff;fill-opacity:1;fill-rule:nonzero;stroke:none"
         id="path32" />
      <path
         d="m 3425.63,1951.36 c 0.34,-10.11 1.27,-17.42 2.79,-21.95 1.51,-4.27 3.57,-6.84 6.19,-7.71 4.63,-1.4 9.13,-2.01 13.51,-1.83 2.95,0 4.43,-0.72 4.43,-2.15 -0.26,-1.69 -2.28,-2.53 -6.07,-2.53 -16.51,0.33 -27.21,0.59 -32.09,0.76 -3.79,-0.17 -13.1,-0.43 -27.92,-0.76 -3.79,-0.18 -5.69,0.67 -5.69,2.53 0,1.43 1.39,2.15 4.18,2.15 3.8,0 7.69,0.43 11.66,1.3 3.29,0.87 5.53,3.84 6.71,8.89 1.1,4.96 1.56,13.07 1.39,24.3 l 2.28,158.34 c -0.17,5.83 0.97,8.83 3.41,9 1.52,0 2.99,-0.74 4.42,-2.22 1.51,-1.57 3.2,-3.61 5.05,-6.13 9.52,-10.88 36.25,-39.46 80.2,-85.75 9.84,-10.19 21.08,-22.02 33.71,-35.51 12.38,-13.75 20.12,-22.22 23.24,-25.45 h 1.25 l -2.53,120.2 c 0,8.02 -0.63,13.81 -1.89,17.38 -1.51,3.4 -3.83,5.62 -6.95,6.66 -4.63,1.22 -9.22,1.74 -13.77,1.57 -2.87,0 -4.22,0.8 -4.04,2.41 0,1 0.67,1.68 2.02,2.02 1.35,0.17 2.91,0.25 4.67,0.25 14.49,-0.18 24.93,-0.43 31.33,-0.78 1.51,0 4.5,0.18 8.97,0.53 4.54,0.16 9.97,0.25 16.29,0.25 3.78,0.18 5.76,-0.59 5.93,-2.27 0,-1.61 -1.52,-2.41 -4.56,-2.41 -2.29,0 -4.91,-0.26 -7.87,-0.79 -3.64,-0.87 -6.05,-3 -7.24,-6.39 -1.44,-3.4 -2.24,-8.85 -2.41,-16.33 l -2.79,-168.81 c 0,-5.47 -1.13,-8.2 -3.4,-8.2 -1.35,0 -2.7,0.73 -4.05,2.21 -1.6,1.05 -3.15,2.27 -4.67,3.65 -20.2,20.54 -45.62,46.73 -76.26,78.58 -32.24,34.45 -52.78,56.9 -61.62,67.35 h -0.78 l 2.97,-112.36"
         style="fill:#ffffff;fill-opacity:1;fill-rule:nonzero;stroke:none"
         id="path34" />
      <path
         d="m 3796.74,2032.06 c 0.92,0 1.47,0.61 1.64,1.84 v 5.62 c 0,35.09 -0.17,54.04 -0.51,56.83 -0.17,4.71 -0.97,8.2 -2.4,10.47 -1.52,2.53 -4.43,4.15 -8.72,4.84 -2.62,0.53 -6,0.79 -10.12,0.79 -2.96,-0.17 -4.43,0.63 -4.43,2.41 0,1.52 1.81,2.27 5.44,2.27 15.86,-0.18 28.29,-0.43 37.32,-0.78 8.94,0.18 19.82,0.44 32.64,0.78 3.63,0 5.44,-0.75 5.44,-2.27 0,-1.78 -1.56,-2.58 -4.69,-2.41 -1.95,0 -4.45,-0.26 -7.49,-0.79 -3.3,-0.52 -5.67,-1.95 -7.11,-4.3 -1.52,-2.45 -2.37,-6.1 -2.54,-10.98 -0.17,-3.58 -0.25,-9.01 -0.25,-16.33 -0.17,-7.32 -0.25,-20.77 -0.25,-40.37 v -47.04 c -0.18,-25.69 0.24,-44.82 1.26,-57.35 0.34,-3.75 1.19,-6.84 2.54,-9.28 1.27,-2.71 3.8,-4.4 7.61,-5.1 4.31,-0.67 8.71,-1.02 13.18,-1.02 2.79,0 4.19,-0.72 4.19,-2.15 -0.17,-1.7 -1.9,-2.55 -5.19,-2.55 -18.3,0.33 -31.75,0.59 -40.35,0.76 -8.69,-0.17 -19.48,-0.43 -32.39,-0.76 -3.63,0 -5.44,0.84 -5.44,2.53 -0.18,1.43 1.17,2.15 4.05,2.15 3.96,0 7.08,0.35 9.35,1.05 2.62,0.69 4.43,2.39 5.44,5.09 1.01,2.44 1.69,5.66 2.02,9.67 0.93,12.28 1.4,31.27 1.4,56.97 v 23.52 c -0.17,1.04 -0.72,1.57 -1.64,1.57 h -98.89 c -1.01,0 -1.51,-0.53 -1.51,-1.57 v -23.52 c -0.18,-25.7 0.24,-44.82 1.25,-57.36 0.34,-3.75 1.23,-6.84 2.66,-9.28 1.18,-2.71 3.67,-4.4 7.46,-5.1 4.3,-0.67 8.68,-1.02 13.15,-1.02 2.78,0 4.18,-0.72 4.18,-2.15 -0.17,-1.7 -1.9,-2.55 -5.18,-2.55 -18.27,0.33 -31.69,0.59 -40.28,0.76 -8.67,-0.17 -19.52,-0.43 -32.57,-0.76 -3.45,0 -5.18,0.84 -5.18,2.53 -0.17,1.43 1.17,2.15 4.04,2.15 4.02,0 7.13,0.35 9.32,1.05 2.6,0.69 4.41,2.39 5.41,5.09 1.1,2.44 1.81,5.66 2.15,9.67 0.84,12.28 1.26,31.27 1.26,56.96 v 47.04 c 0,35.01 -0.15,53.91 -0.43,56.7 -0.17,4.71 -0.98,8.18 -2.41,10.46 -1.51,2.52 -4.42,4.13 -8.72,4.82 -2.61,0.53 -5.98,0.79 -10.11,0.79 -2.95,-0.17 -4.43,0.63 -4.43,2.41 0,1.52 1.81,2.27 5.43,2.27 15.83,-0.18 28.24,-0.43 37.25,-0.78 8.91,0.18 19.77,0.44 32.57,0.78 3.62,0 5.43,-0.75 5.43,-2.27 0,-1.78 -1.56,-2.58 -4.68,-2.41 -1.85,0 -4.34,-0.26 -7.46,-0.79 -3.29,-0.53 -5.65,-1.96 -7.08,-4.31 -1.52,-2.46 -2.37,-6.12 -2.53,-11 -0.17,-3.58 -0.26,-9.03 -0.26,-16.37 -0.16,-7.33 -0.24,-20.82 -0.24,-40.46 v -5.62 c 0,-1.23 0.5,-1.84 1.51,-1.84 h 98.89"
         style="fill:#ffffff;fill-opacity:1;fill-rule:nonzero;stroke:none"
         id="path36" />
      <path
         d="m 3986.95,1998.15 c 1.19,0 1.61,0.51 1.27,1.56 l -23.38,66.01 c -0.17,1.39 -0.59,2.17 -1.26,2.35 -0.68,-0.18 -1.18,-0.96 -1.52,-2.35 l -23.75,-65.75 c -0.44,-1.22 -0.1,-1.82 1.01,-1.82 z m -52.81,-13.28 c -1.26,0 -2.06,-0.71 -2.4,-2.09 l -13.9,-38.33 c -2.61,-7.14 -3.91,-12.59 -3.91,-16.34 0,-2.27 0.75,-4.14 2.27,-5.63 1.6,-1.74 4.3,-2.61 8.08,-2.61 h 3.93 c 2.69,0 3.95,-0.72 3.78,-2.15 0,-1.69 -1.43,-2.53 -4.29,-2.53 -9.35,0.33 -18.53,0.59 -27.55,0.76 -4.8,-0.17 -14.95,-0.43 -30.44,-0.76 -3.29,0 -4.93,0.84 -4.93,2.53 0,1.44 1.05,2.16 3.16,2.16 2.69,0 5.35,0.17 7.96,0.51 5.89,0.87 10.48,3.44 13.77,7.7 1.85,2.18 3.37,4.7 4.55,7.57 1.26,2.6 2.48,5.52 3.66,8.74 l 64.94,167.76 c 2.78,7.31 5.18,10.88 7.2,10.7 2.11,0 4.29,-2.83 6.57,-8.47 16.17,-41.93 37.52,-96.72 64.06,-164.39 5.05,-11.56 9.47,-19.22 13.26,-22.96 3.79,-3.56 6.99,-5.6 9.6,-6.13 3.96,-0.67 7.58,-1.02 10.87,-1.02 2.19,0 3.28,-0.72 3.28,-2.16 0,-1.02 -0.67,-1.61 -2.02,-1.78 -1.77,-0.52 -5.05,-0.78 -9.85,-0.78 -10.53,0 -26.83,0.17 -48.9,0.52 -4.96,0 -7.54,0.68 -7.7,2.03 0,1.44 1.17,2.24 3.53,2.41 2.44,0.7 3.25,2.74 2.4,6.14 l -20.72,56.76 c -0.5,1.22 -1.39,1.84 -2.65,1.84 h -57.61"
         style="fill:#ffffff;fill-opacity:1;fill-rule:nonzero;stroke:none"
         id="path38" />
      <path
         d="m 4125.28,1951.36 c 0.34,-10.11 1.27,-17.42 2.78,-21.95 1.51,-4.27 3.58,-6.84 6.19,-7.71 4.63,-1.4 9.14,-2.01 13.52,-1.83 2.95,0 4.42,-0.72 4.42,-2.15 -0.25,-1.69 -2.28,-2.53 -6.06,-2.53 -16.51,0.33 -27.21,0.59 -32.09,0.76 -3.79,-0.17 -13.1,-0.43 -27.92,-0.76 -3.79,-0.18 -5.69,0.67 -5.69,2.53 0,1.43 1.39,2.15 4.18,2.15 3.8,0 7.69,0.43 11.65,1.3 3.29,0.87 5.53,3.84 6.72,8.89 1.09,4.96 1.56,13.07 1.39,24.3 l 2.28,158.34 c -0.18,5.83 0.96,8.83 3.41,9 1.51,0 2.99,-0.74 4.42,-2.22 1.51,-1.57 3.2,-3.61 5.05,-6.13 9.51,-10.88 36.24,-39.46 80.19,-85.75 9.85,-10.19 21.09,-22.02 33.72,-35.51 12.37,-13.75 20.12,-22.22 23.24,-25.45 h 1.25 l -2.53,120.2 c 0,8.02 -0.63,13.81 -1.89,17.38 -1.52,3.4 -3.84,5.62 -6.95,6.66 -4.63,1.22 -9.22,1.74 -13.77,1.57 -2.87,0 -4.22,0.8 -4.04,2.41 0,1 0.67,1.68 2.01,2.02 1.35,0.17 2.91,0.25 4.68,0.25 14.48,-0.18 24.92,-0.43 31.32,-0.78 1.52,0 4.51,0.18 8.97,0.53 4.55,0.16 9.98,0.25 16.29,0.25 3.79,0.18 5.77,-0.59 5.94,-2.27 0,-1.61 -1.52,-2.41 -4.57,-2.41 -2.28,0 -4.91,-0.26 -7.87,-0.79 -3.63,-0.87 -6.05,-3 -7.23,-6.39 -1.44,-3.4 -2.24,-8.85 -2.41,-16.33 l -2.79,-168.81 c 0,-5.47 -1.14,-8.2 -3.41,-8.2 -1.35,0 -2.7,0.73 -4.04,2.21 -1.6,1.05 -3.16,2.27 -4.67,3.65 -20.21,20.54 -45.63,46.73 -76.26,78.58 -32.24,34.45 -52.78,56.9 -61.62,67.35 h -0.78 l 2.97,-112.36"
         style="fill:#ffffff;fill-opacity:1;fill-rule:nonzero;stroke:none"
         id="path40" />
      <path
         d="m 4454.96,1911.4 c -35.54,-0.34 -65.11,9.35 -88.7,29.09 -12.46,11.83 -20.93,24.66 -25.39,38.49 -4.64,13.91 -6.88,27.4 -6.7,40.45 -0.18,9.56 1.8,21.13 5.93,34.69 4.14,13.48 12.22,26.31 24.27,38.49 9.18,8.87 20.38,15.78 33.61,20.74 13.14,5.04 29.18,7.57 48.14,7.57 14.65,0 27.16,-0.92 37.52,-2.73 5.06,-0.53 9.73,-1.23 14.03,-2.09 4.12,-1.05 8.08,-1.87 11.87,-2.48 2.62,-0.35 3.92,-1.39 3.92,-3.12 -0.17,-1.22 -0.59,-6.13 -1.27,-14.73 -0.17,-11.37 -0.46,-20.97 -0.88,-28.79 0,-4.09 -1.02,-6.13 -3.07,-6.13 -1.96,0 -2.85,1.95 -2.68,5.87 -0.16,8.89 -3.53,17.07 -10.09,24.57 -9.76,10.54 -27.21,16.07 -52.37,16.59 -21.7,-0.17 -37.9,-5.7 -48.58,-16.59 -9.17,-8.89 -15.48,-19.3 -18.93,-31.23 -3.45,-12.11 -5.09,-24.78 -4.92,-38.02 0.76,-31.79 10.1,-55.62 28.04,-71.47 17.18,-15.86 34.98,-23.78 53.42,-23.78 22.14,-0.53 37.93,4.48 47.36,15.02 4.72,6 7.66,11.89 8.84,17.64 0.51,3.75 1.61,5.53 3.3,5.36 1.61,-0.18 2.42,-1.53 2.42,-4.04 0,-2.35 -0.6,-7.43 -1.78,-15.24 -1.27,-8.16 -2.59,-14.89 -3.94,-20.19 -0.34,-2 -1.05,-3.52 -2.15,-4.56 -0.84,-1.22 -2.35,-2.3 -4.55,-3.26 -5.39,-1.9 -12.39,-3.43 -20.99,-4.55 -8.52,-1.04 -17.07,-1.57 -25.68,-1.57"
         style="fill:#ffffff;fill-opacity:1;fill-rule:nonzero;stroke:none"
         id="path42" />
      <path
         d="m 4576.04,2039.65 c 0,35.03 -0.15,53.94 -0.43,56.72 -0.17,4.71 -0.97,8.19 -2.4,10.46 -1.52,2.53 -4.43,4.14 -8.73,4.83 -2.61,0.53 -5.98,0.79 -10.11,0.79 -2.95,-0.17 -4.43,0.63 -4.43,2.41 0,1.52 1.9,2.27 5.7,2.27 15.7,-0.18 28.15,-0.43 37.35,-0.78 23.3,0 44.91,0.09 64.83,0.26 5.15,0.52 8.86,1.05 11.14,1.57 1.35,0.52 2.74,0.86 4.18,1.04 1.01,-0.18 1.52,-0.96 1.52,-2.34 -0.18,-0.52 -0.88,-6.29 -2.1,-17.31 -0.35,-5.55 -0.83,-11.41 -1.44,-17.58 0,-1.82 -0.87,-2.82 -2.6,-2.99 -1.82,0 -2.6,1.26 -2.34,3.78 0,2.52 -0.54,5.76 -1.64,9.68 -0.51,2.44 -1.98,4.49 -4.43,6.16 -2.36,1.56 -6.66,2.69 -12.9,3.39 -2.95,0.35 -8.9,0.61 -17.84,0.78 -9.02,0.17 -15.35,0.26 -18.97,0.26 -1.18,0 -1.77,-0.87 -1.77,-2.62 v -67.71 c -0.18,-2.01 0.42,-3 1.77,-3 3.97,0 10.98,0.09 21.04,0.26 9.88,0 16.73,0.08 20.53,0.26 6.08,0.44 10.22,1.78 12.42,4.05 1.77,2.35 3.17,3.53 4.18,3.53 1.18,0 1.77,-0.74 1.77,-2.22 -0.17,-0.52 -0.87,-6.99 -2.09,-19.43 -0.7,-7.65 -1.05,-13.61 -1.05,-17.88 0,-1.13 -0.08,-2.21 -0.25,-3.26 -0.17,-1.22 -0.89,-1.83 -2.16,-1.83 -1.7,0 -2.46,0.79 -2.28,2.35 0,2.87 -0.34,6.09 -1.01,9.67 -0.59,2.68 -1.9,5 -3.92,6.9 -2.28,1.83 -5.82,3.01 -10.63,3.53 -3.12,0.35 -8.98,0.61 -17.58,0.79 -8.86,0 -15.26,0 -19.23,0 -1.18,0 -1.69,-0.88 -1.51,-2.62 v -21.14 c -0.18,-14.44 -0.18,-28.27 0,-41.5 0,-8.87 1.99,-14.83 5.97,-17.87 3.98,-3.22 12.41,-4.74 25.28,-4.57 3.64,0 7.71,0.18 12.2,0.52 4.66,0.18 8.72,1.09 12.2,2.74 6.44,2.7 10.33,9.26 11.69,19.71 0.16,1.65 0.51,2.74 1.01,3.26 0.6,0.52 1.24,0.78 1.91,0.78 1.53,-0.17 2.21,-1.78 2.03,-4.82 0,-3.57 -0.33,-8.53 -1.01,-14.87 -0.67,-6.61 -1.44,-11.53 -2.28,-14.74 -0.76,-3.22 -2.07,-5.18 -3.93,-5.88 -1.94,-0.69 -5.32,-1.03 -10.13,-1.03 -35.81,0.5 -59.75,1.02 -71.83,1.54 -8.7,-0.17 -19.59,-0.43 -32.68,-0.76 -3.46,0 -5.2,0.84 -5.2,2.53 -0.17,1.43 1.18,2.15 4.04,2.15 4.03,0 7.14,0.35 9.32,1.05 2.6,0.69 4.41,2.39 5.41,5.09 1.1,2.44 1.81,5.66 2.15,9.67 0.84,12.28 1.26,31.27 1.26,56.97 v 47"
         style="fill:#ffffff;fill-opacity:1;fill-rule:nonzero;stroke:none"
         id="path44" />
      <path
         d="m 4754.46,2115.95 c 0.84,4.61 2.27,6.91 4.29,6.91 1.1,0 2.15,-0.44 3.16,-1.31 1.01,-1.22 2.32,-3.51 3.92,-6.91 l 70.64,-150.67 70.39,152.5 c 1.68,4.26 3.58,6.39 5.68,6.39 2.45,0 4.01,-2.74 4.68,-8.22 l 23.5,-165.16 c 1.6,-16.18 5.82,-25.17 12.64,-27 7.41,-1.91 12.77,-2.79 16.05,-2.61 2.61,0 4,-0.63 4.17,-1.9 0,-0.85 -0.59,-1.52 -1.77,-2.02 -1.43,-0.51 -3.08,-0.76 -4.93,-0.76 -15.51,0.16 -33.04,0.67 -52.59,1.51 -5.31,0.51 -7.79,1.49 -7.46,2.92 0,1.21 0.93,2.17 2.79,2.86 0.92,0.35 1.55,1.44 1.89,3.26 0.17,1.74 0,4.49 -0.51,8.23 l -15.54,117.54 h -1.01 l -56.51,-121.08 c -4.97,-10.52 -8.18,-15.51 -9.61,-14.99 -1.01,0 -2.19,1.26 -3.54,3.78 -1.6,2.43 -3.41,5.6 -5.43,9.5 -3.63,7.47 -8.89,18.23 -15.8,32.3 -7.08,13.88 -11.77,23.31 -14.04,28.25 -5.48,12.69 -14.45,32.49 -26.93,59.36 h -1.01 l -13.52,-106.32 c -0.5,-4.44 -0.75,-8.66 -0.75,-12.66 0.16,-4.78 2.78,-7.61 7.83,-8.48 4.64,-0.85 8.26,-1.27 10.87,-1.27 2.36,0 3.62,-0.64 3.79,-1.91 -0.17,-1.87 -2.22,-2.8 -6.17,-2.8 -12.03,0.33 -21.07,0.59 -27.12,0.76 -6.89,-0.17 -15.39,-0.43 -25.48,-0.76 -2.94,0 -4.49,0.93 -4.66,2.78 0,1.27 1.34,1.9 4.03,1.9 1.77,-0.18 4.37,0.08 7.82,0.79 3.44,1.03 6.01,3.69 7.69,7.96 1.59,3.9 2.56,8.3 2.89,13.17 l 25.66,174.16"
         style="fill:#ffffff;fill-opacity:1;fill-rule:nonzero;stroke:none"
         id="path46" />
      <path
         d="m 5023.51,2039.65 c 0,35.03 -0.15,53.94 -0.43,56.72 -0.17,4.71 -0.97,8.19 -2.4,10.46 -1.52,2.53 -4.43,4.14 -8.72,4.83 -2.62,0.53 -5.99,0.79 -10.12,0.79 -2.95,-0.17 -4.43,0.63 -4.43,2.41 0,1.52 1.9,2.27 5.7,2.27 15.71,-0.18 28.15,-0.43 37.35,-0.78 23.3,0 44.91,0.09 64.83,0.26 5.15,0.52 8.86,1.05 11.14,1.57 1.35,0.52 2.75,0.86 4.18,1.04 1.01,-0.18 1.52,-0.96 1.52,-2.34 -0.18,-0.52 -0.88,-6.29 -2.1,-17.31 -0.35,-5.55 -0.83,-11.41 -1.44,-17.58 0,-1.82 -0.87,-2.82 -2.6,-2.99 -1.82,0 -2.59,1.26 -2.34,3.78 0,2.52 -0.54,5.76 -1.64,9.68 -0.5,2.44 -1.98,4.49 -4.42,6.16 -2.37,1.56 -6.67,2.69 -12.91,3.39 -2.95,0.35 -8.9,0.61 -17.84,0.78 -9.02,0.17 -15.34,0.26 -18.97,0.26 -1.18,0 -1.77,-0.87 -1.77,-2.62 v -67.71 c -0.18,-2.01 0.42,-3 1.77,-3 3.97,0 10.98,0.09 21.04,0.26 9.88,0 16.73,0.08 20.53,0.26 6.08,0.44 10.22,1.78 12.42,4.05 1.77,2.35 3.17,3.53 4.18,3.53 1.18,0 1.77,-0.74 1.77,-2.22 -0.17,-0.52 -0.87,-6.99 -2.09,-19.43 -0.7,-7.65 -1.05,-13.61 -1.05,-17.88 0,-1.13 -0.08,-2.21 -0.25,-3.26 -0.17,-1.22 -0.89,-1.83 -2.16,-1.83 -1.7,0 -2.46,0.79 -2.28,2.35 0,2.87 -0.34,6.09 -1.01,9.67 -0.59,2.68 -1.9,5 -3.92,6.9 -2.28,1.83 -5.82,3.01 -10.63,3.53 -3.12,0.35 -8.98,0.61 -17.58,0.79 -8.85,0 -15.26,0 -19.22,0 -1.19,0 -1.7,-0.88 -1.52,-2.62 v -21.14 c -0.18,-14.44 -0.18,-28.27 0,-41.5 0,-8.87 1.99,-14.83 5.97,-17.87 3.98,-3.22 12.41,-4.74 25.29,-4.57 3.63,0 7.7,0.18 12.19,0.52 4.66,0.18 8.72,1.09 12.2,2.74 6.44,2.7 10.33,9.26 11.69,19.71 0.17,1.65 0.51,2.74 1.01,3.26 0.6,0.52 1.24,0.78 1.91,0.78 1.53,-0.17 2.21,-1.78 2.04,-4.82 0,-3.57 -0.34,-8.53 -1.02,-14.87 -0.67,-6.61 -1.44,-11.53 -2.28,-14.74 -0.76,-3.22 -2.07,-5.18 -3.93,-5.88 -1.94,-0.69 -5.32,-1.03 -10.13,-1.03 -35.81,0.5 -59.75,1.02 -71.82,1.54 -8.71,-0.17 -19.6,-0.43 -32.69,-0.76 -3.46,0 -5.19,0.84 -5.19,2.53 -0.18,1.43 1.17,2.15 4.03,2.15 4.03,0 7.14,0.35 9.32,1.05 2.6,0.69 4.41,2.39 5.41,5.09 1.1,2.44 1.81,5.66 2.15,9.67 0.84,12.28 1.26,31.27 1.26,56.97 v 47"
         style="fill:#ffffff;fill-opacity:1;fill-rule:nonzero;stroke:none"
         id="path48" />
      <path
         d="m 5206.91,1951.36 c 0.33,-10.11 1.26,-17.42 2.78,-21.95 1.51,-4.27 3.57,-6.84 6.19,-7.71 4.63,-1.4 9.14,-2.01 13.52,-1.83 2.95,0 4.42,-0.72 4.42,-2.15 -0.25,-1.69 -2.28,-2.53 -6.06,-2.53 -16.51,0.33 -27.21,0.59 -32.09,0.76 -3.8,-0.17 -13.1,-0.43 -27.92,-0.76 -3.8,-0.18 -5.69,0.67 -5.69,2.53 0,1.43 1.39,2.15 4.18,2.15 3.8,0 7.68,0.43 11.65,1.3 3.29,0.87 5.53,3.84 6.71,8.89 1.1,4.96 1.56,13.07 1.4,24.3 l 2.28,158.34 c -0.18,5.83 0.96,8.83 3.41,9 1.51,0 2.98,-0.74 4.42,-2.22 1.51,-1.57 3.19,-3.61 5.05,-6.13 9.51,-10.88 36.24,-39.46 80.19,-85.75 9.85,-10.19 21.09,-22.02 33.72,-35.51 12.37,-13.75 20.12,-22.22 23.23,-25.45 h 1.26 l -2.53,120.2 c 0,8.02 -0.63,13.81 -1.9,17.38 -1.51,3.4 -3.83,5.62 -6.94,6.66 -4.64,1.22 -9.23,1.74 -13.77,1.57 -2.88,0 -4.22,0.8 -4.05,2.41 0,1 0.68,1.68 2.02,2.02 1.35,0.17 2.91,0.25 4.68,0.25 14.48,-0.18 24.92,-0.43 31.32,-0.78 1.51,0 4.5,0.18 8.97,0.53 4.55,0.16 9.98,0.25 16.29,0.25 3.79,0.18 5.77,-0.59 5.94,-2.27 0,-1.61 -1.53,-2.41 -4.57,-2.41 -2.28,0 -4.91,-0.26 -7.86,-0.79 -3.65,-0.87 -6.05,-3 -7.24,-6.39 -1.44,-3.4 -2.24,-8.85 -2.41,-16.33 l -2.79,-168.81 c 0,-5.47 -1.14,-8.2 -3.41,-8.2 -1.35,0 -2.69,0.73 -4.04,2.21 -1.6,1.05 -3.16,2.27 -4.68,3.65 -20.2,20.54 -45.62,46.73 -76.26,78.58 -32.24,34.45 -52.77,56.9 -61.61,67.35 h -0.78 l 2.97,-112.36"
         style="fill:#ffffff;fill-opacity:1;fill-rule:nonzero;stroke:none"
         id="path50" />
      <path
         d="m 5479.72,2102.27 -38.62,-1.04 c -7.26,-0.17 -12.79,-0.69 -16.59,-1.57 -3.8,-1.22 -6.67,-3.26 -8.61,-6.14 -2.36,-4.09 -3.8,-7.23 -4.3,-9.41 -0.34,-2.09 -1.31,-3.13 -2.92,-3.13 -1.69,0 -2.45,1.39 -2.28,4.16 0,1.3 0.34,3.43 1.01,6.38 0.51,3.02 1.02,6.32 1.53,9.88 1.6,7.8 2.57,12.62 2.91,14.43 0.67,3.39 1.69,5.09 3.03,5.09 1.1,0 2.49,-0.48 4.18,-1.44 1.51,-0.86 3.83,-1.48 6.95,-1.82 8.18,-0.87 16.82,-1.31 25.93,-1.31 h 102.56 c 8.09,0 14.04,0.44 17.84,1.31 3.79,0.87 6.15,1.3 7.08,1.3 1.35,0 2.03,-1.82 2.03,-5.46 -0.17,-9.59 -0.42,-19.91 -0.76,-30.97 -0.17,-2.87 -0.98,-4.31 -2.42,-4.31 -1.87,-0.17 -2.8,1.62 -2.8,5.36 l -0.25,3 c 0,3.75 -2.23,7.11 -6.7,10.07 -4.55,2.88 -12.51,4.49 -23.87,4.85 l -32.6,0.77 v -109.62 c -0.18,-25.7 0.25,-44.83 1.26,-57.36 0.42,-3.75 1.31,-6.84 2.65,-9.28 1.19,-2.71 3.67,-4.4 7.46,-5.1 4.29,-0.67 8.72,-1.02 13.27,-1.02 2.77,0 4.16,-0.72 4.16,-2.15 -0.25,-1.7 -1.89,-2.55 -4.93,-2.55 -18.54,0.33 -32.1,0.59 -40.69,0.76 -8.6,-0.17 -19.47,-0.43 -32.62,-0.76 -3.45,0 -5.18,0.84 -5.18,2.53 -0.17,1.43 1.22,2.15 4.18,2.15 3.97,0 7.09,0.35 9.37,1.05 2.54,0.69 4.43,2.39 5.7,5.09 1.01,2.44 1.6,5.66 1.77,9.67 0.85,12.28 1.27,31.27 1.27,56.97 v 109.62"
         style="fill:#ffffff;fill-opacity:1;fill-rule:nonzero;stroke:none"
         id="path52" />
      <path
         d="m 3269.41,1645.06 c -10.54,0 -19.7,1.68 -27.48,5.03 -1.35,0.69 -2.3,1.48 -2.85,2.37 -0.49,0.89 -0.74,2.31 -0.74,4.27 0.12,12.34 0.46,20.82 1.01,25.44 0.12,3.29 0.85,5 2.19,5.13 1.03,0 1.61,-0.35 1.73,-1.05 0.12,-0.63 0.18,-1.38 0.18,-2.27 0,-2.86 0.56,-6.18 1.66,-9.97 2.27,-7.09 5.87,-12.12 10.79,-15.1 4.92,-3.04 10.33,-4.55 16.23,-4.55 8.55,0.18 14.91,2.65 19.09,7.4 4.12,4.56 6.18,9.49 6.18,14.81 0,2.47 -0.12,4.94 -0.37,7.41 -0.49,2.34 -1.44,4.74 -2.85,7.21 -2.34,4.88 -7.4,10.38 -15.2,16.53 l -8.74,6.93 c -10.14,8.29 -17.35,16.14 -21.64,23.55 -4.31,7.41 -6.4,14.94 -6.27,22.59 0,10.89 4.02,19.76 12.05,26.59 7.79,6.65 18.27,10.03 31.46,10.16 6.19,0 11.34,-0.34 15.45,-1.03 4.04,-0.77 7.27,-1.52 9.65,-2.28 1.72,-0.25 2.58,-1.04 2.58,-2.36 0,-1.02 -0.12,-3.25 -0.38,-6.72 -0.25,-3.54 -0.37,-9.03 -0.37,-16.47 0,-4.05 -0.68,-6 -2.04,-5.88 -1.29,0 -1.93,1.17 -1.93,3.51 0,1.02 -0.25,2.75 -0.74,5.22 -0.74,2.45 -2.12,4.97 -4.15,7.55 -1.29,2.08 -3.49,4.15 -6.62,6.24 -3.13,2.02 -7.77,3.12 -13.9,3.3 -7.06,0 -12.47,-1.83 -16.21,-5.5 -4.17,-3.73 -6.26,-8.58 -6.26,-14.52 -0.12,-4.31 1.32,-8.56 4.33,-12.73 2.89,-4.12 8.11,-9.21 15.67,-15.29 l 5.25,-4.08 c 11.24,-8.74 19.26,-16.91 24.05,-24.5 4.61,-7.54 6.91,-15.92 6.91,-25.16 0,-5.71 -1.2,-11.53 -3.59,-17.47 -2.77,-6.08 -7.46,-11.53 -14.09,-16.34 -4.67,-2.97 -9.58,-5.03 -14.74,-6.17 -5.04,-1.2 -10.13,-1.8 -15.29,-1.8 h -0.01"
         style="fill:#ffffff;fill-opacity:1;fill-rule:nonzero;stroke:none"
         id="path54" />
      <path
         d="m 3697.78,1698.1 c 0,5.07 -0.38,9.09 -1.11,12.08 -0.74,2.98 -1.81,5.76 -3.22,8.36 -0.25,1.08 -1.75,3.99 -4.51,8.75 -2.77,4.82 -6.12,10.43 -10.04,16.83 -8.17,13.75 -14.37,23.93 -18.6,30.53 -4.91,7.29 -9.27,12.04 -13.08,14.26 -2.76,1.52 -5.4,2.34 -7.92,2.47 -1.71,-0.13 -2.63,0.46 -2.76,1.75 0.13,1.11 1.32,1.66 3.59,1.66 6.5,-0.13 14.41,-0.32 23.73,-0.57 2.09,0 4.97,0.13 8.65,0.38 3.5,0.13 7.33,0.19 11.5,0.19 1.84,0 2.76,-0.56 2.76,-1.66 0,-0.93 -1.38,-1.63 -4.14,-2.13 -1.72,-0.51 -2.57,-1.68 -2.57,-3.52 0,-1.52 0.73,-3.71 2.2,-6.56 0.92,-1.58 2.95,-5.11 6.07,-10.56 3.01,-5.45 6.32,-11.63 9.94,-18.54 8.16,-14.89 13.49,-24.63 16,-29.19 0.68,1.45 2.4,4.73 5.16,9.79 2.63,4.76 5.58,10.28 8.83,16.55 7.3,13.63 12.08,22.69 14.35,27.19 1.72,4.32 2.58,7.71 2.58,10.18 0,1.02 -0.25,2.06 -0.74,3.13 -0.49,0.77 -1.56,1.34 -3.22,1.72 -2.15,0.25 -3.28,0.89 -3.41,1.94 0,1.11 1.08,1.66 3.23,1.66 6.32,-0.13 12.23,-0.32 17.75,-0.57 6.99,0.13 13.71,0.31 20.15,0.57 2.14,0 3.28,-0.49 3.4,-1.48 -0.12,-1.29 -1.32,-1.93 -3.58,-1.93 -2.27,0 -5.03,-0.76 -8.28,-2.29 -3.31,-1.58 -6.71,-4.78 -10.2,-9.6 -3.86,-5.45 -10.15,-15.62 -18.85,-30.52 -3.98,-6.91 -7.54,-13.28 -10.66,-19.11 -3.31,-5.83 -5.46,-9.93 -6.44,-12.27 -0.61,-1.71 -1.1,-3.33 -1.47,-4.84 -0.43,-1.72 -0.76,-3.33 -1.01,-4.86 -0.25,-3.3 -0.37,-6.56 -0.37,-9.79 v -15.98 c -0.13,-3.87 0.06,-10.33 0.55,-19.39 0.13,-2.92 0.83,-5.27 2.11,-7.04 0.98,-1.97 2.85,-3.2 5.6,-3.72 3.19,-0.48 6.34,-0.73 9.46,-0.73 2.02,0 3.03,-0.53 3.03,-1.58 -0.19,-1.23 -1.53,-1.85 -4.05,-1.85 -12.88,0.25 -22.47,0.43 -28.79,0.55 -6.62,-0.12 -14.47,-0.3 -23.54,-0.55 -2.76,0 -4.14,0.62 -4.14,1.84 0,1.05 1.01,1.57 3.04,1.57 2.65,0 4.86,0.26 6.65,0.76 1.84,0.51 3.29,1.74 4.33,3.72 0.86,1.76 1.36,4.11 1.48,7.03 0.37,9.06 0.56,15.52 0.56,19.39 v 15.98"
         style="fill:#ffffff;fill-opacity:1;fill-rule:nonzero;stroke:none"
         id="path56" />
      <path
         d="m 4135.09,1645.06 c -10.53,0 -19.69,1.68 -27.47,5.03 -1.35,0.69 -2.3,1.48 -2.85,2.37 -0.49,0.89 -0.73,2.31 -0.73,4.27 0.12,12.34 0.45,20.83 1,25.45 0.12,3.29 0.85,5 2.19,5.13 1.03,0 1.61,-0.36 1.73,-1.05 0.12,-0.63 0.18,-1.39 0.18,-2.28 0,-2.85 0.55,-6.18 1.66,-9.97 2.28,-7.09 5.87,-12.12 10.79,-15.1 4.92,-3.04 10.33,-4.55 16.23,-4.55 8.55,0.18 14.91,2.65 19.09,7.4 4.12,4.56 6.18,9.49 6.18,14.81 0,2.47 -0.12,4.94 -0.37,7.41 -0.49,2.34 -1.44,4.74 -2.85,7.21 -2.33,4.88 -7.4,10.38 -15.2,16.53 l -8.75,6.93 c -10.13,8.29 -17.34,16.14 -21.64,23.55 -4.3,7.41 -6.39,14.94 -6.26,22.59 0,10.89 4.02,19.76 12.05,26.59 7.79,6.65 18.27,10.03 31.46,10.16 6.19,0 11.34,-0.34 15.45,-1.03 4.04,-0.77 7.27,-1.53 9.65,-2.28 1.72,-0.25 2.58,-1.04 2.58,-2.36 0,-1.02 -0.13,-3.25 -0.38,-6.73 -0.25,-3.54 -0.38,-9.02 -0.38,-16.47 0,-4.05 -0.67,-6.01 -2.03,-5.88 -1.29,0 -1.94,1.17 -1.94,3.51 0,1.01 -0.24,2.74 -0.73,5.21 -0.74,2.46 -2.12,4.98 -4.14,7.56 -1.29,2.08 -3.5,4.16 -6.63,6.24 -3.13,2.03 -7.77,3.13 -13.91,3.31 -7.05,0 -12.45,-1.83 -16.2,-5.5 -4.17,-3.73 -6.26,-8.58 -6.26,-14.52 -0.12,-4.31 1.32,-8.56 4.33,-12.73 2.89,-4.12 8.11,-9.21 15.67,-15.29 l 5.25,-4.08 c 11.24,-8.74 19.26,-16.91 24.05,-24.5 4.61,-7.54 6.91,-15.92 6.91,-25.16 0,-5.71 -1.2,-11.53 -3.59,-17.47 -2.76,-6.08 -7.46,-11.53 -14.1,-16.34 -4.66,-2.97 -9.57,-5.03 -14.73,-6.17 -5.04,-1.2 -10.13,-1.8 -15.29,-1.8 h -0.02"
         style="fill:#ffffff;fill-opacity:1;fill-rule:nonzero;stroke:none"
         id="path58" />
      <path
         d="m 4567.36,1783.97 -28.11,-0.76 c -5.28,-0.12 -9.31,-0.5 -12.08,-1.14 -2.76,-0.89 -4.85,-2.37 -6.26,-4.47 -1.72,-2.98 -2.76,-5.26 -3.13,-6.85 -0.25,-1.52 -0.96,-2.27 -2.12,-2.27 -1.24,0 -1.79,1 -1.66,3.03 0,0.94 0.24,2.49 0.73,4.63 0.37,2.21 0.74,4.6 1.11,7.19 1.16,5.69 1.87,9.18 2.12,10.51 0.49,2.47 1.23,3.7 2.21,3.7 0.8,0 1.81,-0.35 3.04,-1.04 1.1,-0.64 2.79,-1.08 5.06,-1.33 5.95,-0.64 12.24,-0.95 18.87,-0.95 h 74.64 c 5.89,0 10.22,0.31 12.98,0.95 2.76,0.63 4.48,0.95 5.15,0.95 1,0 1.49,-1.32 1.49,-3.98 -0.13,-6.97 -0.31,-14.49 -0.56,-22.54 -0.12,-2.09 -0.71,-3.13 -1.76,-3.13 -1.36,-0.13 -2.04,1.17 -2.04,3.89 l -0.18,2.19 c 0,2.74 -1.63,5.18 -4.88,7.33 -3.31,2.09 -9.1,3.27 -17.37,3.52 l -23.72,0.57 v -79.78 c -0.13,-18.71 0.18,-32.63 0.91,-41.75 0.31,-2.73 0.96,-4.98 1.94,-6.75 0.85,-1.97 2.66,-3.2 5.42,-3.72 3.13,-0.48 6.35,-0.73 9.66,-0.73 2.02,0 3.03,-0.53 3.03,-1.58 -0.18,-1.23 -1.38,-1.85 -3.59,-1.85 -13.49,0.25 -23.36,0.43 -29.62,0.55 -6.26,-0.12 -14.17,-0.3 -23.73,-0.55 -2.52,0 -3.77,0.62 -3.77,1.84 -0.13,1.05 0.88,1.57 3.04,1.57 2.89,0 5.16,0.26 6.82,0.76 1.84,0.51 3.22,1.74 4.14,3.72 0.74,1.76 1.17,4.11 1.3,7.03 0.61,8.93 0.92,22.76 0.92,41.46 v 79.78"
         style="fill:#ffffff;fill-opacity:1;fill-rule:nonzero;stroke:none"
         id="path60" />
      <path
         d="m 4991.47,1738.39 c 0,25.5 -0.11,39.26 -0.32,41.29 -0.12,3.42 -0.7,5.96 -1.74,7.61 -1.11,1.83 -3.23,3.01 -6.35,3.52 -1.91,0.38 -4.36,0.57 -7.36,0.57 -2.15,-0.13 -3.22,0.46 -3.22,1.75 0,1.11 1.38,1.66 4.14,1.66 11.43,-0.13 20.49,-0.32 27.19,-0.57 16.95,0 32.68,0.06 47.18,0.19 3.74,0.38 6.45,0.76 8.11,1.14 0.98,0.38 1.99,0.63 3.04,0.76 0.73,-0.13 1.1,-0.7 1.1,-1.71 -0.12,-0.38 -0.64,-4.58 -1.52,-12.6 -0.26,-4.04 -0.61,-8.31 -1.05,-12.79 0,-1.33 -0.63,-2.05 -1.89,-2.18 -1.33,0 -1.89,0.92 -1.7,2.76 0,1.83 -0.4,4.19 -1.2,7.04 -0.37,1.78 -1.44,3.27 -3.23,4.48 -1.71,1.14 -4.84,1.96 -9.39,2.47 -2.14,0.26 -6.47,0.44 -12.97,0.57 -6.57,0.12 -11.18,0.18 -13.81,0.18 -0.87,0 -1.29,-0.63 -1.29,-1.9 v -49.28 c -0.13,-1.45 0.3,-2.19 1.29,-2.19 2.89,0 7.99,0.07 15.31,0.2 7.19,0 12.17,0.06 14.94,0.18 4.42,0.33 7.44,1.3 9.04,2.95 1.29,1.72 2.3,2.57 3.04,2.57 0.86,0 1.29,-0.53 1.29,-1.61 -0.13,-0.38 -0.63,-5.1 -1.52,-14.14 -0.51,-5.58 -0.76,-9.91 -0.76,-13.01 0,-0.83 -0.06,-1.62 -0.19,-2.38 -0.12,-0.88 -0.65,-1.33 -1.57,-1.33 -1.23,0 -1.79,0.58 -1.66,1.71 0,2.09 -0.25,4.43 -0.74,7.03 -0.43,1.96 -1.38,3.64 -2.85,5.03 -1.66,1.33 -4.24,2.19 -7.73,2.57 -2.27,0.25 -6.54,0.44 -12.8,0.57 -6.44,0 -11.1,0 -13.99,0 -0.86,0 -1.23,-0.64 -1.1,-1.9 v -15.39 c -0.13,-10.51 -0.13,-20.58 0,-30.19 0,-6.47 1.44,-10.81 4.34,-13.02 2.9,-2.35 9.03,-3.45 18.41,-3.32 2.64,0 5.6,0.12 8.87,0.38 3.39,0.13 6.35,0.79 8.88,1.99 4.68,1.96 7.52,6.74 8.51,14.35 0.12,1.2 0.37,1.99 0.74,2.37 0.43,0.38 0.89,0.57 1.39,0.57 1.11,-0.13 1.6,-1.3 1.47,-3.52 0,-2.59 -0.24,-6.2 -0.73,-10.82 -0.5,-4.81 -1.05,-8.39 -1.66,-10.72 -0.55,-2.35 -1.51,-3.77 -2.86,-4.28 -1.42,-0.51 -3.88,-0.76 -7.38,-0.76 -26.06,0.38 -43.48,0.75 -52.27,1.12 -6.34,-0.12 -14.26,-0.3 -23.79,-0.55 -2.52,0 -3.78,0.62 -3.78,1.84 -0.13,1.05 0.85,1.57 2.93,1.57 2.94,0 5.2,0.26 6.79,0.76 1.9,0.51 3.21,1.74 3.94,3.72 0.8,1.76 1.31,4.11 1.56,7.03 0.61,8.93 0.92,22.76 0.92,41.46 v 34.2"
         style="fill:#ffffff;fill-opacity:1;fill-rule:nonzero;stroke:none"
         id="path62" />
      <path
         d="m 5432.44,1793.93 c 0.61,3.35 1.66,5.03 3.13,5.03 0.79,0 1.56,-0.33 2.3,-0.95 0.74,-0.89 1.68,-2.57 2.85,-5.03 l 51.41,-109.67 51.23,111 c 1.22,3.09 2.6,4.65 4.14,4.65 1.77,0 2.91,-2 3.4,-5.98 l 17.11,-120.2 c 1.16,-11.78 4.23,-18.33 9.19,-19.66 5.4,-1.39 9.3,-2.02 11.68,-1.9 1.9,0 2.92,-0.47 3.04,-1.38 0,-0.62 -0.43,-1.11 -1.29,-1.48 -1.04,-0.36 -2.23,-0.55 -3.59,-0.55 -11.28,0.12 -24.04,0.49 -38.27,1.11 -3.86,0.36 -5.67,1.07 -5.43,2.12 0,0.89 0.68,1.58 2.03,2.09 0.67,0.25 1.13,1.04 1.37,2.37 0.13,1.26 0,3.26 -0.36,5.98 l -11.32,85.54 h -0.73 l -41.13,-88.11 c -3.62,-7.66 -5.95,-11.29 -6.99,-10.91 -0.74,0 -1.6,0.92 -2.58,2.74 -1.16,1.78 -2.48,4.09 -3.96,6.93 -2.63,5.43 -6.47,13.26 -11.49,23.49 -5.16,10.12 -8.56,16.97 -10.22,20.57 -3.98,9.24 -10.52,23.64 -19.59,43.2 h -0.74 l -9.84,-77.38 c -0.37,-3.23 -0.55,-6.3 -0.55,-9.21 0.12,-3.48 2.02,-5.54 5.7,-6.17 3.38,-0.62 6.01,-0.93 7.91,-0.93 1.72,0 2.64,-0.47 2.76,-1.38 -0.12,-1.37 -1.62,-2.05 -4.5,-2.05 -8.75,0.25 -15.32,0.43 -19.73,0.55 -5.02,-0.12 -11.2,-0.3 -18.54,-0.55 -2.14,0 -3.27,0.68 -3.4,2.03 0,0.91 0.98,1.38 2.94,1.38 1.28,-0.12 3.18,0.06 5.69,0.57 2.5,0.76 4.37,2.69 5.59,5.79 1.16,2.85 1.87,6.04 2.11,9.59 l 18.67,126.76"
         style="fill:#ffffff;fill-opacity:1;fill-rule:nonzero;stroke:none"
         id="path64" />
    </g>
  </g>
</svg>
