<?xml version="1.0" encoding="UTF-8" standalone="no"?>
<!-- Created with Inkscape (http://www.inkscape.org/) -->

<svg
   version="1.1"
   id="svg2"
   width="638"
   height="190.14667"
   viewBox="0 0 638 190.14667"
   sodipodi:docname="EESystem Logo (EPS).eps"
   xmlns:inkscape="http://www.inkscape.org/namespaces/inkscape"
   xmlns:sodipodi="http://sodipodi.sourceforge.net/DTD/sodipodi-0.dtd"
   xmlns="http://www.w3.org/2000/svg"
   xmlns:svg="http://www.w3.org/2000/svg">
  <defs
     id="defs6">
    <clipPath
       clipPathUnits="userSpaceOnUse"
       id="clipPath18">
      <path
         d="M 0,0 H 4785 V 1426 H 0 Z"
         id="path16" />
    </clipPath>
    <clipPath
       clipPathUnits="userSpaceOnUse"
       id="clipPath24">
      <path
         d="m 675.152,162.211 c -14.656,0.57 -29.422,0.559 -44.058,2.199 l -11.016,0.961 -5.512,0.481 -5.48,0.73 -21.949,2.988 c -7.309,1.09 -14.52,2.7 -21.793,4.032 l -10.906,2.128 -10.786,2.622 -10.8,2.617 c -3.598,0.883 -7.223,1.703 -10.758,2.812 l -21.356,6.278 c -28.281,9.05 -56.027,20.031 -82.851,33.082 -26.715,13.25 -52.711,28.109 -77.567,44.839 -99.222,67.2 -178.718,164.469 -225.41,276.383 l -8.383,21.133 c -1.468,3.496 -2.586,7.121 -3.847,10.695 l -3.6878,10.762 -3.6758,10.77 -3.1719,10.929 -3.164,10.938 c -1.0313,3.652 -2.1992,7.273 -3,10.984 l -5.25,22.168 c -0.9375,3.684 -1.5899,7.422 -2.2735,11.153 l -2.0664,11.21 -2.0586,11.211 c -0.6367,3.75 -1.0547,7.52 -1.5898,11.282 -0.9844,7.539 -2.0977,15.066 -2.957,22.617 -1.2344,15.144 -2.8868,30.281 -3.1211,45.496 l -0.4063,11.406 c -0.0508,1.895 -0.164,3.801 -0.1758,5.703 l 0.0938,5.703 0.3906,22.825 c -0.0156,3.808 0.3164,7.597 0.5625,11.394 l 0.7695,11.399 0.7774,11.398 c 0.1953,3.805 0.8203,7.566 1.2109,11.356 l 2.6992,22.695 c 1.1875,7.527 2.5274,15.039 3.7891,22.558 0.6641,3.75 1.2266,7.528 1.9805,11.258 l 2.4726,11.172 c 1.7149,7.434 3.1602,14.934 5.1719,22.285 l 6.1445,22.051 1.5469,5.508 1.8047,5.441 3.6094,10.86 c 4.5115,14.597 10.4995,28.657 15.9335,42.927 6.305,13.9 12.098,28.06 19.281,41.55 l 5.176,10.21 2.609,5.1 2.84,4.97 11.395,19.88 c 3.91,6.55 8.156,12.91 12.223,19.37 2.074,3.21 4.082,6.45 6.207,9.63 l 6.617,9.35 6.625,9.34 c 2.218,3.11 4.371,6.27 6.785,9.24 l 14.125,18.03 c 2.293,3.05 4.848,5.9 7.332,8.79 l 7.484,8.67 7.492,8.67 c 2.579,2.82 5.239,5.55 7.864,8.34 20.715,22.46 43.562,42.87 67.308,62.05 6.024,4.69 11.993,9.46 18.071,14.08 l 18.691,13.24 c 6.137,4.55 12.715,8.46 19.109,12.62 6.465,4.07 12.786,8.36 19.508,12 l 19.918,11.31 20.418,10.37 c 3.43,1.68 6.77,3.54 10.27,5.07 l 10.457,4.67 10.457,4.65 5.23,2.34 5.324,2.09 21.34,8.29 c 7.129,2.71 14.45,4.91 21.664,7.39 l 10.86,3.6 c 3.66,1.09 7.344,2.08 11.015,3.1 7.364,1.99 14.688,4.13 22.086,5.98 14.903,3.25 29.711,6.92 44.801,9.16 l 11.27,1.91 5.632,0.94 5.676,0.67 22.688,2.7 c 3.769,0.52 7.586,0.66 11.379,0.94 l 11.386,0.77 11.391,0.78 c 3.797,0.26 7.602,0.16 11.406,0.26 l 22.809,0.31 c 7.601,-0.16 15.199,-0.49 22.793,-0.74 3.793,-0.18 7.597,-0.16 11.383,-0.52 l 11.363,-0.93 11.355,-0.93 c 1.895,-0.17 3.789,-0.3 5.68,-0.5 l 5.648,-0.72 22.598,-2.94 c 7.496,-1.22 14.965,-2.6 22.438,-3.95 7.496,-1.21 14.871,-3.03 22.273,-4.71 7.391,-1.72 14.82,-3.25 22.098,-5.43 7.301,-2.05 14.621,-4.03 21.898,-6.15 l 21.602,-7.1 c 28.617,-9.98 56.523,-21.89 83.402,-35.74 26.771,-14.05 52.591,-29.8 77.121,-47.33 48.86,-35.3 92.82,-77.19 129.39,-124.65 9.34,-11.7 17.74,-24.11 26.24,-36.39 l 12.05,-18.89 c 2.07,-3.11 3.86,-6.39 5.74,-9.61 l 5.59,-9.69 c 1.83,-3.25 3.79,-6.43 5.52,-9.73 l 5.15,-9.92 c 3.38,-6.64 7.01,-13.13 10,-19.96 3.1,-6.77 6.32,-13.48 9.3,-20.28 l 8.31,-20.69 c 10.52,-27.78 19.33,-56.111 25.94,-84.928 6.18,-28.906 10.64,-58.086 12.84,-87.382 -5.16,28.933 -11.74,57.488 -20.34,85.39 -8.65,27.879 -19.28,55.028 -31.52,81.34 l -9.55,19.54 -10.3,19.14 c -3.29,6.45 -7.21,12.54 -10.87,18.78 l -5.56,9.29 c -1.86,3.1 -3.95,6.06 -5.91,9.09 l -5.97,9.04 c -2,3 -3.91,6.07 -6.09,8.94 l -12.71,17.5 c -8.92,11.33 -17.68,22.76 -27.33,33.44 -18.87,21.69 -38.97,42.3 -60.73,60.96 -21.68,18.72 -44.3,36.33 -68.27,51.87 -24,15.49 -48.87,29.51 -74.56,41.78 -25.786,12.09 -52.418,22.17 -79.457,30.77 -108.454,33.51 -225.934,36.04 -335,7.35 -6.805,-1.83 -13.536,-3.94 -20.305,-5.88 l -10.137,-2.98 -9.984,-3.45 c -6.633,-2.36 -13.375,-4.43 -19.926,-7.02 l -19.609,-7.85 -4.891,-1.98 -4.801,-2.2 -9.597,-4.42 -9.598,-4.39 c -3.219,-1.43 -6.274,-3.19 -9.418,-4.77 l -18.727,-9.75 -18.242,-10.62 c -6.16,-3.42 -11.988,-7.38 -17.922,-11.16 -5.879,-3.86 -11.941,-7.46 -17.57,-11.68 l -17.188,-12.26 c -5.582,-4.28 -11.058,-8.7 -16.601,-13.04 -21.817,-17.74 -42.793,-36.63 -61.836,-57.36 C 199.176,1107.8 145.652,1003.87 124.07,893.172 l -3.871,-20.789 -2.851,-20.969 c -0.418,-3.496 -1.078,-6.973 -1.309,-10.496 l -0.894,-10.547 -0.899,-10.558 c -0.293,-3.516 -0.672,-7.032 -0.711,-10.555 l -0.722,-21.184 -0.184,-5.301 c -0.035,-1.769 0.027,-3.527 0.035,-5.293 l 0.129,-10.605 c -0.148,-14.152 1.094,-28.242 1.875,-42.375 2.641,-28.145 6.723,-56.199 13.004,-83.836 0.633,-3.488 1.625,-6.894 2.48,-10.324 l 2.645,-10.293 2.641,-10.301 3.132,-10.156 3.141,-10.168 c 1.066,-3.379 1.996,-6.817 3.277,-10.117 l 7.242,-20.016 c 40.231,-106.242 111.153,-201.277 202.739,-270.988 22.867,-17.469 47.035,-33.27 72.097,-47.653 25.164,-14.218 51.52,-26.289 78.387,-37.257 26.988,-10.743 54.883,-19.18 83.199,-26.25 28.368,-6.961 57.309,-11.493 86.5,-14.93 z"
         id="path22" />
    </clipPath>
    <radialGradient
       fx="0"
       fy="0"
       cx="0"
       cy="0"
       r="1"
       gradientUnits="userSpaceOnUse"
       gradientTransform="matrix(401.639,1611.84,1611.84,-401.639,529.988,101.54)"
       spreadMethod="pad"
       id="radialGradient30">
      <stop
         style="stop-opacity:1;stop-color:#f79b10"
         offset="0"
         id="stop26" />
      <stop
         style="stop-opacity:1;stop-color:#6c272f"
         offset="1"
         id="stop28" />
    </radialGradient>
    <clipPath
       clipPathUnits="userSpaceOnUse"
       id="clipPath40">
      <path
         d="m 1205.99,1332.08 20.13,-15.78 10.05,-7.96 c 3.33,-2.68 6.43,-5.61 9.66,-8.41 l 19.22,-16.99 c 3.29,-2.76 6.19,-5.91 9.28,-8.87 l 9.15,-9.02 9.12,-9.07 c 1.5,-1.53 3.08,-2.99 4.52,-4.57 l 4.3,-4.78 17.22,-19.14 4.31,-4.79 c 1.42,-1.62 2.71,-3.32 4.08,-4.99 l 8.08,-10.03 8.09,-10.04 c 2.65,-3.39 5.52,-6.62 7.94,-10.18 l 15.08,-20.96 c 2.48,-3.52 5.11,-6.95 7.45,-10.57 l 6.9,-10.93 13.81,-21.89 12.61,-22.61 6.31,-11.33 c 2.14,-3.76 3.84,-7.74 5.79,-11.59 l 11.34,-23.34 c 1.99,-3.86 3.6,-7.87 5.27,-11.86 l 5.02,-11.98 5.02,-11.99 2.5,-6 c 0.83,-2 1.48,-4.07 2.23,-6.1 24.06,-65.033 39.3,-133.576 44.66,-203.107 l 1.25,-26.113 c 0.39,-8.711 0.98,-17.434 0.69,-26.152 l -0.24,-26.184 c -0.21,-8.731 -0.95,-17.43 -1.41,-26.152 l -0.79,-13.086 c -0.26,-4.364 -0.89,-8.692 -1.33,-13.036 l -2.9,-26.085 c -1.31,-8.641 -2.75,-17.274 -4.16,-25.907 -0.73,-4.316 -1.4,-8.644 -2.18,-12.949 l -2.78,-12.832 c -1.92,-8.543 -3.59,-17.148 -5.71,-25.656 l -6.84,-25.379 c -2.11,-8.516 -5.07,-16.777 -7.71,-25.137 l -4.06,-12.519 c -0.69,-2.082 -1.33,-4.18 -2.05,-6.25 l -2.34,-6.145 -9.36,-24.609 c -1.48,-4.129 -3.43,-8.067 -5.14,-12.11 l -5.31,-12.058 -5.3,-12.051 c -1.9,-3.957 -3.9,-7.863 -5.85,-11.793 -3.96,-7.852 -7.76,-15.77 -11.86,-23.531 -8.65,-15.289 -16.92,-30.821 -26.57,-45.528 -9.03,-15.101 -19.43,-29.293 -29.48,-43.73 -5.22,-7.07 -10.71,-13.941 -16.06,-20.93 -2.71,-3.449 -5.36,-6.98 -8.12,-10.402 l -8.57,-10.027 -8.57,-10.043 c -2.88,-3.321 -5.64,-6.75 -8.72,-9.911 l -18.08,-19.226 c -1.52,-1.602 -2.99,-3.242 -4.55,-4.793 l -4.74,-4.59 -9.49,-9.18 -9.5,-9.179 c -3.15,-3.078 -6.58,-5.848 -9.86,-8.789 l -19.91,-17.36 -20.7,-16.422 c -27.98,-21.379 -57.05,-41.5 -87.85,-58.7106 l -11.44,-6.6367 -11.74,-6.0703 c -7.87,-4 -15.63,-8.1719 -23.58,-11.9922 -16.08,-7.2383 -31.99,-14.8906 -48.54,-21.039 l -12.3,-4.8711 c -2.06,-0.7891 -4.09,-1.668 -6.17,-2.3907 l -6.261,-2.1289 -25.058,-8.5078 c -8.387,-2.7304 -16.934,-4.9414 -25.395,-7.4219 l -12.73,-3.6406 c -4.274,-1.0898 -8.582,-2.0273 -12.875,-3.039 -8.594,-1.9805 -17.188,-4 -25.801,-5.8789 L 871.035,10.4102 C 866.684,9.69922 862.367,8.75 857.988,8.23047 L 844.863,6.58203 831.738,4.92969 c -4.379,-0.5 -8.734,-1.21875 -13.144,-1.44141 C 801.012,2.23828 783.445,0.5 765.809,0.460938 l -13.215,-0.3125 C 748.188,0.03125 743.785,-0.101563 739.379,0.109375 l -26.426,0.722656 -6.605,0.187499 c -2.2,0.10938 -4.395,0.33985 -6.59,0.5 l -13.176,1.0625 -13.18,1.0586 -6.586,0.55078 -6.554,0.84765 L 634.051,8.5 c -4.379,0.48047 -8.707,1.32031 -13.039,2.1211 L 608.008,13 c -17.414,2.7891 -34.457,7.3906 -51.629,11.3086 -8.504,2.3008 -16.945,4.8203 -25.41,7.2617 l -12.672,3.7383 -12.488,4.3203 C 372.285,84.6602 252.27,168.16 164.418,277.352 120.523,331.91 83.9688,392.289 57.0977,456.688 c -1.6993,4.015 -3.4805,7.988 -5.1094,12.031 l -4.5703,12.258 -4.5625,12.246 c -1.461,4.101 -3.1719,8.105 -4.3946,12.293 l -7.9062,24.894 -1.9649,6.219 c -0.625,2.082 -1.1328,4.203 -1.6953,6.301 l -3.2929,12.625 c -4.7383,16.738 -7.9024,33.859 -11.4883,50.84 -1.6563,8.519 -2.77346,17.14 -4.17971,25.695 l -2,12.851 C 5.3125,649.238 5,653.574 4.52734,657.879 L 1.92188,683.738 0.609375,709.676 0,722.637 0.00390625,735.605 0.0742188,761.523 C 0.476563,770.145 0.59375,778.777 1.27344,787.391 l 0.85547,12.91 1.1875,12.883 c 0.70312,8.582 1.88281,17.136 2.91797,25.683 l 1.91406,12.774 c 0.64062,4.257 1.26953,8.515 2.07036,12.742 L 12.5,877.09 c 0.7852,4.226 1.7188,8.426 2.5664,12.637 1.6406,8.437 3.7461,16.777 5.6758,25.144 4.2266,16.641 8.6797,33.215 14.0781,49.492 2.5508,8.176 5.5586,16.211 8.3828,24.278 1.4649,4.023 3.0469,8 4.5586,11.999 1.5235,4 3.0547,7.99 4.7266,11.93 6.3203,15.88 13.5664,31.36 21.0312,46.68 -12.3398,-31.79 -23.1679,-64.074 -31.1211,-97.062 -4.2304,-16.418 -7.625,-33.02 -10.7187,-49.641 -1.3672,-8.348 -2.9102,-16.66 -3.9883,-25.039 -0.5742,-4.188 -1.2226,-8.36 -1.7305,-12.547 l -1.4336,-12.578 c -3.625,-33.567 -4.9921,-67.285 -4.2578,-100.891 l 1.2696,-25.183 0.6523,-12.571 1.2617,-12.527 2.586,-25.02 3.8398,-24.836 c 0.668,-4.128 1.2109,-8.281 1.9727,-12.39 l 2.4882,-12.305 c 1.7227,-8.183 3.1602,-16.426 5.1133,-24.551 4.1953,-16.183 7.9297,-32.461 13.211,-48.312 l 3.6875,-11.961 c 0.6289,-1.984 1.1914,-3.996 1.8672,-5.969 l 2.121,-5.879 8.4766,-23.515 c 1.3164,-3.953 3.1172,-7.735 4.6641,-11.59 l 4.8086,-11.535 4.8047,-11.512 c 1.7109,-3.797 3.5625,-7.531 5.332,-11.289 3.6094,-7.5 7.0781,-15.059 10.793,-22.492 l 11.7652,-21.996 c 3.746,-7.411 8.235,-14.418 12.442,-21.579 l 6.387,-10.691 c 1.085,-1.769 2.097,-3.59 3.23,-5.32 l 3.449,-5.18 13.785,-20.73 c 4.723,-6.821 9.797,-13.387 14.664,-20.098 l 7.387,-10 7.828,-9.66 7.813,-9.66 c 2.644,-3.18 5.097,-6.532 7.933,-9.559 l 16.524,-18.543 4.133,-4.641 4.347,-4.418 8.692,-8.871 c 11.324,-12.078 23.855,-22.929 35.871,-34.269 24.996,-21.649 50.972,-42.129 78.441,-60.469 3.332,-2.43 6.926,-4.48 10.395,-6.711 l 10.496,-6.558 10.48,-6.571 c 3.559,-2.082 7.184,-4.043 10.774,-6.082 7.215,-3.98 14.336,-8.148 21.597,-12.039 l 22.094,-11.101 c 29.742,-14.129 60.145,-27.0199 91.609,-36.7582 l 11.719,-3.8711 11.895,-3.3086 c 7.941,-2.1406 15.832,-4.4805 23.785,-6.5508 16.086,-3.4687 32.008,-7.6601 48.293,-10.1015 l 12.152,-2.1172 c 4.047,-0.7032 8.09,-1.461 12.188,-1.8711 l 24.488,-2.9922 6.117,-0.75 6.153,-0.4492 12.304,-0.8672 12.305,-0.8906 c 2.051,-0.1211 4.098,-0.3321 6.152,-0.4024 l 6.168,-0.1172 24.66,-0.5703 c 4.114,-0.1914 8.227,-0.0508 12.336,0.0781 l 12.328,0.3321 c 16.461,0.0703 32.829,1.7773 49.219,2.9687 4.113,0.1992 8.168,0.9102 12.246,1.3789 l 12.227,1.5899 12.223,1.5625 c 4.082,0.4882 8.093,1.3984 12.148,2.0703 l 24.258,4.3594 24.008,5.5273 C 1038.6,102 1157.41,168.98 1250.45,262.27 l 17.19,17.75 c 2.94,2.89 5.56,6.07 8.3,9.14 l 8.16,9.281 8.17,9.27 c 2.64,3.16 5.15,6.43 7.74,9.629 5.11,6.469 10.36,12.832 15.36,19.379 9.59,13.402 19.57,26.551 28.34,40.531 9.36,13.602 17.39,28.012 25.84,42.191 4,7.219 7.72,14.59 11.6,21.875 1.91,3.653 3.88,7.286 5.74,10.977 l 5.22,11.223 5.22,11.238 c 1.69,3.762 3.63,7.434 5.09,11.289 l 9.38,22.949 2.35,5.735 c 0.74,1.933 1.39,3.886 2.09,5.828 l 4.14,11.691 c 2.69,7.82 5.72,15.535 7.9,23.516 l 7.12,23.777 c 2.21,7.981 4,16.055 6.03,24.094 l 2.96,12.058 c 0.85,4.055 1.59,8.125 2.39,12.2 l 4.73,24.402 3.54,24.629 c 0.55,4.113 1.3,8.195 1.68,12.324 l 1.15,12.402 c 3.78,33.04 3.66,66.348 3.2,99.641 -2.68,66.531 -14.42,132.801 -34.64,196.641 -20.16,63.93 -50.29,124.67 -87.04,181.25 -2.15,3.64 -4.75,6.97 -7.13,10.45 l -7.31,10.35 -7.31,10.36 c -1.24,1.71 -2.41,3.49 -3.7,5.16 l -3.93,4.97 -15.75,19.91 -3.94,4.98 c -1.33,1.65 -2.79,3.19 -4.17,4.8 l -8.4,9.53 c -21.85,26.01 -46.69,49.28 -71.77,72.39 z"
         id="path38" />
    </clipPath>
    <radialGradient
       fx="0"
       fy="0"
       cx="0"
       cy="0"
       r="1"
       gradientUnits="userSpaceOnUse"
       gradientTransform="matrix(1220.77,-671.16,-671.16,-1220.77,154.773,735.703)"
       spreadMethod="pad"
       id="radialGradient46">
      <stop
         style="stop-opacity:1;stop-color:#f79b10"
         offset="0"
         id="stop42" />
      <stop
         style="stop-opacity:1;stop-color:#6c272f"
         offset="1"
         id="stop44" />
    </radialGradient>
    <clipPath
       clipPathUnits="userSpaceOnUse"
       id="clipPath56">
      <path
         d="m 1124.14,454.852 c -0.99,-1.532 -2.1,-3.008 -3.35,-4.375 -12.51,-13.778 -26.09,-26.567 -40.66,-38.168 -16.18,-12.868 -33.05,-24.719 -51.12,-34.797 -17.62,-9.832 -36.194,-18.121 -55.143,-25.032 -35.992,-13.128 -74.429,-20.16 -112.695,-21.449 -38.102,-1.281 -76.895,3.59 -113.512,14.188 -37.398,10.832 -73.484,27.711 -105.457,49.961 -34.82,24.199 -65.246,53.453 -88.656,88.961 -21.156,32.078 -36.09,69.062 -43.024,106.863 -7.304,39.844 -6.976,80.16 1.391,119.828 7.992,37.859 23.961,74.723 46.234,106.375 24.18,34.363 54.762,64.023 92.368,83.348 35.855,18.437 76.027,28.261 116.398,27.648 40.715,-0.625 81.149,-11.476 116.633,-31.457 36.105,-20.32 68.016,-50.391 87.058,-87.469 9.223,-17.968 16.188,-37.304 19.508,-57.246 1.817,-10.867 3.117,-21.875 3.293,-32.902 0.188,-11.25 -0.949,-22.305 -2.5,-33.426 -5.664,-40.586 -25.312,-79.551 -53.89,-108.859 -30,-30.75 -71.707,-48.496 -114.559,-49.656 -43.199,-1.172 -85.934,15.566 -117.383,45.039 -16.566,15.527 -28.633,35.3 -35.965,56.699 -7.296,21.308 -8.125,43.758 -4.945,65.859 2.863,19.883 10.941,39.774 22.738,56.035 6.848,9.422 14.215,18.321 23.414,25.535 5.106,3.997 10.207,7.911 15.852,11.106 5.719,3.23 11.82,5.801 17.934,8.164 20.632,7.988 43.984,8.672 65.449,3.953 10.722,-2.351 21.293,-6.64 30.836,-12.031 9.754,-5.508 19.211,-12.684 26.703,-21.043 16.305,-18.184 25.832,-41.555 25.836,-66.094 0.008,-24.805 -9.727,-48.086 -26.149,-66.445 -4.609,-5.156 -11.738,-7.336 -18.429,-7.637 -6.938,-0.305 -13.457,3.074 -18.422,7.637 -4.793,4.402 -7.629,12.031 -7.629,18.426 0,7.062 3.016,13.261 7.629,18.418 0.551,0.617 1.054,1.273 1.586,1.898 2.195,3.16 4.129,6.481 5.808,9.938 1.371,3.789 2.442,7.668 3.188,11.632 0.332,4.071 0.332,8.153 0,12.235 -0.75,3.996 -1.836,7.91 -3.235,11.738 -1.652,3.418 -3.562,6.68 -5.718,9.805 -2.86,3.34 -5.973,6.398 -9.328,9.23 -4.473,3.192 -9.2,5.965 -14.164,8.309 -5.243,1.953 -10.622,3.429 -16.122,4.414 -5.687,0.531 -11.39,0.531 -17.078,0 -5.562,-0.985 -10.996,-2.469 -16.277,-4.453 -4.836,-2.285 -9.441,-4.969 -13.805,-8.055 -4.597,-3.859 -8.781,-8.137 -12.613,-12.746 -4.391,-6.055 -8.168,-12.488 -11.305,-19.277 -2.703,-7.071 -4.691,-14.364 -5.957,-21.813 -0.761,-7.68 -0.758,-15.375 0.016,-23.031 1.269,-7.488 3.269,-14.813 5.984,-21.903 3.063,-6.621 6.739,-12.921 11.004,-18.847 5.164,-6.242 10.949,-11.875 17.227,-17.004 7.91,-5.797 16.359,-10.75 25.289,-14.805 9.652,-3.769 19.656,-6.484 29.898,-8.086 9.836,-0.984 19.723,-0.937 29.559,0.117 9.672,1.575 19.14,4.114 28.285,7.618 9.051,4.043 17.621,9.015 25.637,14.836 8.625,7.023 16.34,14.988 23.281,23.679 7.352,10.059 13.625,20.832 18.719,32.2 4.847,12.214 8.308,24.921 10.351,37.898 1.485,13.254 1.485,26.613 -0.004,39.855 -2.047,13.047 -5.527,25.801 -10.402,38.067 -5.176,11.551 -11.566,22.5 -19.082,32.683 -8.73,10.813 -18.688,20.473 -29.52,29.161 -13.32,9.953 -27.703,18.378 -42.91,25.109 -15.738,6.316 -32.14,10.789 -48.902,13.348 -17.102,1.992 -34.367,1.992 -51.469,0.011 -16.929,-2.578 -33.496,-7.09 -49.383,-13.476 -14.992,-6.653 -29.179,-14.942 -42.328,-24.739 -14.008,-11.21 -26.465,-24.101 -37.633,-38.132 -12.746,-16.953 -23.503,-35.305 -32.039,-54.719 -8.222,-20.234 -13.996,-41.367 -17.222,-62.965 -2.645,-21.976 -2.653,-44.184 -0.02,-66.164 3.235,-21.719 9.028,-42.98 17.289,-63.32 8.449,-19.239 19.074,-37.442 31.672,-54.258 14.363,-18.078 30.969,-34.121 49.07,-48.43 21.575,-16.297 44.993,-30.008 69.782,-40.816 16.324,-6.68 33.125,-12.121 50.265,-16.211 39.649,-4.391 79.746,-5.02 119.375,-0.149 29.914,4.258 59.321,11.77 87.305,23.2 12.078,5.269 23.83,11.238 35.15,17.972 7.68,4.864 15.15,10.051 22.42,15.528 15.19,11.953 29.37,25.125 42.37,39.433 1.11,1.219 2.37,2.274 3.72,3.172 1.51,1.777 3.05,3.535 4.52,5.352 1.04,1.269 2.06,2.57 3.08,3.859 0.16,0.207 0.33,0.41 0.48,0.625 2.28,3.035 4.5,6.102 6.66,9.219 4.36,6.269 8.48,12.683 12.38,19.246 7.42,12.492 13.96,25.48 19.75,38.801 13.51,32.82 22.27,67.402 27.19,102.519 4.92,39.356 5.59,79.422 0.77,118.809 -5,35.34 -14.4,69.941 -28.03,102.937 -8.99,20.715 -19.57,40.715 -31.73,59.739 -5.7,8.937 -11.74,17.644 -18.1,26.132 -0.63,0.829 -1.27,1.668 -1.9,2.5 -1.56,1.993 -3.14,3.965 -4.74,5.93 -3.28,4.02 -6.63,7.984 -10.06,11.891 -13.94,15.895 -29.06,30.735 -45.2,44.375 -4.02,3.41 -8.13,6.72 -12.27,9.99 -0.86,0.65 -1.73,1.32 -2.6,1.96 -1.93,1.45 -3.88,2.89 -5.84,4.29 -8.598,6.21 -17.43,12.09 -26.469,17.64 -17.274,10.59 -35.321,19.87 -53.926,27.9 -32.504,13.34 -66.551,22.61 -101.332,27.59 -35.457,4.41 -71.375,4.41 -106.836,0 -35.074,-5.03 -69.402,-14.4 -102.152,-27.91 -20.711,-9 -40.711,-19.57 -59.739,-31.73 -8.929,-5.71 -17.644,-11.75 -26.128,-18.11 -0.833,-0.62 -1.668,-1.27 -2.508,-1.9 -1.989,-1.56 -3.965,-3.14 -5.922,-4.74 -4.024,-3.28 -7.988,-6.63 -11.895,-10.06 -15.886,-13.93 -30.734,-29.06 -44.383,-45.194 -3.402,-4.031 -6.718,-8.133 -9.984,-12.273 -0.652,-0.871 -1.312,-1.731 -1.961,-2.598 -1.445,-1.933 -2.879,-3.887 -4.289,-5.84 -6.203,-8.605 -12.09,-17.433 -17.633,-26.476 -10.593,-17.274 -19.871,-35.321 -27.902,-53.926 -13.34,-32.5 -22.606,-66.551 -27.59,-101.336 -2.199,-17.715 -3.348,-35.547 -3.375,-53.41 -0.019,-14.305 -11.672,-24.891 -25.512,-25.516 -13.769,-0.617 -25.531,12.168 -25.515,25.516 0.023,17.375 1.047,34.738 3.152,51.984 8.695,71.18 33.149,139.883 73.594,199.324 39.465,58.005 91.93,106.935 153.211,141.255 63.48,35.55 135.269,55.16 207.984,57.18 72.934,2.01 145.574,-14.24 211.047,-46.25 63.623,-31.11 118.323,-77.85 161.053,-134.09 41.78,-54.97 70.51,-120.731 82.45,-188.747 11.83,-67.414 9.23,-137.93 -6.82,-204.473 -13.92,-57.714 -39.92,-112.343 -78.5,-157.628 z M 766.875,1266.52 c -297.828,0 -539.262,-241.43 -539.262,-539.266 0,-297.82 241.434,-539.254 539.262,-539.254 297.825,0 539.255,241.434 539.255,539.254 0,297.836 -241.43,539.266 -539.255,539.266 z"
         id="path54" />
    </clipPath>
    <radialGradient
       fx="0"
       fy="0"
       cx="0"
       cy="0"
       r="1"
       gradientUnits="userSpaceOnUse"
       gradientTransform="matrix(539.259,0,0,-539.259,766.874,727.259)"
       spreadMethod="pad"
       id="radialGradient62">
      <stop
         style="stop-opacity:1;stop-color:#f79b10"
         offset="0"
         id="stop58" />
      <stop
         style="stop-opacity:1;stop-color:#6c272f"
         offset="1"
         id="stop60" />
    </radialGradient>
    <clipPath
       clipPathUnits="userSpaceOnUse"
       id="clipPath72">
      <path
         d="m 3216.49,314.23 c -8.55,0 -17.09,0 -25.64,0 -256.1,0.032 -512.21,1.879 -768.32,5.86 -256.1,4.191 -512.21,10.012 -768.32,21.23 256.11,11.231 512.22,17.051 768.32,21.239 256.11,3.972 512.22,5.82 768.32,5.863 256.11,0.039 512.22,-1.82 768.32,-5.793 256.11,-4.168 512.22,-10.008 768.33,-21.309 -256.11,-11.289 -512.22,-17.129 -768.33,-21.308 -247.55,-3.84 -495.12,-5.703 -742.68,-5.782"
         id="path70" />
    </clipPath>
    <radialGradient
       fx="0"
       fy="0"
       cx="0"
       cy="0"
       r="1"
       gradientUnits="userSpaceOnUse"
       gradientTransform="matrix(390.431,702.428,608.812,-338.396,3225.2,284.58)"
       spreadMethod="pad"
       id="radialGradient78">
      <stop
         style="stop-opacity:1;stop-color:#6c272f"
         offset="0"
         id="stop74" />
      <stop
         style="stop-opacity:1;stop-color:#f79b10"
         offset="1"
         id="stop76" />
    </radialGradient>
  </defs>
  <sodipodi:namedview
     id="namedview4"
     pagecolor="#ffffff"
     bordercolor="#000000"
     borderopacity="0.25"
     inkscape:showpageshadow="2"
     inkscape:pageopacity="0.0"
     inkscape:pagecheckerboard="0"
     inkscape:deskcolor="#d1d1d1" />
  <g
     id="g8"
     inkscape:groupmode="layer"
     inkscape:label="ink_ext_XXXXXX"
     transform="matrix(1.3333333,0,0,-1.3333333,0,190.14667)">
    <g
       id="g10"
       transform="scale(0.1)">
      <g
         id="g12">
        <g
           id="g14"
           clip-path="url(#clipPath18)">
          <g
             id="g20"
             clip-path="url(#clipPath24)">
            <path
               d="m 651,162 v 1 h -17 v 1 h -10 v 1 h -11 v 1 h -7 v 1 h -8 v 1 h -7 v 1 h -7 v 1 h -5 v 1 h -6 v 1 h -5 v 1 h -5 v 1 h -5 v 1 h -5 v 1 h -4 v 1 h -4 v 1 h -5 v 1 h -4 v 1 h -4 v 1 h -4 v 1 h -4 v 1 h -3 v 1 h -4 v 1 h -3 v 1 h -3 v 1 h -4 v 1 h -3 v 1 h -4 v 1 h -3 v 1 h -3 v 1 h -3 v 1 h -2 v 1 h -3 v 1 h -3 v 1 h -3 v 1 h -2 v 1 h -3 v 1 h -3 v 1 h -3 v 1 h -2 v 1 h -3 v 1 h -3 v 1 h -2 v 1 h -3 v 1 h -2 v 1 h -2 v 1 h -3 v 1 h -2 v 1 h -2 v 1 h -3 v 1 h -2 v 1 h -2 v 1 h -3 v 1 h -2 v 1 h -2 v 1 h -3 v 1 h -2 v 1 h -2 v 1 h -2 v 1 h -2 v 1 h -2 v 1 h -2 v 1 h -2 v 1 h -2 v 1 h -2 v 1 h -2 v 1 h -2 v 1 h -2 v 1 h -2 v 1 h -2 v 1 h -1 v 1 h -2 v 1 h -2 v 1 h -2 v 1 h -2 v 1 h -2 v 1 h -1 v 1 h -2 v 1 h -2 v 1 h -2 v 1 h -2 v 1 h -2 v 1 h -1 v 1 h -2 v 1 h -2 v 1 h -1 v 1 h -2 v 1 h -1 v 1 h -2 v 1 h -2 v 1 h -1 v 1 h -2 v 1 h -2 v 1 h -1 v 1 h -2 v 1 h -2 v 1 h -1 v 1 h -2 v 1 h -1 v 1 h -2 v 1 h -2 v 1 h -1 v 1 h -2 v 1 h -1 v 1 h -2 v 1 h -1 v 1 h -2 v 1 h -1 v 1 h -2 v 1 h -1 v 1 h -2 v 1 h -1 v 1 h -1 v 1 h -2 v 1 h -1 v 1 h -1 v 1 h -2 v 1 h -1 v 1 h -1 v 1 h -2 v 1 h -1 v 1 h -1 v 1 h -2 v 1 h -1 v 1 h -1 v 1 h -2 v 1 h -1 v 1 h -1 v 1 h -2 v 1 h -1 v 1 h -1 v 1 h -2 v 1 h -1 v 1 h -1 v 1 h -1 v 1 h -1 v 1 h -2 v 1 h -1 v 1 h -1 v 1 h -1 v 1 h -1 v 1 h -2 v 1 h -1 v 1 h -1 v 1 h -1 v 1 h -1 v 1 h -1 v 1 h -2 v 1 h -1 v 1 h -1 v 1 h -1 v 1 h -1 v 1 h -1 v 1 h -2 v 1 h -1 v 1 h -1 v 1 h -1 v 1 h -1 v 1 h -1 v 1 h -2 v 1 h -1 v 1 h -1 v 1 h -1 v 1 h -1 v 1 h -1 v 1 h -1 v 1 h -1 v 1 h -1 v 1 h -1 v 1 h -1 v 1 h -1 v 1 h -1 v 1 h -1 v 1 h -1 v 1 h -1 v 1 h -1 v 1 h -1 v 1 h -1 v 1 h -1 v 1 h -1 v 1 h -1 v 1 h -1 v 1 h -1 v 1 h -1 v 1 h -1 v 1 h -1 v 1 h -1 v 1 h -1 v 1 h -1 v 1 h -1 v 1 h -1 v 1 h -1 v 1 h -1 v 1 h -1 v 1 h -1 v 1 h -1 v 1 h -1 v 1 h -1 v 1 h -1 v 1 h -1 v 2 h -1 v 1 h -1 v 1 h -1 v 1 h -1 v 1 h -1 v 1 h -1 v 1 h -1 v 2 h -1 v 1 h -1 v 1 h -1 v 1 h -1 v 1 h -1 v 1 h -1 v 1 h -1 v 2 h -1 v 1 h -1 v 1 h -1 v 1 h -1 v 1 h -1 v 1 h -1 v 1 h -1 v 2 h -1 v 1 h -1 v 1 h -1 v 1 h -1 v 1 h -1 v 2 h -1 v 1 h -1 v 1 h -1 v 2 h -1 v 1 h -1 v 1 h -1 v 2 h -1 v 1 h -1 v 1 h -1 v 2 h -1 v 1 h -1 v 1 h -1 v 2 h -1 v 1 h -1 v 1 h -1 v 2 h -1 v 1 h -1 v 1 h -1 v 1 h -1 v 2 h -1 v 1 h -1 v 1 h -1 v 2 h -1 v 1 h -1 v 1 h -1 v 2 h -1 v 1 h -1 v 2 h -1 v 1 h -1 v 2 h -1 v 2 h -1 v 1 h -1 v 2 h -1 v 1 h -1 v 2 h -1 v 1 h -1 v 2 h -1 v 1 h -1 v 2 h -1 v 1 h -1 v 2 h -1 v 1 h -1 v 2 h -1 v 2 h -1 v 1 h -1 v 2 h -1 v 1 h -1 v 2 h -1 v 1 h -1 v 2 h -1 v 2 h -1 v 1 h -1 v 2 h -1 v 2 h -1 v 2 h -1 v 2 h -1 v 1 h -1 v 2 h -1 v 2 h -1 v 2 h -1 v 2 h -1 v 1 h -1 v 2 h -1 v 2 h -1 v 2 h -1 v 2 h -1 v 1 h -1 v 2 h -1 v 2 h -1 v 2 h -1 v 2 h -1 v 1 h -1 v 3 h -1 v 2 h -1 v 2 h -1 v 2 h -1 v 2 h -1 v 2 h -1 v 2 h -1 v 2 h -1 v 2 h -1 v 2 h -1 v 3 h -1 v 2 h -1 v 2 h -1 v 2 h -1 v 2 h -1 v 2 h -1 v 3 h -1 v 2 h -1 v 3 h -1 v 2 h -1 v 3 h -1 v 2 h -1 v 3 h -1 v 2 h -1 v 3 h -1 v 2 h -1 v 3 h -1 v 2 h -1 v 3 h -1 v 3 h -1 v 3 h -1 v 3 h -1 v 3 h -1 v 3 h -1 v 2 h -1 v 3 h -1 v 3 h -1 v 3 h -1 v 3 h -1 v 4 h -1 v 3 h -1 v 4 h -1 v 3 h -1 v 4 h -1 v 3 h -1 v 4 h -1 v 3 h -1 v 4 h -1 v 4 h -1 v 4 h -1 v 5 h -1 v 4 h -1 v 4 h -1 v 5 h -1 v 5 h -1 v 5 h -1 v 5 h -1 v 6 h -1 v 5 h -1 v 6 h -1 v 7 h -1 v 8 h -1 v 7 h -1 v 8 h -1 v 11 h -1 v 12 h -1 v 16 h -1 v 64 h 1 v 15 h 1 v 13 h 1 v 9 h 1 v 9 h 1 v 8 h 1 v 8 h 1 v 6 h 1 v 5 h 1 v 6 h 1 v 6 h 1 v 6 h 1 v 5 h 1 v 4 h 1 v 5 h 1 v 4 h 1 v 5 h 1 v 4 h 1 v 4 h 1 v 4 h 1 v 4 h 1 v 4 h 1 v 3 h 1 v 4 h 1 v 3 h 1 v 4 h 1 v 3 h 1 v 4 h 1 v 3 h 1 v 3 h 1 v 3 h 1 v 3 h 1 v 3 h 1 v 3 h 1 v 3 h 1 v 3 h 1 v 3 h 1 v 2 h 1 v 3 h 1 v 3 h 1 v 3 h 1 v 2 h 1 v 3 h 1 v 2 h 1 v 3 h 1 v 2 h 1 v 3 h 1 v 2 h 1 v 3 h 1 v 2 h 1 v 2 h 1 v 3 h 1 v 2 h 1 v 2 h 1 v 3 h 1 v 2 h 1 v 2 h 1 v 2 h 1 v 2 h 1 v 3 h 1 v 2 h 1 v 2 h 1 v 2 h 1 v 2 h 1 v 2 h 1 v 2 h 1 v 2 h 1 v 2 h 1 v 2 h 1 v 2 h 1 v 2 h 1 v 2 h 1 v 2 h 1 v 2 h 1 v 2 h 1 v 2 h 1 v 2 h 1 v 1 h 1 v 2 h 1 v 2 h 1 v 2 h 1 v 1 h 1 v 2 h 1 v 2 h 1 v 2 h 1 v 1 h 1 v 2 h 1 v 2 h 1 v 2 h 1 v 1 h 1 v 2 h 1 v 2 h 1 v 1 h 1 v 2 h 1 v 1 h 1 v 2 h 1 v 1 h 1 v 2 h 1 v 2 h 1 v 1 h 1 v 2 h 1 v 1 h 1 v 2 h 1 v 1 h 1 v 2 h 1 v 2 h 1 v 1 h 1 v 2 h 1 v 1 h 1 v 2 h 1 v 1 h 1 v 1 h 1 v 2 h 1 v 1 h 1 v 2 h 1 v 1 h 1 v 1 h 1 v 2 h 1 v 1 h 1 v 2 h 1 v 1 h 1 v 2 h 1 v 1 h 1 v 1 h 1 v 2 h 1 v 1 h 1 v 1 h 1 v 2 h 1 v 1 h 1 v 1 h 1 v 2 h 1 v 1 h 1 v 1 h 1 v 1 h 1 v 2 h 1 v 1 h 1 v 1 h 1 v 2 h 1 v 1 h 1 v 1 h 1 v 1 h 1 v 2 h 1 v 1 h 1 v 1 h 1 v 1 h 1 v 2 h 1 v 1 h 1 v 1 h 1 v 1 h 1 v 1 h 1 v 1 h 1 v 2 h 1 v 1 h 1 v 1 h 1 v 1 h 1 v 1 h 1 v 1 h 1 v 2 h 1 v 1 h 1 v 1 h 1 v 1 h 1 v 1 h 1 v 1 h 1 v 2 h 1 v 1 h 1 v 1 h 1 v 1 h 1 v 1 h 1 v 1 h 1 v 1 h 1 v 1 h 1 v 1 h 1 v 1 h 1 v 1 h 1 v 1 h 1 v 1 h 1 v 2 h 1 v 1 h 1 v 1 h 1 v 1 h 1 v 1 h 1 v 1 h 1 v 1 h 2 v 1 h 1 v 1 h 1 v 1 h 1 v 1 h 1 v 1 h 1 v 1 h 1 v 1 h 1 v 1 h 1 v 1 h 1 v 1 h 1 v 1 h 1 v 1 h 1 v 1 h 1 v 1 h 1 v 1 h 1 v 1 h 1 v 1 h 1 v 1 h 1 v 1 h 1 v 1 h 1 v 1 h 1 v 1 h 1 v 1 h 1 v 1 h 2 v 1 h 1 v 1 h 1 v 1 h 1 v 1 h 1 v 1 h 1 v 1 h 1 v 1 h 2 v 1 h 1 v 1 h 1 v 1 h 1 v 1 h 1 v 1 h 1 v 1 h 2 v 1 h 1 v 1 h 1 v 1 h 1 v 1 h 1 v 1 h 1 v 1 h 1 v 1 h 2 v 1 h 1 v 1 h 1 v 1 h 1 v 1 h 1 v 1 h 2 v 1 h 1 v 1 h 1 v 1 h 1 v 1 h 2 v 1 h 1 v 1 h 1 v 1 h 2 v 1 h 1 v 1 h 1 v 1 h 1 v 1 h 2 v 1 h 1 v 1 h 1 v 1 h 1 v 1 h 2 v 1 h 1 v 1 h 2 v 1 h 1 v 1 h 1 v 1 h 2 v 1 h 1 v 1 h 2 v 1 h 1 v 1 h 1 v 1 h 2 v 1 h 1 v 1 h 2 v 1 h 1 v 1 h 1 v 1 h 2 v 1 h 1 v 1 h 2 v 1 h 1 v 1 h 2 v 1 h 1 v 1 h 2 v 1 h 1 v 1 h 2 v 1 h 2 v 1 h 1 v 1 h 2 v 1 h 1 v 1 h 2 v 1 h 1 v 1 h 2 v 1 h 2 v 1 h 1 v 1 h 2 v 1 h 1 v 1 h 2 v 1 h 2 v 1 h 1 v 1 h 2 v 1 h 2 v 1 h 1 v 1 h 2 v 1 h 2 v 1 h 2 v 1 h 1 v 1 h 2 v 1 h 2 v 1 h 2 v 1 h 2 v 1 h 1 v 1 h 2 v 1 h 2 v 1 h 2 v 1 h 2 v 1 h 2 v 1 h 2 v 1 h 2 v 1 h 2 v 1 h 2 v 1 h 2 v 1 h 2 v 1 h 2 v 1 h 2 v 1 h 2 v 1 h 2 v 1 h 2 v 1 h 2 v 1 h 2 v 1 h 2 v 1 h 3 v 1 h 2 v 1 h 2 v 1 h 2 v 1 h 3 v 1 h 2 v 1 h 2 v 1 h 2 v 1 h 3 v 1 h 2 v 1 h 3 v 1 h 2 v 1 h 3 v 1 h 2 v 1 h 3 v 1 h 3 v 1 h 2 v 1 h 3 v 1 h 2 v 1 h 3 v 1 h 3 v 1 h 3 v 1 h 3 v 1 h 3 v 1 h 3 v 1 h 3 v 1 h 2 v 1 h 3 v 1 h 4 v 1 h 3 v 1 h 3 v 1 h 3 v 1 h 4 v 1 h 3 v 1 h 4 v 1 h 4 v 1 h 4 v 1 h 3 v 1 h 4 v 1 h 4 v 1 h 5 v 1 h 4 v 1 h 4 v 1 h 5 v 1 h 5 v 1 h 5 v 1 h 5 v 1 h 5 v 1 h 6 v 1 h 6 v 1 h 6 v 1 h 7 v 1 h 8 v 1 h 9 v 1 h 8 v 1 h 12 v 1 h 15 v 1 h 74 v -1 h 13 v -1 h 12 v -1 h 10 v -1 h 8 v -1 h 7 v -1 h 8 v -1 h 6 v -1 h 6 v -1 h 6 v -1 h 5 v -1 h 5 v -1 h 5 v -1 h 5 v -1 h 4 v -1 h 5 v -1 h 4 v -1 h 4 v -1 h 4 v -1 h 4 v -1 h 4 v -1 h 4 v -1 h 3 v -1 h 4 v -1 h 4 v -1 h 3 v -1 h 4 v -1 h 3 v -1 h 3 v -1 h 3 v -1 h 3 v -1 h 3 v -1 h 3 v -1 h 3 v -1 h 3 v -1 h 3 v -1 h 3 v -1 h 2 v -1 h 3 v -1 h 3 v -1 h 2 v -1 h 3 v -1 h 2 v -1 h 3 v -1 h 2 v -1 h 3 v -1 h 2 v -1 h 3 v -1 h 2 v -1 h 3 v -1 h 2 v -1 h 2 v -1 h 3 v -1 h 2 v -1 h 2 v -1 h 2 v -1 h 2 v -1 h 2 v -1 h 3 v -1 h 2 v -1 h 2 v -1 h 2 v -1 h 2 v -1 h 2 v -1 h 3 v -1 h 2 v -1 h 2 v -1 h 2 v -1 h 2 v -1 h 2 v -1 h 2 v -1 h 2 v -1 h 1 v -1 h 2 v -1 h 2 v -1 h 2 v -1 h 2 v -1 h 1 v -1 h 2 v -1 h 2 v -1 h 1 v -1 h 2 v -1 h 2 v -1 h 2 v -1 h 1 v -1 h 2 v -1 h 2 v -1 h 2 v -1 h 1 v -1 h 2 v -1 h 2 v -1 h 2 v -1 h 1 v -1 h 2 v -1 h 1 v -1 h 2 v -1 h 1 v -1 h 2 v -1 h 1 v -1 h 2 v -1 h 2 v -1 h 1 v -1 h 2 v -1 h 1 v -1 h 2 v -1 h 1 v -1 h 2 v -1 h 1 v -1 h 2 v -1 h 1 v -1 h 2 v -1 h 1 v -1 h 2 v -1 h 1 v -1 h 2 v -1 h 1 v -1 h 2 v -1 h 1 v -1 h 1 v -1 h 2 v -1 h 1 v -1 h 1 v -1 h 2 v -1 h 1 v -1 h 2 v -1 h 1 v -1 h 1 v -1 h 1 v -1 h 2 v -1 h 1 v -1 h 1 v -1 h 1 v -1 h 2 v -1 h 1 v -1 h 1 v -1 h 1 v -1 h 2 v -1 h 1 v -1 h 1 v -1 h 1 v -1 h 2 v -1 h 1 v -1 h 1 v -1 h 1 v -1 h 2 v -1 h 1 v -1 h 1 v -1 h 1 v -1 h 1 v -1 h 1 v -1 h 1 v -1 h 2 v -1 h 1 v -1 h 1 v -1 h 1 v -1 h 1 v -1 h 1 v -1 h 1 v -1 h 1 v -1 h 2 v -1 h 1 v -1 h 1 v -1 h 1 v -1 h 1 v -1 h 1 v -1 h 1 v -1 h 1 v -1 h 1 v -1 h 2 v -1 h 1 v -1 h 1 v -1 h 1 v -1 h 1 v -1 h 1 v -1 h 1 v -1 h 1 v -1 h 1 v -1 h 1 v -1 h 1 v -1 h 1 v -1 h 1 v -1 h 1 v -1 h 1 v -1 h 1 v -1 h 1 v -1 h 1 v -1 h 1 v -1 h 1 v -1 h 1 v -1 h 1 v -1 h 1 v -1 h 1 v -1 h 1 v -1 h 1 v -1 h 1 v -1 h 1 v -1 h 1 v -1 h 1 v -1 h 1 v -1 h 1 v -1 h 1 v -2 h 1 v -1 h 1 v -1 h 1 v -1 h 1 v -1 h 1 v -1 h 1 v -1 h 1 v -1 h 1 v -1 h 1 v -1 h 1 v -1 h 1 v -2 h 1 v -1 h 1 v -1 h 1 v -1 h 1 v -1 h 1 v -1 h 1 v -2 h 1 v -1 h 1 v -1 h 1 v -1 h 1 v -1 h 1 v -2 h 1 v -1 h 1 v -1 h 1 v -1 h 1 v -1 h 1 v -1 h 1 v -2 h 1 v -1 h 1 v -1 h 1 v -1 h 1 v -2 h 1 v -1 h 1 v -1 h 1 v -2 h 1 v -1 h 1 v -1 h 1 v -2 h 1 v -1 h 1 v -1 h 1 v -2 h 1 v -1 h 1 v -1 h 1 v -2 h 1 v -1 h 1 v -1 h 1 v -2 h 1 v -1 h 1 v -2 h 1 v -1 h 1 v -1 h 1 v -2 h 1 v -1 h 1 v -2 h 1 v -1 h 1 v -2 h 1 v -1 h 1 v -1 h 1 v -2 h 1 v -1 h 1 v -2 h 1 v -1 h 1 v -2 h 1 v -2 h 1 v -1 h 1 v -2 h 1 v -1 h 1 v -2 h 1 v -1 h 1 v -2 h 1 v -2 h 1 v -1 h 1 v -2 h 1 v -1 h 1 v -2 h 1 v -2 h 1 v -1 h 1 v -2 h 1 v -2 h 1 v -2 h 1 v -1 h 1 v -2 h 1 v -2 h 1 v -1 h 1 v -2 h 1 v -2 h 1 v -2 h 1 v -1 h 1 v -2 h 1 v -2 h 1 v -2 h 1 v -2 h 1 v -2 h 1 v -2 h 1 v -2 h 1 v -2 h 1 v -2 h 1 v -2 h 1 v -2 h 1 v -2 h 1 v -2 h 1 v -2 h 1 v -2 h 1 v -2 h 1 v -2 h 1 v -2 h 1 v -2 h 1 v -2 h 1 v -3 h 1 v -2 h 1 v -2 h 1 v -2 h 1 v -2 h 1 v -3 h 1 v -2 h 1 v -2 h 1 v -3 h 1 v -2 h 1 v -3 h 1 v -2 h 1 v -3 h 1 v -2 h 1 v -3 h 1 v -3 h 1 v -2 h 1 v -3 h 1 v -3 h 1 v -3 h 1 v -3 h 1 v -3 h 1 v -3 h 1 v -3 h 1 v -3 h 1 v -3 h 1 v -3 h 1 v -3 h 1 v -3 h 1 v -4 h 1 v -4 h 1 v -3 h 1 v -4 h 1 v -3 h 1 v -4 h 1 v -4 h 1 v -3 h 1 v -4 h 1 v -4 h 1 v -4 h 1 v -5 h 1 v -5 h 1 v -6 h 1 v -5 h 1 v -6 h 1 v -6 h 1 v -5 h 1 v -6 h 1 v -8 h 1 v -9 h 1 v -8 h 1 v -8 h 1 v -12 h -1 v 5 h -1 v 5 h -1 v 5 h -1 v 5 h -1 v 4 h -1 v 5 h -1 v 5 h -1 v 5 h -1 v 4 h -1 v 4 h -1 v 4 h -1 v 4 h -1 v 3 h -1 v 4 h -1 v 4 h -1 v 4 h -1 v 4 h -1 v 3 h -1 v 4 h -1 v 3 h -1 v 3 h -1 v 3 h -1 v 3 h -1 v 3 h -1 v 3 h -1 v 3 h -1 v 3 h -1 v 2 h -1 v 3 h -1 v 3 h -1 v 3 h -1 v 3 h -1 v 2 h -1 v 3 h -1 v 3 h -1 v 2 h -1 v 3 h -1 v 2 h -1 v 3 h -1 v 2 h -1 v 2 h -1 v 3 h -1 v 2 h -1 v 2 h -1 v 3 h -1 v 2 h -1 v 3 h -1 v 2 h -1 v 2 h -1 v 2 h -1 v 3 h -1 v 2 h -1 v 2 h -1 v 2 h -1 v 2 h -1 v 2 h -1 v 2 h -1 v 2 h -1 v 2 h -1 v 2 h -1 v 2 h -1 v 2 h -1 v 2 h -1 v 2 h -1 v 2 h -1 v 2 h -1 v 1 h -1 v 2 h -1 v 2 h -1 v 2 h -1 v 2 h -1 v 2 h -1 v 2 h -1 v 1 h -1 v 2 h -1 v 2 h -1 v 1 h -1 v 2 h -1 v 2 h -1 v 2 h -1 v 1 h -1 v 2 h -1 v 2 h -1 v 1 h -1 v 2 h -1 v 2 h -1 v 1 h -1 v 2 h -1 v 2 h -1 v 1 h -1 v 2 h -1 v 1 h -1 v 2 h -1 v 1 h -1 v 2 h -1 v 1 h -1 v 2 h -1 v 1 h -1 v 2 h -1 v 1 h -1 v 2 h -1 v 1 h -1 v 2 h -1 v 1 h -1 v 2 h -1 v 1 h -1 v 2 h -1 v 1 h -1 v 1 h -1 v 2 h -1 v 1 h -1 v 1 h -1 v 2 h -1 v 1 h -1 v 2 h -1 v 1 h -1 v 1 h -1 v 2 h -1 v 1 h -1 v 1 h -1 v 2 h -1 v 1 h -1 v 1 h -1 v 1 h -1 v 2 h -1 v 1 h -1 v 1 h -1 v 1 h -1 v 2 h -1 v 1 h -1 v 1 h -1 v 1 h -1 v 2 h -1 v 1 h -1 v 1 h -1 v 1 h -1 v 1 h -1 v 2 h -1 v 1 h -1 v 1 h -1 v 1 h -1 v 1 h -1 v 2 h -1 v 1 h -1 v 1 h -1 v 1 h -1 v 1 h -1 v 1 h -1 v 2 h -1 v 1 h -1 v 1 h -1 v 1 h -1 v 1 h -1 v 1 h -1 v 1 h -1 v 1 h -1 v 1 h -1 v 1 h -1 v 1 h -1 v 1 h -1 v 1 h -1 v 2 h -1 v 1 h -1 v 1 h -1 v 1 h -1 v 1 h -1 v 1 h -1 v 1 h -1 v 1 h -1 v 1 h -1 v 1 h -1 v 1 h -1 v 1 h -1 v 1 h -1 v 1 h -1 v 1 h -1 v 1 h -1 v 1 h -1 v 1 h -1 v 1 h -1 v 1 h -1 v 1 h -1 v 1 h -1 v 1 h -1 v 1 h -1 v 1 h -1 v 1 h -1 v 1 h -1 v 1 h -1 v 1 h -1 v 1 h -1 v 1 h -1 v 1 h -2 v 1 h -1 v 1 h -1 v 1 h -1 v 1 h -1 v 1 h -1 v 1 h -1 v 1 h -1 v 1 h -1 v 1 h -1 v 1 h -1 v 1 h -2 v 1 h -1 v 1 h -1 v 1 h -1 v 1 h -1 v 1 h -1 v 1 h -2 v 1 h -1 v 1 h -1 v 1 h -1 v 1 h -2 v 1 h -1 v 1 h -1 v 1 h -1 v 1 h -1 v 1 h -2 v 1 h -1 v 1 h -1 v 1 h -1 v 1 h -2 v 1 h -1 v 1 h -1 v 1 h -1 v 1 h -2 v 1 h -1 v 1 h -1 v 1 h -1 v 1 h -2 v 1 h -1 v 1 h -1 v 1 h -2 v 1 h -1 v 1 h -1 v 1 h -2 v 1 h -1 v 1 h -2 v 1 h -1 v 1 h -1 v 1 h -2 v 1 h -1 v 1 h -2 v 1 h -1 v 1 h -1 v 1 h -2 v 1 h -1 v 1 h -2 v 1 h -1 v 1 h -1 v 1 h -2 v 1 h -1 v 1 h -2 v 1 h -1 v 1 h -2 v 1 h -1 v 1 h -2 v 1 h -1 v 1 h -2 v 1 h -2 v 1 h -1 v 1 h -2 v 1 h -2 v 1 h -1 v 1 h -2 v 1 h -2 v 1 h -1 v 1 h -2 v 1 h -2 v 1 h -1 v 1 h -2 v 1 h -2 v 1 h -1 v 1 h -2 v 1 h -2 v 1 h -1 v 1 h -2 v 1 h -2 v 1 h -2 v 1 h -2 v 1 h -2 v 1 h -1 v 1 h -2 v 1 h -2 v 1 h -2 v 1 h -2 v 1 h -2 v 1 h -2 v 1 h -2 v 1 h -2 v 1 h -2 v 1 h -1 v 1 h -2 v 1 h -2 v 1 h -2 v 1 h -2 v 1 h -2 v 1 h -3 v 1 h -2 v 1 h -2 v 1 h -2 v 1 h -3 v 1 h -2 v 1 h -2 v 1 h -3 v 1 h -2 v 1 h -3 v 1 h -2 v 1 h -2 v 1 h -3 v 1 h -2 v 1 h -3 v 1 h -2 v 1 h -2 v 1 h -3 v 1 h -3 v 1 h -3 v 1 h -3 v 1 h -2 v 1 h -3 v 1 h -3 v 1 h -3 v 1 h -3 v 1 h -2 v 1 h -3 v 1 h -3 v 1 h -3 v 1 h -3 v 1 h -3 v 1 h -4 v 1 h -3 v 1 h -4 v 1 h -3 v 1 h -4 v 1 h -4 v 1 h -4 v 1 h -4 v 1 h -4 v 1 h -4 v 1 h -5 v 1 h -5 v 1 h -5 v 1 h -5 v 1 h -5 v 1 h -5 v 1 h -5 v 1 h -5 v 1 h -7 v 1 h -8 v 1 h -8 v 1 h -8 v 1 h -8 v 1 h -10 v 1 h -18 v 1 h -18 v 1 h -12 v -1 h -39 v -1 h -12 v -1 h -12 v -1 h -12 v -1 h -6 v -1 h -7 v -1 h -6 v -1 h -7 v -1 h -6 v -1 h -7 v -1 h -5 v -1 h -5 v -1 h -5 v -1 h -4 v -1 h -5 v -1 h -5 v -1 h -4 v -1 h -4 v -1 h -4 v -1 h -3 v -1 h -4 v -1 h -3 v -1 h -4 v -1 h -3 v -1 h -4 v -1 h -3 v -1 h -3 v -1 h -4 v -1 h -3 v -1 h -3 v -1 h -3 v -1 h -3 v -1 h -2 v -1 h -3 v -1 h -3 v -1 h -3 v -1 h -3 v -1 h -3 v -1 h -2 v -1 h -3 v -1 h -2 v -1 h -3 v -1 h -2 v -1 h -3 v -1 h -2 v -1 h -3 v -1 h -2 v -1 h -3 v -1 h -2 v -1 h -2 v -1 h -3 v -1 h -2 v -1 h -2 v -1 h -2 v -1 h -2 v -1 h -3 v -1 h -2 v -1 h -2 v -1 h -2 v -1 h -2 v -1 h -2 v -1 h -2 v -1 h -2 v -1 h -2 v -1 h -2 v -1 h -2 v -1 h -2 v -1 h -2 v -1 h -2 v -1 h -2 v -1 h -2 v -1 h -1 v -1 h -2 v -1 h -2 v -1 h -2 v -1 h -2 v -1 h -1 v -1 h -2 v -1 h -2 v -1 h -2 v -1 h -1 v -1 h -2 v -1 h -2 v -1 h -2 v -1 h -1 v -1 h -2 v -1 h -2 v -1 h -1 v -1 h -2 v -1 h -1 v -1 h -2 v -1 h -2 v -1 h -1 v -1 h -2 v -1 h -1 v -1 h -2 v -1 h -1 v -1 h -2 v -1 h -1 v -1 h -2 v -1 h -1 v -1 h -2 v -1 h -2 v -1 h -1 v -1 h -2 v -1 h -1 v -1 h -2 v -1 h -1 v -1 h -1 v -1 h -2 v -1 h -1 v -1 h -2 v -1 h -1 v -1 h -1 v -1 h -2 v -1 h -1 v -1 h -2 v -1 h -1 v -1 h -1 v -1 h -2 v -1 h -1 v -1 h -1 v -1 h -2 v -1 h -1 v -1 h -1 v -1 h -1 v -1 h -2 v -1 h -1 v -1 h -1 v -1 h -1 v -1 h -2 v -1 h -1 v -1 h -1 v -1 h -1 v -1 h -2 v -1 h -1 v -1 h -1 v -1 h -1 v -1 h -2 v -1 h -1 v -1 h -1 v -1 h -1 v -1 h -1 v -1 h -1 v -1 h -1 v -1 h -2 v -1 h -1 v -1 h -1 v -1 h -1 v -1 h -1 v -1 h -1 v -1 h -1 v -1 h -2 v -1 h -1 v -1 h -1 v -1 h -1 v -1 h -1 v -1 h -1 v -1 h -1 v -1 h -2 v -1 h -1 v -1 h -1 v -1 h -1 v -1 h -1 v -1 h -1 v -1 h -1 v -1 h -1 v -1 h -1 v -1 h -1 v -1 h -1 v -1 h -1 v -1 h -1 v -1 h -1 v -1 h -1 v -1 h -1 v -1 h -1 v -1 h -1 v -1 h -1 v -1 h -1 v -1 h -1 v -1 h -1 v -1 h -1 v -1 h -1 v -1 h -1 v -1 h -1 v -1 h -1 v -1 h -1 v -1 h -1 v -1 h -1 v -1 h -1 v -1 h -1 v -1 h -1 v -1 h -1 v -1 h -1 v -2 h -1 v -1 h -1 v -1 h -1 v -1 h -1 v -1 h -1 v -1 h -1 v -1 h -1 v -1 h -1 v -2 h -1 v -1 h -1 v -1 h -1 v -1 h -1 v -1 h -1 v -1 h -1 v -2 h -1 v -1 h -1 v -1 h -1 v -1 h -1 v -1 h -1 v -1 h -1 v -2 h -1 v -1 h -1 v -1 h -1 v -1 h -1 v -1 h -1 v -2 h -1 v -1 h -1 v -1 h -1 v -2 h -1 v -1 h -1 v -1 h -1 v -2 h -1 v -1 h -1 v -1 h -1 v -1 h -1 v -2 h -1 v -1 h -1 v -1 h -1 v -2 h -1 v -1 h -1 v -1 h -1 v -2 h -1 v -1 h -1 v -1 h -1 v -2 h -1 v -1 h -1 v -1 h -1 v -2 h -1 v -1 h -1 v -1 h -1 v -2 h -1 v -1 h -1 v -2 h -1 v -1 h -1 v -2 h -1 v -1 h -1 v -2 h -1 v -1 h -1 v -2 h -1 v -2 h -1 v -1 h -1 v -2 h -1 v -1 h -1 v -2 h -1 v -1 h -1 v -2 h -1 v -1 h -1 v -2 h -1 v -1 h -1 v -2 h -1 v -1 h -1 v -2 h -1 v -1 h -1 v -2 h -1 v -2 h -1 v -2 h -1 v -2 h -1 v -1 h -1 v -2 h -1 v -2 h -1 v -2 h -1 v -1 h -1 v -2 h -1 v -2 h -1 v -2 h -1 v -2 h -1 v -1 h -1 v -2 h -1 v -2 h -1 v -2 h -1 v -2 h -1 v -1 h -1 v -2 h -1 v -2 h -1 v -2 h -1 v -2 h -1 v -2 h -1 v -3 h -1 v -2 h -1 v -2 h -1 v -2 h -1 v -2 h -1 v -2 h -1 v -2 h -1 v -2 h -1 v -3 h -1 v -2 h -1 v -2 h -1 v -2 h -1 v -2 h -1 v -2 h -1 v -2 h -1 v -3 h -1 v -3 h -1 v -2 h -1 v -3 h -1 v -2 h -1 v -3 h -1 v -2 h -1 v -3 h -1 v -3 h -1 v -2 h -1 v -3 h -1 v -2 h -1 v -3 h -1 v -3 h -1 v -2 h -1 v -3 h -1 v -4 h -1 v -3 h -1 v -3 h -1 v -3 h -1 v -4 h -1 v -3 h -1 v -3 h -1 v -3 h -1 v -4 h -1 v -3 h -1 v -3 h -1 v -4 h -1 v -4 h -1 v -4 h -1 v -4 h -1 v -4 h -1 v -4 h -1 v -4 h -1 v -4 h -1 v -6 h -1 v -5 h -1 v -5 h -1 v -5 h -1 v -6 h -1 v -6 h -1 v -7 h -1 v -7 h -1 v -8 h -1 v -8 h -1 v -12 h -1 v -12 h -1 v -23 h -1 v -36 h 1 v -21 h 1 v -15 h 1 v -8 h 1 v -8 h 1 v -8 h 1 v -8 h 1 v -7 h 1 v -6 h 1 v -5 h 1 v -6 h 1 v -5 h 1 v -6 h 1 v -5 h 1 v -5 h 1 v -4 h 1 v -4 h 1 v -5 h 1 v -3 h 1 v -4 h 1 v -4 h 1 v -4 h 1 v -4 h 1 v -4 h 1 v -3 h 1 v -3 h 1 v -3 h 1 v -4 h 1 v -3 h 1 v -3 h 1 v -3 h 1 v -3 h 1 v -3 h 1 v -3 h 1 v -3 h 1 v -3 h 1 v -2 h 1 v -3 h 1 v -3 h 1 v -3 h 1 v -2 h 1 v -3 h 1 v -3 h 1 v -2 h 1 v -2 h 1 v -3 h 1 v -2 h 1 v -2 h 1 v -3 h 1 v -2 h 1 v -2 h 1 v -3 h 1 v -2 h 1 v -2 h 1 v -3 h 1 v -2 h 1 v -2 h 1 v -2 h 1 v -2 h 1 v -2 h 1 v -2 h 1 v -2 h 1 v -2 h 1 v -2 h 1 v -2 h 1 v -2 h 1 v -2 h 1 v -2 h 1 v -2 h 1 v -2 h 1 v -2 h 1 v -2 h 1 v -2 h 1 v -2 h 1 v -2 h 1 v -2 h 1 v -1 h 1 v -2 h 1 v -2 h 1 v -1 h 1 v -2 h 1 v -2 h 1 v -1 h 1 v -2 h 1 v -2 h 1 v -1 h 1 v -2 h 1 v -2 h 1 v -1 h 1 v -2 h 1 v -2 h 1 v -1 h 1 v -2 h 1 v -2 h 1 v -1 h 1 v -2 h 1 v -2 h 1 v -1 h 1 v -2 h 1 v -1 h 1 v -2 h 1 v -1 h 1 v -2 h 1 v -1 h 1 v -1 h 1 v -2 h 1 v -1 h 1 v -2 h 1 v -1 h 1 v -2 h 1 v -1 h 1 v -2 h 1 v -1 h 1 v -1 h 1 v -2 h 1 v -1 h 1 v -2 h 1 v -1 h 1 v -2 h 1 v -1 h 1 v -1 h 1 v -2 h 1 v -1 h 1 v -1 h 1 v -2 h 1 v -1 h 1 v -1 h 1 v -1 h 1 v -2 h 1 v -1 h 1 v -1 h 1 v -1 h 1 v -2 h 1 v -1 h 1 v -1 h 1 v -1 h 1 v -2 h 1 v -1 h 1 v -1 h 1 v -1 h 1 v -2 h 1 v -1 h 1 v -1 h 1 v -1 h 1 v -2 h 1 v -1 h 1 v -1 h 1 v -1 h 1 v -2 h 1 v -1 h 1 v -1 h 1 v -1 h 1 v -1 h 1 v -1 h 1 v -1 h 1 v -1 h 1 v -1 h 1 v -1 h 1 v -1 h 1 v -2 h 1 v -1 h 1 v -1 h 1 v -1 h 1 v -1 h 1 v -1 h 1 v -1 h 1 v -1 h 1 v -1 h 1 v -1 h 1 v -1 h 1 v -1 h 1 v -2 h 1 v -1 h 1 v -1 h 1 v -1 h 1 v -1 h 1 v -1 h 1 v -1 h 1 v -1 h 1 v -1 h 1 v -1 h 1 v -1 h 1 v -1 h 1 v -1 h 1 v -1 h 1 v -1 h 1 v -1 h 1 v -1 h 2 v -1 h 1 v -1 h 1 v -1 h 1 v -1 h 1 v -1 h 1 v -1 h 1 v -1 h 1 v -1 h 1 v -1 h 1 v -1 h 1 v -1 h 1 v -1 h 1 v -1 h 1 v -1 h 1 v -1 h 1 v -1 h 2 v -1 h 1 v -1 h 1 v -1 h 1 v -1 h 1 v -1 h 1 v -1 h 1 v -1 h 1 v -1 h 2 v -1 h 1 v -1 h 1 v -1 h 1 v -1 h 1 v -1 h 2 v -1 h 1 v -1 h 1 v -1 h 1 v -1 h 1 v -1 h 2 v -1 h 1 v -1 h 1 v -1 h 1 v -1 h 1 v -1 h 1 v -1 h 2 v -1 h 1 v -1 h 1 v -1 h 2 v -1 h 1 v -1 h 1 v -1 h 2 v -1 h 1 v -1 h 1 v -1 h 1 v -1 h 2 v -1 h 1 v -1 h 2 v -1 h 1 v -1 h 1 v -1 h 2 v -1 h 1 v -1 h 2 v -1 h 1 v -1 h 2 v -1 h 1 v -1 h 1 v -1 h 2 v -1 h 1 v -1 h 2 v -1 h 1 v -1 h 2 v -1 h 1 v -1 h 1 v -1 h 2 v -1 h 1 v -1 h 2 v -1 h 1 v -1 h 2 v -1 h 1 v -1 h 2 v -1 h 2 v -1 h 1 v -1 h 2 v -1 h 1 v -1 h 2 v -1 h 2 v -1 h 1 v -1 h 2 v -1 h 1 v -1 h 2 v -1 h 2 v -1 h 1 v -1 h 2 v -1 h 1 v -1 h 2 v -1 h 2 v -1 h 1 v -1 h 2 v -1 h 2 v -1 h 2 v -1 h 1 v -1 h 2 v -1 h 2 v -1 h 2 v -1 h 2 v -1 h 2 v -1 h 2 v -1 h 2 v -1 h 2 v -1 h 2 v -1 h 2 v -1 h 2 v -1 h 2 v -1 h 2 v -1 h 2 v -1 h 2 v -1 h 2 v -1 h 2 v -1 h 2 v -1 h 2 v -1 h 2 v -1 h 2 v -1 h 3 v -1 h 2 v -1 h 2 v -1 h 2 v -1 h 3 v -1 h 2 v -1 h 2 v -1 h 3 v -1 h 2 v -1 h 2 v -1 h 2 v -1 h 3 v -1 h 2 v -1 h 2 v -1 h 3 v -1 h 2 v -1 h 3 v -1 h 3 v -1 h 3 v -1 h 3 v -1 h 2 v -1 h 3 v -1 h 3 v -1 h 3 v -1 h 3 v -1 h 3 v -1 h 3 v -1 h 3 v -1 h 3 v -1 h 3 v -1 h 4 v -1 h 3 v -1 h 4 v -1 h 3 v -1 h 4 v -1 h 3 v -1 h 4 v -1 h 3 v -1 h 4 v -1 h 4 v -1 h 4 v -1 h 4 v -1 h 4 v -1 h 5 v -1 h 5 v -1 h 6 v -1 h 5 v -1 h 5 v -1 h 5 v -1 h 6 v -1 h 6 v -1 h 7 v -1 h 7 v -1 h 7 v -1 h 7 v -1 h 7 v -1"
               style="fill:url(#radialGradient30);fill-opacity:1;fill-rule:nonzero;stroke:none"
               id="path32" />
          </g>
        </g>
      </g>
      <g
         id="g34">
        <g
           id="g36"
           clip-path="url(#clipPath40)">
          <path
             d="m 1205.99,1332.08 20.13,-15.78 10.05,-7.96 c 3.33,-2.68 6.43,-5.61 9.66,-8.41 l 19.22,-16.99 c 3.29,-2.76 6.19,-5.91 9.28,-8.87 l 9.15,-9.02 9.12,-9.07 c 1.5,-1.53 3.08,-2.99 4.52,-4.57 l 4.3,-4.78 17.22,-19.14 4.31,-4.79 c 1.42,-1.62 2.71,-3.32 4.08,-4.99 l 8.08,-10.03 8.09,-10.04 c 2.65,-3.39 5.52,-6.62 7.94,-10.18 l 15.08,-20.96 c 2.48,-3.52 5.11,-6.95 7.45,-10.57 l 6.9,-10.93 13.81,-21.89 12.61,-22.61 6.31,-11.33 c 2.14,-3.76 3.84,-7.74 5.79,-11.59 l 11.34,-23.34 c 1.99,-3.86 3.6,-7.87 5.27,-11.86 l 5.02,-11.98 5.02,-11.99 2.5,-6 c 0.83,-2 1.48,-4.07 2.23,-6.1 24.06,-65.033 39.3,-133.576 44.66,-203.107 l 1.25,-26.113 c 0.39,-8.711 0.98,-17.434 0.69,-26.152 l -0.24,-26.184 c -0.21,-8.731 -0.95,-17.43 -1.41,-26.152 l -0.79,-13.086 c -0.26,-4.364 -0.89,-8.692 -1.33,-13.036 l -2.9,-26.085 c -1.31,-8.641 -2.75,-17.274 -4.16,-25.907 -0.73,-4.316 -1.4,-8.644 -2.18,-12.949 l -2.78,-12.832 c -1.92,-8.543 -3.59,-17.148 -5.71,-25.656 l -6.84,-25.379 c -2.11,-8.516 -5.07,-16.777 -7.71,-25.137 l -4.06,-12.519 c -0.69,-2.082 -1.33,-4.18 -2.05,-6.25 l -2.34,-6.145 -9.36,-24.609 c -1.48,-4.129 -3.43,-8.067 -5.14,-12.11 l -5.31,-12.058 -5.3,-12.051 c -1.9,-3.957 -3.9,-7.863 -5.85,-11.793 -3.96,-7.852 -7.76,-15.77 -11.86,-23.531 -8.65,-15.289 -16.92,-30.821 -26.57,-45.528 -9.03,-15.101 -19.43,-29.293 -29.48,-43.73 -5.22,-7.07 -10.71,-13.941 -16.06,-20.93 -2.71,-3.449 -5.36,-6.98 -8.12,-10.402 l -8.57,-10.027 -8.57,-10.043 c -2.88,-3.321 -5.64,-6.75 -8.72,-9.911 l -18.08,-19.226 c -1.52,-1.602 -2.99,-3.242 -4.55,-4.793 l -4.74,-4.59 -9.49,-9.18 -9.5,-9.179 c -3.15,-3.078 -6.58,-5.848 -9.86,-8.789 l -19.91,-17.36 -20.7,-16.422 c -27.98,-21.379 -57.05,-41.5 -87.85,-58.7106 l -11.44,-6.6367 -11.74,-6.0703 c -7.87,-4 -15.63,-8.1719 -23.58,-11.9922 -16.08,-7.2383 -31.99,-14.8906 -48.54,-21.039 l -12.3,-4.8711 c -2.06,-0.7891 -4.09,-1.668 -6.17,-2.3907 l -6.261,-2.1289 -25.058,-8.5078 c -8.387,-2.7304 -16.934,-4.9414 -25.395,-7.4219 l -12.73,-3.6406 c -4.274,-1.0898 -8.582,-2.0273 -12.875,-3.039 -8.594,-1.9805 -17.188,-4 -25.801,-5.8789 L 871.035,10.4102 C 866.684,9.69922 862.367,8.75 857.988,8.23047 L 844.863,6.58203 831.738,4.92969 c -4.379,-0.5 -8.734,-1.21875 -13.144,-1.44141 C 801.012,2.23828 783.445,0.5 765.809,0.460938 l -13.215,-0.3125 C 748.188,0.03125 743.785,-0.101563 739.379,0.109375 l -26.426,0.722656 -6.605,0.187499 c -2.2,0.10938 -4.395,0.33985 -6.59,0.5 l -13.176,1.0625 -13.18,1.0586 -6.586,0.55078 -6.554,0.84765 L 634.051,8.5 c -4.379,0.48047 -8.707,1.32031 -13.039,2.1211 L 608.008,13 c -17.414,2.7891 -34.457,7.3906 -51.629,11.3086 -8.504,2.3008 -16.945,4.8203 -25.41,7.2617 l -12.672,3.7383 -12.488,4.3203 C 372.285,84.6602 252.27,168.16 164.418,277.352 120.523,331.91 83.9688,392.289 57.0977,456.688 c -1.6993,4.015 -3.4805,7.988 -5.1094,12.031 l -4.5703,12.258 -4.5625,12.246 c -1.461,4.101 -3.1719,8.105 -4.3946,12.293 l -7.9062,24.894 -1.9649,6.219 c -0.625,2.082 -1.1328,4.203 -1.6953,6.301 l -3.2929,12.625 c -4.7383,16.738 -7.9024,33.859 -11.4883,50.84 -1.6563,8.519 -2.77346,17.14 -4.17971,25.695 l -2,12.851 C 5.3125,649.238 5,653.574 4.52734,657.879 L 1.92188,683.738 0.609375,709.676 0,722.637 0.00390625,735.605 0.0742188,761.523 C 0.476563,770.145 0.59375,778.777 1.27344,787.391 l 0.85547,12.91 1.1875,12.883 c 0.70312,8.582 1.88281,17.136 2.91797,25.683 l 1.91406,12.774 c 0.64062,4.257 1.26953,8.515 2.07036,12.742 L 12.5,877.09 c 0.7852,4.226 1.7188,8.426 2.5664,12.637 1.6406,8.437 3.7461,16.777 5.6758,25.144 4.2266,16.641 8.6797,33.215 14.0781,49.492 2.5508,8.176 5.5586,16.211 8.3828,24.278 1.4649,4.023 3.0469,8 4.5586,11.999 1.5235,4 3.0547,7.99 4.7266,11.93 6.3203,15.88 13.5664,31.36 21.0312,46.68 -12.3398,-31.79 -23.1679,-64.074 -31.1211,-97.062 -4.2304,-16.418 -7.625,-33.02 -10.7187,-49.641 -1.3672,-8.348 -2.9102,-16.66 -3.9883,-25.039 -0.5742,-4.188 -1.2226,-8.36 -1.7305,-12.547 l -1.4336,-12.578 c -3.625,-33.567 -4.9921,-67.285 -4.2578,-100.891 l 1.2696,-25.183 0.6523,-12.571 1.2617,-12.527 2.586,-25.02 3.8398,-24.836 c 0.668,-4.128 1.2109,-8.281 1.9727,-12.39 l 2.4882,-12.305 c 1.7227,-8.183 3.1602,-16.426 5.1133,-24.551 4.1953,-16.183 7.9297,-32.461 13.211,-48.312 l 3.6875,-11.961 c 0.6289,-1.984 1.1914,-3.996 1.8672,-5.969 l 2.121,-5.879 8.4766,-23.515 c 1.3164,-3.953 3.1172,-7.735 4.6641,-11.59 l 4.8086,-11.535 4.8047,-11.512 c 1.7109,-3.797 3.5625,-7.531 5.332,-11.289 3.6094,-7.5 7.0781,-15.059 10.793,-22.492 l 11.7652,-21.996 c 3.746,-7.411 8.235,-14.418 12.442,-21.579 l 6.387,-10.691 c 1.085,-1.769 2.097,-3.59 3.23,-5.32 l 3.449,-5.18 13.785,-20.73 c 4.723,-6.821 9.797,-13.387 14.664,-20.098 l 7.387,-10 7.828,-9.66 7.813,-9.66 c 2.644,-3.18 5.097,-6.532 7.933,-9.559 l 16.524,-18.543 4.133,-4.641 4.347,-4.418 8.692,-8.871 c 11.324,-12.078 23.855,-22.929 35.871,-34.269 24.996,-21.649 50.972,-42.129 78.441,-60.469 3.332,-2.43 6.926,-4.48 10.395,-6.711 l 10.496,-6.558 10.48,-6.571 c 3.559,-2.082 7.184,-4.043 10.774,-6.082 7.215,-3.98 14.336,-8.148 21.597,-12.039 l 22.094,-11.101 c 29.742,-14.129 60.145,-27.0199 91.609,-36.7582 l 11.719,-3.8711 11.895,-3.3086 c 7.941,-2.1406 15.832,-4.4805 23.785,-6.5508 16.086,-3.4687 32.008,-7.6601 48.293,-10.1015 l 12.152,-2.1172 c 4.047,-0.7032 8.09,-1.461 12.188,-1.8711 l 24.488,-2.9922 6.117,-0.75 6.153,-0.4492 12.304,-0.8672 12.305,-0.8906 c 2.051,-0.1211 4.098,-0.3321 6.152,-0.4024 l 6.168,-0.1172 24.66,-0.5703 c 4.114,-0.1914 8.227,-0.0508 12.336,0.0781 l 12.328,0.3321 c 16.461,0.0703 32.829,1.7773 49.219,2.9687 4.113,0.1992 8.168,0.9102 12.246,1.3789 l 12.227,1.5899 12.223,1.5625 c 4.082,0.4882 8.093,1.3984 12.148,2.0703 l 24.258,4.3594 24.008,5.5273 C 1038.6,102 1157.41,168.98 1250.45,262.27 l 17.19,17.75 c 2.94,2.89 5.56,6.07 8.3,9.14 l 8.16,9.281 8.17,9.27 c 2.64,3.16 5.15,6.43 7.74,9.629 5.11,6.469 10.36,12.832 15.36,19.379 9.59,13.402 19.57,26.551 28.34,40.531 9.36,13.602 17.39,28.012 25.84,42.191 4,7.219 7.72,14.59 11.6,21.875 1.91,3.653 3.88,7.286 5.74,10.977 l 5.22,11.223 5.22,11.238 c 1.69,3.762 3.63,7.434 5.09,11.289 l 9.38,22.949 2.35,5.735 c 0.74,1.933 1.39,3.886 2.09,5.828 l 4.14,11.691 c 2.69,7.82 5.72,15.535 7.9,23.516 l 7.12,23.777 c 2.21,7.981 4,16.055 6.03,24.094 l 2.96,12.058 c 0.85,4.055 1.59,8.125 2.39,12.2 l 4.73,24.402 3.54,24.629 c 0.55,4.113 1.3,8.195 1.68,12.324 l 1.15,12.402 c 3.78,33.04 3.66,66.348 3.2,99.641 -2.68,66.531 -14.42,132.801 -34.64,196.641 -20.16,63.93 -50.29,124.67 -87.04,181.25 -2.15,3.64 -4.75,6.97 -7.13,10.45 l -7.31,10.35 -7.31,10.36 c -1.24,1.71 -2.41,3.49 -3.7,5.16 l -3.93,4.97 -15.75,19.91 -3.94,4.98 c -1.33,1.65 -2.79,3.19 -4.17,4.8 l -8.4,9.53 c -21.85,26.01 -46.69,49.28 -71.77,72.39"
             style="fill:url(#radialGradient46);fill-opacity:1;fill-rule:nonzero;stroke:none"
             id="path48" />
        </g>
      </g>
      <g
         id="g50">
        <g
           id="g52"
           clip-path="url(#clipPath56)">
          <path
             d="m 1124.14,454.852 c -0.99,-1.532 -2.1,-3.008 -3.35,-4.375 -12.51,-13.778 -26.09,-26.567 -40.66,-38.168 -16.18,-12.868 -33.05,-24.719 -51.12,-34.797 -17.62,-9.832 -36.194,-18.121 -55.143,-25.032 -35.992,-13.128 -74.429,-20.16 -112.695,-21.449 -38.102,-1.281 -76.895,3.59 -113.512,14.188 -37.398,10.832 -73.484,27.711 -105.457,49.961 -34.82,24.199 -65.246,53.453 -88.656,88.961 -21.156,32.078 -36.09,69.062 -43.024,106.863 -7.304,39.844 -6.976,80.16 1.391,119.828 7.992,37.859 23.961,74.723 46.234,106.375 24.18,34.363 54.762,64.023 92.368,83.348 35.855,18.437 76.027,28.261 116.398,27.648 40.715,-0.625 81.149,-11.476 116.633,-31.457 36.105,-20.32 68.016,-50.391 87.058,-87.469 9.223,-17.968 16.188,-37.304 19.508,-57.246 1.817,-10.867 3.117,-21.875 3.293,-32.902 0.188,-11.25 -0.949,-22.305 -2.5,-33.426 -5.664,-40.586 -25.312,-79.551 -53.89,-108.859 -30,-30.75 -71.707,-48.496 -114.559,-49.656 -43.199,-1.172 -85.934,15.566 -117.383,45.039 -16.566,15.527 -28.633,35.3 -35.965,56.699 -7.296,21.308 -8.125,43.758 -4.945,65.859 2.863,19.883 10.941,39.774 22.738,56.035 6.848,9.422 14.215,18.321 23.414,25.535 5.106,3.997 10.207,7.911 15.852,11.106 5.719,3.23 11.82,5.801 17.934,8.164 20.632,7.988 43.984,8.672 65.449,3.953 10.722,-2.351 21.293,-6.64 30.836,-12.031 9.754,-5.508 19.211,-12.684 26.703,-21.043 16.305,-18.184 25.832,-41.555 25.836,-66.094 0.008,-24.805 -9.727,-48.086 -26.149,-66.445 -4.609,-5.156 -11.738,-7.336 -18.429,-7.637 -6.938,-0.305 -13.457,3.074 -18.422,7.637 -4.793,4.402 -7.629,12.031 -7.629,18.426 0,7.062 3.016,13.261 7.629,18.418 0.551,0.617 1.054,1.273 1.586,1.898 2.195,3.16 4.129,6.481 5.808,9.938 1.371,3.789 2.442,7.668 3.188,11.632 0.332,4.071 0.332,8.153 0,12.235 -0.75,3.996 -1.836,7.91 -3.235,11.738 -1.652,3.418 -3.562,6.68 -5.718,9.805 -2.86,3.34 -5.973,6.398 -9.328,9.23 -4.473,3.192 -9.2,5.965 -14.164,8.309 -5.243,1.953 -10.622,3.429 -16.122,4.414 -5.687,0.531 -11.39,0.531 -17.078,0 -5.562,-0.985 -10.996,-2.469 -16.277,-4.453 -4.836,-2.285 -9.441,-4.969 -13.805,-8.055 -4.597,-3.859 -8.781,-8.137 -12.613,-12.746 -4.391,-6.055 -8.168,-12.488 -11.305,-19.277 -2.703,-7.071 -4.691,-14.364 -5.957,-21.813 -0.761,-7.68 -0.758,-15.375 0.016,-23.031 1.269,-7.488 3.269,-14.813 5.984,-21.903 3.063,-6.621 6.739,-12.921 11.004,-18.847 5.164,-6.242 10.949,-11.875 17.227,-17.004 7.91,-5.797 16.359,-10.75 25.289,-14.805 9.652,-3.769 19.656,-6.484 29.898,-8.086 9.836,-0.984 19.723,-0.937 29.559,0.117 9.672,1.575 19.14,4.114 28.285,7.618 9.051,4.043 17.621,9.015 25.637,14.836 8.625,7.023 16.34,14.988 23.281,23.679 7.352,10.059 13.625,20.832 18.719,32.2 4.847,12.214 8.308,24.921 10.351,37.898 1.485,13.254 1.485,26.613 -0.004,39.855 -2.047,13.047 -5.527,25.801 -10.402,38.067 -5.176,11.551 -11.566,22.5 -19.082,32.683 -8.73,10.813 -18.688,20.473 -29.52,29.161 -13.32,9.953 -27.703,18.378 -42.91,25.109 -15.738,6.316 -32.14,10.789 -48.902,13.348 -17.102,1.992 -34.367,1.992 -51.469,0.011 -16.929,-2.578 -33.496,-7.09 -49.383,-13.476 -14.992,-6.653 -29.179,-14.942 -42.328,-24.739 -14.008,-11.21 -26.465,-24.101 -37.633,-38.132 -12.746,-16.953 -23.503,-35.305 -32.039,-54.719 -8.222,-20.234 -13.996,-41.367 -17.222,-62.965 -2.645,-21.976 -2.653,-44.184 -0.02,-66.164 3.235,-21.719 9.028,-42.98 17.289,-63.32 8.449,-19.239 19.074,-37.442 31.672,-54.258 14.363,-18.078 30.969,-34.121 49.07,-48.43 21.575,-16.297 44.993,-30.008 69.782,-40.816 16.324,-6.68 33.125,-12.121 50.265,-16.211 39.649,-4.391 79.746,-5.02 119.375,-0.149 29.914,4.258 59.321,11.77 87.305,23.2 12.078,5.269 23.83,11.238 35.15,17.972 7.68,4.864 15.15,10.051 22.42,15.528 15.19,11.953 29.37,25.125 42.37,39.433 1.11,1.219 2.37,2.274 3.72,3.172 1.51,1.777 3.05,3.535 4.52,5.352 1.04,1.269 2.06,2.57 3.08,3.859 0.16,0.207 0.33,0.41 0.48,0.625 2.28,3.035 4.5,6.102 6.66,9.219 4.36,6.269 8.48,12.683 12.38,19.246 7.42,12.492 13.96,25.48 19.75,38.801 13.51,32.82 22.27,67.402 27.19,102.519 4.92,39.356 5.59,79.422 0.77,118.809 -5,35.34 -14.4,69.941 -28.03,102.937 -8.99,20.715 -19.57,40.715 -31.73,59.739 -5.7,8.937 -11.74,17.644 -18.1,26.132 -0.63,0.829 -1.27,1.668 -1.9,2.5 -1.56,1.993 -3.14,3.965 -4.74,5.93 -3.28,4.02 -6.63,7.984 -10.06,11.891 -13.94,15.895 -29.06,30.735 -45.2,44.375 -4.02,3.41 -8.13,6.72 -12.27,9.99 -0.86,0.65 -1.73,1.32 -2.6,1.96 -1.93,1.45 -3.88,2.89 -5.84,4.29 -8.598,6.21 -17.43,12.09 -26.469,17.64 -17.274,10.59 -35.321,19.87 -53.926,27.9 -32.504,13.34 -66.551,22.61 -101.332,27.59 -35.457,4.41 -71.375,4.41 -106.836,0 -35.074,-5.03 -69.402,-14.4 -102.152,-27.91 -20.711,-9 -40.711,-19.57 -59.739,-31.73 -8.929,-5.71 -17.644,-11.75 -26.128,-18.11 -0.833,-0.62 -1.668,-1.27 -2.508,-1.9 -1.989,-1.56 -3.965,-3.14 -5.922,-4.74 -4.024,-3.28 -7.988,-6.63 -11.895,-10.06 -15.886,-13.93 -30.734,-29.06 -44.383,-45.194 -3.402,-4.031 -6.718,-8.133 -9.984,-12.273 -0.652,-0.871 -1.312,-1.731 -1.961,-2.598 -1.445,-1.933 -2.879,-3.887 -4.289,-5.84 -6.203,-8.605 -12.09,-17.433 -17.633,-26.476 -10.593,-17.274 -19.871,-35.321 -27.902,-53.926 -13.34,-32.5 -22.606,-66.551 -27.59,-101.336 -2.199,-17.715 -3.348,-35.547 -3.375,-53.41 -0.019,-14.305 -11.672,-24.891 -25.512,-25.516 -13.769,-0.617 -25.531,12.168 -25.515,25.516 0.023,17.375 1.047,34.738 3.152,51.984 8.695,71.18 33.149,139.883 73.594,199.324 39.465,58.005 91.93,106.935 153.211,141.255 63.48,35.55 135.269,55.16 207.984,57.18 72.934,2.01 145.574,-14.24 211.047,-46.25 63.623,-31.11 118.323,-77.85 161.053,-134.09 41.78,-54.97 70.51,-120.731 82.45,-188.747 11.83,-67.414 9.23,-137.93 -6.82,-204.473 -13.92,-57.714 -39.92,-112.343 -78.5,-157.628 z M 766.875,1266.52 c -297.828,0 -539.262,-241.43 -539.262,-539.266 0,-297.82 241.434,-539.254 539.262,-539.254 297.825,0 539.255,241.434 539.255,539.254 0,297.836 -241.43,539.266 -539.255,539.266"
             style="fill:url(#radialGradient62);fill-opacity:1;fill-rule:nonzero;stroke:none"
             id="path64" />
        </g>
      </g>
      <g
         id="g66">
        <g
           id="g68"
           clip-path="url(#clipPath72)">
          <path
             d="m 3216.49,314.23 c -8.55,0 -17.09,0 -25.64,0 -256.1,0.032 -512.21,1.879 -768.32,5.86 -256.1,4.191 -512.21,10.012 -768.32,21.23 256.11,11.231 512.22,17.051 768.32,21.239 256.11,3.972 512.22,5.82 768.32,5.863 256.11,0.039 512.22,-1.82 768.32,-5.793 256.11,-4.168 512.22,-10.008 768.33,-21.309 -256.11,-11.289 -512.22,-17.129 -768.33,-21.308 -247.55,-3.84 -495.12,-5.703 -742.68,-5.782"
             style="fill:url(#radialGradient78);fill-opacity:1;fill-rule:nonzero;stroke:none"
             id="path80" />
        </g>
      </g>
      <path
         d="m 1714.96,1082.6 c 0,91.51 -0.38,140.9 -1.13,148.19 -0.44,12.28 -2.54,21.4 -6.28,27.32 -3.98,6.6 -11.58,10.8 -22.83,12.63 -6.84,1.36 -15.67,2.05 -26.47,2.05 -7.73,-0.46 -11.59,1.64 -11.59,6.29 0,3.97 4.97,5.97 14.91,5.97 41.08,-0.46 73.64,-1.14 97.71,-2.05 60.94,0 117.47,0.22 169.59,0.68 13.46,1.37 23.18,2.73 29.15,4.1 3.53,1.37 7.17,2.28 10.93,2.73 2.64,-0.45 3.97,-2.5 3.97,-6.15 -0.43,-1.36 -2.15,-16.44 -5.15,-45.24 -0.86,-14.51 -2.04,-29.82 -3.55,-45.93 0,-4.75 -2.27,-7.36 -6.82,-7.82 -4.78,0 -6.83,3.3 -6.15,9.9 0,6.61 -1.44,15.03 -4.32,25.28 -1.32,6.36 -5.19,11.72 -11.61,16.04 -6.19,4.1 -17.48,7.05 -33.85,8.88 -7.74,0.91 -23.34,1.59 -46.79,2.05 -23.67,0.46 -40.27,0.68 -49.77,0.68 -3.1,0 -4.65,-2.28 -4.65,-6.84 v -177.25 c -0.46,-5.25 1.09,-7.87 4.65,-7.87 10.4,0 28.77,0.22 55.1,0.68 25.89,0 43.81,0.23 53.77,0.69 15.94,1.14 26.78,4.68 32.53,10.6 4.65,6.17 8.3,9.24 10.96,9.24 3.09,0 4.64,-1.93 4.64,-5.8 -0.46,-1.37 -2.31,-18.32 -5.55,-50.86 -1.86,-20.04 -2.79,-35.634 -2.79,-46.798 0,-2.957 -0.22,-5.801 -0.66,-8.535 -0.44,-3.191 -2.31,-4.785 -5.62,-4.785 -4.41,0 -6.4,2.051 -5.94,6.152 0,7.512 -0.89,15.938 -2.65,25.274 -1.55,7.05 -4.97,13.082 -10.27,18.102 -5.96,4.78 -15.24,7.85 -27.82,9.22 -8.17,0.91 -23.52,1.6 -46.04,2.05 -23.18,0 -39.97,0 -50.34,0 -3.1,0 -4.43,-2.27 -3.97,-6.83 v -55.335 c -0.46,-37.801 -0.46,-74.004 0,-108.614 0,-23.23 5.22,-38.828 15.66,-46.785 10.44,-8.437 32.55,-12.422 66.31,-11.965 9.55,0 20.21,0.461 31.99,1.368 12.22,0.449 22.87,2.843 31.98,7.168 16.89,7.062 27.11,24.257 30.66,51.582 0.44,4.328 1.33,7.179 2.66,8.546 1.55,1.356 3.21,2.04 4.99,2.04 4,-0.457 5.78,-4.668 5.32,-12.625 0,-9.336 -0.88,-22.317 -2.65,-38.926 -1.78,-17.305 -3.76,-30.156 -5.97,-38.586 -2,-8.418 -5.43,-13.543 -10.29,-15.36 -5.1,-1.816 -13.95,-2.734 -26.56,-2.734 -93.82,1.348 -156.55,2.695 -188.19,4.043 -22.8,-0.441 -51.34,-1.105 -85.63,-1.992 -9.08,0 -13.62,2.207 -13.62,6.629 -0.46,3.75 3.07,5.636 10.56,5.636 10.55,0 18.68,0.907 24.4,2.735 6.81,1.824 11.54,6.269 14.17,13.34 2.86,6.375 4.73,14.812 5.61,25.3 2.2,32.149 3.3,81.856 3.3,149.122 V 1082.6"
         style="fill:#1f315c;fill-opacity:1;fill-rule:nonzero;stroke:none"
         id="path82" />
      <path
         d="m 2194.99,851.141 c 0.88,-26.446 3.31,-45.594 7.28,-57.45 3.96,-11.171 9.36,-17.902 16.2,-20.175 12.12,-3.653 23.92,-5.246 35.38,-4.786 7.72,0 11.57,-1.886 11.57,-5.636 -0.65,-4.422 -5.95,-6.629 -15.86,-6.629 -43.22,0.887 -71.22,1.551 -84,1.992 -9.93,-0.441 -34.28,-1.105 -73.08,-1.992 -9.92,-0.449 -14.88,1.758 -14.88,6.629 0,3.75 3.64,5.636 10.94,5.636 9.94,0 20.11,1.133 30.5,3.418 8.62,2.274 14.48,10.028 17.57,23.25 2.87,12.989 4.09,34.192 3.65,63.606 l 5.97,414.446 c -0.46,15.25 2.51,23.1 8.92,23.55 3.97,0 7.82,-1.93 11.57,-5.81 3.96,-4.1 8.37,-9.45 13.22,-16.05 24.9,-28.47 94.86,-103.3 209.89,-224.45 25.78,-26.65 55.2,-57.624 88.26,-92.928 32.39,-35.985 52.66,-58.184 60.82,-66.61 h 3.28 l -6.62,314.608 c 0,20.98 -1.65,36.13 -4.96,45.48 -3.96,8.9 -10.03,14.71 -18.18,17.44 -12.13,3.2 -24.14,4.56 -36.05,4.11 -7.51,0 -11.04,2.09 -10.58,6.29 0,2.65 1.76,4.42 5.29,5.3 3.52,0.44 7.6,0.67 12.23,0.67 37.91,-0.46 65.23,-1.14 81.98,-2.05 3.97,0 11.79,0.46 23.48,1.36 11.9,0.46 26.12,0.69 42.65,0.69 9.91,0.45 15.09,-1.53 15.53,-5.97 0,-4.2 -3.98,-6.29 -11.96,-6.29 -5.98,0 -12.84,-0.69 -20.58,-2.06 -9.53,-2.28 -15.84,-7.86 -18.94,-16.75 -3.77,-8.89 -5.87,-23.14 -6.31,-42.75 l -7.31,-441.816 c 0,-14.328 -2.97,-21.484 -8.92,-21.484 -3.52,0 -7.05,1.933 -10.57,5.808 -4.19,2.735 -8.26,5.918 -12.23,9.563 -52.87,53.75 -119.41,122.293 -199.6,205.652 -84.39,90.187 -138.14,148.947 -161.27,176.277 h -2.05 l 7.77,-294.089"
         style="fill:#1f315c;fill-opacity:1;fill-rule:nonzero;stroke:none"
         id="path84" />
      <path
         d="m 2818.91,1082.23 c 0,91.68 -0.38,141.18 -1.13,148.48 -0.44,12.31 -2.54,21.44 -6.29,27.36 -3.97,6.62 -11.58,10.84 -22.82,12.66 -6.84,1.37 -15.67,2.06 -26.47,2.06 -7.73,-0.46 -11.59,1.64 -11.59,6.29 0,3.97 4.97,5.97 14.92,5.97 41.09,-0.46 73.67,-1.14 97.76,-2.05 60.97,0 117.53,0.22 169.67,0.68 13.48,1.37 23.2,2.73 29.16,4.1 3.53,1.37 7.19,2.28 10.94,2.73 2.65,-0.45 3.98,-2.5 3.98,-6.13 -0.46,-1.36 -2.29,-16.47 -5.5,-45.31 -0.91,-14.54 -2.17,-29.87 -3.77,-46 0,-4.78 -2.27,-7.4 -6.8,-7.86 -4.76,0 -6.8,3.31 -6.11,9.92 0,6.62 -1.44,15.07 -4.31,25.34 -1.32,6.39 -5.18,11.76 -11.59,16.09 -6.18,4.11 -17.43,7.08 -33.77,8.91 -7.72,0.91 -23.29,1.58 -46.68,2.03 -23.62,0.45 -40.18,0.67 -49.67,0.67 -3.09,0 -4.63,-2.28 -4.63,-6.84 v -177.22 c -0.46,-5.25 1.09,-7.87 4.64,-7.87 10.39,0 28.75,0.22 55.06,0.68 25.87,0 43.78,0.23 53.74,0.69 15.92,1.14 26.75,4.68 32.5,10.6 4.64,6.17 8.29,9.24 10.95,9.24 3.09,0 4.64,-1.93 4.64,-5.8 -0.46,-1.37 -2.28,-18.32 -5.48,-50.86 -1.82,-20.04 -2.74,-35.634 -2.74,-46.798 0,-2.957 -0.22,-5.801 -0.66,-8.535 -0.44,-3.191 -2.33,-4.785 -5.65,-4.785 -4.44,0 -6.44,2.051 -5.98,6.152 0,7.512 -0.88,15.938 -2.65,25.274 -1.54,7.05 -4.97,13.082 -10.26,18.102 -5.96,4.78 -15.23,7.85 -27.81,9.22 -8.17,0.91 -23.5,1.6 -46.01,2.05 -23.18,0 -39.95,0 -50.32,0 -3.1,0 -4.43,-2.27 -3.97,-6.83 v -55.335 c -0.46,-37.801 -0.46,-74.004 0,-108.614 0,-23.23 5.2,-38.828 15.63,-46.785 10.41,-8.437 32.48,-12.422 66.18,-11.965 9.53,0 20.17,0.461 31.93,1.368 12.19,0.449 22.83,2.843 31.92,7.168 16.85,7.062 27.05,24.257 30.6,51.582 0.44,4.328 1.33,7.179 2.66,8.546 1.55,1.356 3.21,2.04 4.98,2.04 4.01,-0.457 5.79,-4.668 5.33,-12.625 0,-9.336 -0.89,-22.317 -2.65,-38.926 -1.77,-17.305 -3.76,-30.156 -5.97,-38.586 -1.99,-8.418 -5.42,-13.543 -10.27,-15.36 -5.1,-1.816 -13.94,-2.734 -26.53,-2.734 -93.73,1.348 -156.4,2.695 -188.01,4.043 -22.76,-0.441 -51.28,-1.105 -85.54,-1.992 -9.07,0 -13.6,2.207 -13.6,6.629 -0.46,3.75 3.07,5.636 10.56,5.636 10.54,0 18.68,0.907 24.39,2.735 6.82,1.824 11.54,6.269 14.18,13.34 2.86,6.375 4.73,14.812 5.61,25.312 2.2,32.137 3.3,81.844 3.3,149.11 v 123.003"
         style="fill:#1f315c;fill-opacity:1;fill-rule:nonzero;stroke:none"
         id="path86" />
      <path
         d="m 3340.6,1026.88 c -0.46,-6.84 1.63,-10.93 6.28,-12.3 15.88,-4.79 33.08,-7.17 51.6,-7.17 13.01,0 23.16,0.9 30.43,2.73 6.17,1.82 12.02,4.89 17.54,9.22 10.79,7.52 20.05,19.81 27.77,36.89 7.72,16.84 11.8,39.5 12.24,67.97 0,25.27 -3.2,45.99 -9.59,62.17 -6.84,16.84 -15.88,29.94 -27.12,39.27 -10.37,9.79 -21.4,16.73 -33.08,20.84 -12.13,3.86 -23.48,5.8 -34.07,5.8 -16.98,0 -28.88,-0.91 -35.72,-2.73 -4.65,-1.14 -6.74,-4.44 -6.28,-9.9 z m -79.84,55.42 c 0,91.65 -0.38,141.13 -1.13,148.42 -0.44,12.32 -2.54,21.43 -6.28,27.35 -3.98,6.62 -11.59,10.84 -22.83,12.66 -6.84,1.37 -15.67,2.06 -26.47,2.06 -7.73,-0.46 -11.58,1.64 -11.58,6.29 0,3.97 4.96,5.97 14.88,5.97 42.12,-0.46 73.09,-1.14 92.94,-2.05 32.86,0.46 64.61,1.14 95.27,2.05 22.27,0 43.99,-1.59 65.16,-4.79 21.16,-3.87 41.01,-12.29 59.53,-25.28 10.38,-6.61 20.54,-18 30.48,-34.18 9.94,-16.85 15.13,-37.47 15.57,-61.85 0.46,-25.5 -5.62,-50.68 -18.21,-75.5 -13.48,-25.53 -37.21,-52.52 -71.22,-80.99 59.14,-78.827 108.12,-140.226 146.96,-184.179 19.64,-19.601 35.97,-32.129 48.99,-37.597 13.01,-5.696 22.06,-9.004 27.14,-9.914 7.28,-1.356 13.57,-2.04 18.86,-2.04 5.52,0 8.28,-1.886 8.28,-5.636 0,-4.422 -4.31,-6.629 -12.91,-6.629 h -64.52 c -18.54,0 -32.99,1.113 -43.35,3.32 -10.81,1.766 -20.52,4.981 -29.12,9.629 -26.7,15.274 -57.58,49.598 -92.65,102.977 -14.13,20.527 -27.48,40.371 -40.05,59.531 -12.79,18.703 -21.84,31.016 -27.13,36.953 -3.09,3.418 -7.17,5.129 -12.25,5.129 l -58.9,1.367 c -3.75,0 -5.62,-1.933 -5.62,-5.812 v -9.579 c -0.46,-67.753 0.75,-117.707 3.63,-149.863 0.89,-10.488 3.09,-18.926 6.62,-25.312 3.31,-7.082 9.93,-11.524 19.85,-13.348 12.12,-1.781 23.15,-2.668 33.07,-2.668 5.51,0 8.27,-1.887 8.27,-5.656 0,-4.453 -4.52,-6.668 -13.55,-6.668 -48.07,0.887 -81.24,1.551 -99.54,1.992 -20.5,-0.441 -48.06,-1.105 -82.67,-1.992 -9.03,0 -13.56,2.207 -13.56,6.629 -0.45,3.75 3.07,5.636 10.56,5.636 10.55,0 18.68,0.907 24.4,2.735 6.81,1.824 11.54,6.269 14.18,13.34 2.85,6.386 4.72,14.824 5.6,25.32 2.2,32.16 3.3,81.875 3.3,149.172 V 1082.3"
         style="fill:#1f315c;fill-opacity:1;fill-rule:nonzero;stroke:none"
         id="path88" />
      <path
         d="m 4196.64,802.91 c 0,-8.418 -0.22,-14.23 -0.66,-17.414 -1.32,-2.723 -4.08,-5.34 -8.28,-7.84 -22.5,-11.492 -48.42,-19.492 -77.76,-23.992 -29.79,-4.73 -58.25,-7.101 -85.38,-7.101 -85.39,0 -158.2,21.738 -218.42,65.226 -61.78,43.238 -93.33,112.899 -94.65,208.971 0.43,56 12.57,103.34 36.4,142.04 22.72,38.7 49.86,67.62 81.41,86.74 32.44,20.02 64.1,32.77 94.99,38.24 29.78,5.24 58.9,7.62 87.37,7.17 56.48,-1.37 96.41,-5.12 119.8,-11.27 17.21,-3.64 35.08,-6.26 53.61,-7.85 6.85,-0.45 10.06,-3.19 9.6,-8.19 -1.3,1.82 -2.92,-36.42 -4.86,-114.71 0,-10.25 -2.44,-15.14 -7.3,-14.69 -4.21,0 -6.54,3.08 -6.97,9.23 -0.45,8.89 -2.22,18.24 -5.3,28.08 -3.09,10.27 -8.94,20.31 -17.54,30.13 -10.36,12.1 -28.45,24.21 -54.25,36.32 -25.81,11.64 -58.12,17.7 -96.94,18.16 -18.53,0.45 -39.48,-1.61 -62.86,-6.16 -23.61,-5.25 -47.32,-17.67 -71.14,-37.28 -18.97,-15.74 -34.19,-37.4 -45.65,-64.98 -11.25,-27.59 -16.87,-63.04 -16.87,-106.36 0.43,-76.61 22.16,-139.189 65.17,-187.755 41.46,-49.48 98.37,-74.676 170.71,-75.586 9.49,0 19.41,0.461 29.78,1.367 10.36,0.918 19.63,2.969 27.79,6.164 9.05,5.243 13.35,13.907 12.9,25.996 v 65.684 c 0,34.656 -0.22,62.254 -0.66,82.781 0.45,12.082 -1.42,21.211 -5.63,27.364 -4.41,6.613 -12.24,10.835 -23.49,12.655 -6.84,1.37 -15.66,2.05 -26.46,2.05 -6.84,0 -10.26,1.77 -10.26,5.29 0,4.63 4.74,6.94 14.22,6.94 40.14,-0.45 72.88,-1.14 98.25,-2.04 25.8,0.45 52.26,1.13 79.39,2.04 9.04,0 13.56,-2.31 13.56,-6.94 -0.44,-3.52 -3.42,-5.29 -8.94,-5.29 -4.41,0 -10.48,-0.68 -18.2,-2.05 -17.21,-2.73 -25.82,-16.081 -25.82,-40.027 -0.44,-20.976 -0.66,-49.035 -0.66,-84.14 V 802.91"
         style="fill:#1f315c;fill-opacity:1;fill-rule:nonzero;stroke:none"
         id="path90" />
      <path
         d="m 4480.81,937.313 c 0,18.234 -1.34,32.714 -3.98,43.429 -2.66,10.711 -6.52,20.748 -11.59,30.098 -0.88,3.87 -6.29,14.36 -16.23,31.46 -9.93,17.33 -21.96,37.5 -36.1,60.53 -29.36,49.47 -51.65,86.06 -66.88,109.78 -17.66,26.22 -33.34,43.31 -47.03,51.28 -9.93,5.47 -19.42,8.44 -28.47,8.9 -6.18,-0.46 -9.5,1.64 -9.94,6.29 0.44,3.97 4.75,5.97 12.9,5.97 23.38,-0.46 51.84,-1.14 85.36,-2.05 7.5,0 17.86,0.46 31.1,1.36 12.57,0.46 26.35,0.69 41.36,0.69 6.61,0 9.92,-2 9.92,-5.98 0,-3.33 -4.97,-5.88 -14.89,-7.64 -6.18,-1.83 -9.26,-6.05 -9.26,-12.66 0,-5.48 2.65,-13.34 7.93,-23.59 3.31,-5.71 10.6,-18.36 21.85,-37.97 10.8,-19.6 22.71,-41.83 35.73,-66.68 29.33,-53.58 48.51,-88.58 57.56,-104.98 2.43,5.23 8.6,16.98 18.53,35.21 9.48,17.1 20.06,36.94 31.76,59.51 26.24,49.02 43.45,81.61 51.61,97.8 6.17,15.5 9.26,27.7 9.26,36.6 0,3.64 -0.89,7.41 -2.65,11.28 -1.76,2.73 -5.62,4.78 -11.58,6.15 -7.72,0.89 -11.8,3.22 -12.23,6.98 0,3.97 3.86,5.97 11.58,5.97 22.71,-0.46 43.99,-1.14 63.85,-2.05 25.14,0.46 49.29,1.14 72.45,2.05 7.71,0 11.8,-1.77 12.24,-5.3 -0.44,-4.64 -4.74,-6.96 -12.9,-6.96 -8.14,0 -18.07,-2.74 -29.75,-8.21 -11.9,-5.7 -24.14,-17.22 -36.7,-34.54 -13.88,-19.61 -36.47,-56.19 -67.77,-109.78 -14.33,-24.84 -27.11,-47.76 -38.35,-68.73 -11.91,-20.98 -19.62,-35.68 -23.15,-44.11 -2.2,-6.16 -3.97,-11.971 -5.29,-17.44 -1.54,-6.164 -2.75,-11.972 -3.63,-17.441 -0.89,-11.855 -1.33,-23.605 -1.33,-35.226 v -57.45 c -0.46,-13.918 0.21,-37.168 1.99,-69.765 0.43,-10.489 2.96,-18.926 7.58,-25.305 3.53,-7.07 10.24,-11.512 20.14,-13.336 11.45,-1.781 22.78,-2.668 34,-2.668 7.26,0 10.9,-1.887 10.9,-5.656 -0.66,-4.453 -5.52,-6.668 -14.56,-6.668 -46.31,0.887 -80.82,1.551 -103.53,1.992 -23.82,-0.441 -52.04,-1.105 -84.68,-1.992 -9.92,0 -14.89,2.207 -14.89,6.629 0,3.75 3.65,5.636 10.96,5.636 9.51,0 17.47,0.907 23.89,2.735 6.64,1.824 11.84,6.269 15.6,13.34 3.09,6.375 4.86,14.804 5.31,25.293 1.33,32.597 2,55.847 2,69.765 v 57.45"
         style="fill:#1f315c;fill-opacity:1;fill-rule:nonzero;stroke:none"
         id="path92" />
      <path
         d="m 1678.67,584.355 c 0,45.489 -0.19,70.047 -0.56,73.672 -0.22,6.102 -1.26,10.637 -3.12,13.575 -1.98,3.281 -5.77,5.371 -11.36,6.277 -3.4,0.684 -7.79,1.027 -13.15,1.027 -3.84,-0.234 -5.76,0.809 -5.76,3.125 0,1.973 2.47,2.969 7.41,2.969 20.41,-0.234 36.61,-0.578 48.57,-1.027 30.3,0 58.4,0.117 84.31,0.343 6.69,0.684 11.52,1.356 14.49,2.039 1.75,0.676 3.57,1.125 5.43,1.36 1.31,-0.235 1.98,-1.25 1.98,-3.059 -0.22,-0.683 -1.07,-8.172 -2.56,-22.488 -0.43,-7.219 -1.02,-14.836 -1.77,-22.832 0,-2.363 -1.13,-3.664 -3.39,-3.887 -2.38,0 -3.39,1.641 -3.06,4.922 0,3.281 -0.72,7.469 -2.14,12.559 -0.66,3.164 -2.58,5.828 -5.77,7.976 -3.08,2.043 -8.69,3.508 -16.83,4.414 -3.86,0.45 -11.61,0.793 -23.27,1.016 -11.76,0.227 -20.01,0.344 -24.74,0.344 -1.54,0 -2.31,-1.133 -2.31,-3.399 v -88.117 c -0.23,-2.617 0.55,-3.914 2.31,-3.914 5.17,0 14.31,0.117 27.4,0.34 12.87,0 21.78,0.109 26.73,0.344 7.92,0.566 13.31,2.324 16.17,5.273 2.31,3.055 4.13,4.59 5.45,4.59 1.53,0 2.31,-0.965 2.31,-2.891 -0.23,-0.676 -1.16,-9.101 -2.77,-25.285 -0.92,-9.957 -1.38,-17.703 -1.38,-23.25 0,-1.476 -0.11,-2.891 -0.33,-4.25 -0.22,-1.59 -1.15,-2.383 -2.79,-2.383 -2.2,0 -3.19,1.028 -2.96,3.059 0,3.742 -0.44,7.93 -1.32,12.566 -0.77,3.508 -2.47,6.504 -5.1,8.996 -2.96,2.383 -7.57,3.907 -13.83,4.59 -4.06,0.449 -11.69,0.789 -22.88,1.016 -11.53,0 -19.88,0 -25.03,0 -1.55,0 -2.21,-1.133 -1.98,-3.391 v -27.508 c -0.23,-18.789 -0.23,-36.796 0,-53.996 0,-11.55 2.6,-19.304 7.79,-23.261 5.19,-4.2 16.18,-6.172 32.96,-5.946 4.75,0 10.05,0.223 15.9,0.684 6.08,0.223 11.38,1.406 15.9,3.562 8.4,3.508 13.48,12.055 15.25,25.637 0.22,2.149 0.66,3.563 1.32,4.246 0.77,0.676 1.6,1.016 2.48,1.016 1.99,-0.223 2.87,-2.313 2.65,-6.278 0,-4.64 -0.44,-11.085 -1.33,-19.347 -0.88,-8.602 -1.87,-15 -2.96,-19.176 -1,-4.187 -2.7,-6.738 -5.12,-7.637 -2.53,-0.91 -6.93,-1.371 -13.2,-1.371 -46.64,0.672 -77.83,1.352 -93.56,2.012 -11.33,-0.211 -25.52,-0.539 -42.56,-0.981 -4.52,0 -6.77,1.09 -6.77,3.29 -0.23,1.863 1.52,2.8 5.24,2.8 5.25,0 9.29,0.45 12.13,1.356 3.39,0.91 5.74,3.125 7.05,6.633 1.42,3.171 2.35,7.371 2.79,12.578 1.09,15.984 1.64,40.695 1.64,74.14 v 61.328"
         style="fill:#1f315c;fill-opacity:1;fill-rule:nonzero;stroke:none"
         id="path94" />
      <path
         d="m 1917.3,469.289 c 0.44,-13.148 1.65,-22.668 3.62,-28.559 1.97,-5.554 4.66,-8.894 8.05,-10.027 6.03,-1.816 11.89,-2.609 17.6,-2.383 3.83,0 5.75,-0.937 5.75,-2.8 -0.33,-2.2 -2.96,-3.29 -7.89,-3.29 -21.48,0.442 -35.4,0.77 -41.76,0.981 -4.93,-0.211 -17.04,-0.539 -36.33,-0.981 -4.93,-0.23 -7.39,0.872 -7.39,3.29 0,1.863 1.81,2.8 5.43,2.8 4.95,0 10,0.567 15.17,1.7 4.28,1.132 7.19,4.988 8.73,11.562 1.43,6.457 2.03,16.992 1.82,31.609 l 2.96,206.036 c -0.23,7.578 1.25,11.484 4.44,11.711 1.97,0 3.89,-0.958 5.75,-2.891 1.97,-2.031 4.16,-4.699 6.57,-7.981 12.38,-14.148 47.16,-51.347 104.34,-111.57 12.82,-13.254 27.45,-28.652 43.88,-46.203 16.1,-17.891 26.18,-28.926 30.23,-33.113 h 1.63 l -3.28,156.394 c 0,10.43 -0.83,17.969 -2.47,22.617 -1.97,4.414 -4.99,7.305 -9.04,8.672 -6.03,1.582 -12,2.266 -17.92,2.043 -3.73,0 -5.49,1.035 -5.26,3.125 0,1.317 0.88,2.196 2.63,2.637 1.75,0.215 3.78,0.332 6.08,0.332 18.84,-0.234 32.43,-0.578 40.76,-1.027 1.97,0 5.86,0.234 11.67,0.683 5.91,0.227 12.98,0.344 21.2,0.344 4.92,0.223 7.5,-0.773 7.72,-2.969 0,-2.09 -1.98,-3.125 -5.95,-3.125 -2.97,0 -6.38,-0.343 -10.23,-1.027 -4.73,-1.133 -7.87,-3.906 -9.41,-8.328 -1.87,-4.426 -2.92,-11.504 -3.14,-21.25 l -3.63,-219.637 c 0,-7.125 -1.48,-10.684 -4.43,-10.684 -1.76,0 -3.51,0.961 -5.26,2.891 -2.08,1.359 -4.11,2.938 -6.08,4.75 -26.29,26.723 -59.37,60.805 -99.23,102.238 -41.95,44.836 -68.67,74.043 -80.17,87.629 h -1.02 l 3.86,-146.199"
         style="fill:#1f315c;fill-opacity:1;fill-rule:nonzero;stroke:none"
         id="path96" />
      <path
         d="m 2400.17,574.305 c 1.2,0 1.91,0.793 2.14,2.383 v 7.324 c 0,45.656 -0.23,70.304 -0.66,73.937 -0.22,6.133 -1.26,10.672 -3.13,13.621 -1.97,3.301 -5.76,5.403 -11.35,6.309 -3.4,0.684 -7.79,1.027 -13.16,1.027 -3.84,-0.234 -5.76,0.809 -5.76,3.125 0,1.973 2.36,2.969 7.08,2.969 20.63,-0.234 36.81,-0.578 48.56,-1.027 11.63,0.234 25.79,0.566 42.47,1.027 4.72,0 7.08,-0.996 7.08,-2.969 0,-2.316 -2.04,-3.359 -6.11,-3.125 -2.54,0 -5.78,-0.343 -9.75,-1.027 -4.29,-0.684 -7.37,-2.547 -9.25,-5.613 -1.98,-3.164 -3.08,-7.93 -3.3,-14.278 -0.22,-4.648 -0.32,-11.73 -0.32,-21.25 -0.23,-9.523 -0.34,-27.031 -0.34,-52.531 v -61.199 c -0.22,-33.438 0.33,-58.313 1.66,-74.629 0.43,-4.875 1.53,-8.899 3.29,-12.07 1.65,-3.516 4.95,-5.723 9.9,-6.633 5.61,-0.887 11.34,-1.328 17.17,-1.328 3.62,0 5.44,-0.934 5.44,-2.809 -0.22,-2.207 -2.47,-3.309 -6.75,-3.309 -23.82,0.442 -41.32,0.77 -52.51,0.981 -11.31,-0.211 -25.35,-0.539 -42.14,-0.981 -4.72,0 -7.08,1.09 -7.08,3.29 -0.23,1.863 1.53,2.8 5.26,2.8 5.16,0 9.22,0.45 12.18,1.356 3.4,0.91 5.76,3.125 7.08,6.633 1.31,3.171 2.19,7.371 2.63,12.578 1.2,15.984 1.81,40.695 1.81,74.14 v 30.594 c -0.23,1.359 -0.94,2.043 -2.14,2.043 H 2271.5 c -1.31,0 -1.97,-0.684 -1.97,-2.043 v -30.605 c -0.22,-33.434 0.32,-58.309 1.65,-74.637 0.43,-4.875 1.58,-8.899 3.45,-12.07 1.54,-3.516 4.77,-5.723 9.71,-6.633 5.59,-0.887 11.29,-1.328 17.11,-1.328 3.62,0 5.43,-0.934 5.43,-2.809 -0.22,-2.207 -2.47,-3.309 -6.74,-3.309 -23.76,0.442 -41.23,0.77 -52.4,0.981 -11.29,-0.211 -25.41,-0.539 -42.39,-0.981 -4.49,0 -6.73,1.09 -6.73,3.29 -0.23,1.863 1.52,2.8 5.24,2.8 5.25,0 9.29,0.45 12.13,1.356 3.39,0.91 5.74,3.125 7.05,6.633 1.42,3.171 2.35,7.371 2.78,12.578 1.1,15.984 1.65,40.695 1.65,74.121 v 61.199 c 0,45.566 -0.19,70.156 -0.57,73.781 -0.22,6.121 -1.26,10.653 -3.12,13.602 -1.97,3.293 -5.76,5.383 -11.35,6.289 -3.4,0.684 -7.79,1.027 -13.16,1.027 -3.84,-0.234 -5.75,0.809 -5.75,3.125 0,1.973 2.35,2.969 7.06,2.969 20.59,-0.234 36.74,-0.578 48.46,-1.027 11.61,0.234 25.74,0.566 42.39,1.027 4.7,0 7.06,-0.996 7.06,-2.969 0,-2.316 -2.03,-3.359 -6.09,-3.125 -2.41,0 -5.65,-0.343 -9.7,-1.027 -4.29,-0.684 -7.36,-2.559 -9.22,-5.625 -1.98,-3.184 -3.08,-7.949 -3.29,-14.305 -0.22,-4.66 -0.33,-11.758 -0.33,-21.301 -0.22,-9.539 -0.33,-27.078 -0.33,-52.636 v -7.324 c 0,-1.59 0.66,-2.383 1.97,-2.383 h 128.67"
         style="fill:#1f315c;fill-opacity:1;fill-rule:nonzero;stroke:none"
         id="path98" />
      <path
         d="m 2647.68,530.164 c 1.54,0 2.09,0.684 1.64,2.043 l -30.41,85.898 c -0.22,1.809 -0.77,2.821 -1.64,3.047 -0.88,-0.226 -1.54,-1.238 -1.98,-3.047 l -30.91,-85.558 c -0.56,-1.59 -0.12,-2.383 1.32,-2.383 z m -68.72,-17.273 c -1.65,0 -2.69,-0.911 -3.13,-2.727 l -18.07,-49.851 c -3.4,-9.309 -5.1,-16.399 -5.1,-21.27 0,-2.949 0.98,-5.391 2.96,-7.324 2.08,-2.266 5.59,-3.399 10.52,-3.399 h 5.1 c 3.5,0 5.14,-0.937 4.93,-2.8 0,-2.2 -1.87,-3.29 -5.59,-3.29 -12.17,0.442 -24.12,0.77 -35.84,0.981 -6.25,-0.211 -19.46,-0.539 -39.62,-0.981 -4.27,0 -6.41,1.09 -6.41,3.29 0,1.871 1.37,2.82 4.11,2.82 3.51,0 6.96,0.223 10.36,0.664 7.66,1.133 13.64,4.461 17.91,10.008 2.42,2.832 4.39,6.113 5.92,9.855 1.65,3.387 3.23,7.176 4.77,11.367 l 84.5,218.289 c 3.62,9.516 6.74,14.153 9.37,13.926 2.74,0 5.59,-3.679 8.54,-11.035 21.05,-54.551 48.83,-125.84 83.35,-213.887 6.58,-15.047 12.33,-25.007 17.26,-29.871 4.94,-4.64 9.1,-7.297 12.5,-7.98 5.15,-0.887 9.86,-1.328 14.14,-1.328 2.84,0 4.27,-0.934 4.27,-2.809 0,-1.328 -0.88,-2.098 -2.63,-2.328 -2.3,-0.672 -6.58,-1 -12.82,-1 -13.7,0 -34.91,0.219 -63.62,0.668 -6.47,0 -9.81,0.883 -10.03,2.652 0,1.86 1.53,2.907 4.6,3.133 3.18,0.906 4.22,3.57 3.13,7.996 l -26.97,73.848 c -0.65,1.582 -1.8,2.383 -3.44,2.383 h -74.97"
         style="fill:#1f315c;fill-opacity:1;fill-rule:nonzero;stroke:none"
         id="path100" />
      <path
         d="m 2827.67,469.289 c 0.44,-13.148 1.64,-22.668 3.61,-28.559 1.98,-5.554 4.66,-8.894 8.06,-10.027 6.03,-1.816 11.89,-2.609 17.59,-2.383 3.84,0 5.76,-0.937 5.76,-2.8 -0.34,-2.2 -2.97,-3.29 -7.9,-3.29 -21.48,0.442 -35.4,0.77 -41.75,0.981 -4.93,-0.211 -17.04,-0.539 -36.33,-0.981 -4.94,-0.23 -7.4,0.872 -7.4,3.29 0,1.863 1.81,2.8 5.44,2.8 4.94,0 10,0.567 15.16,1.7 4.28,1.132 7.2,4.988 8.74,11.562 1.42,6.457 2.03,16.992 1.81,31.609 l 2.97,206.036 c -0.23,7.578 1.25,11.484 4.43,11.711 1.97,0 3.89,-0.958 5.75,-2.891 1.97,-2.031 4.16,-4.699 6.58,-7.981 12.37,-14.148 47.15,-51.347 104.34,-111.57 12.81,-13.254 27.44,-28.652 43.87,-46.203 16.11,-17.891 26.18,-28.926 30.24,-33.113 h 1.63 l -3.29,156.394 c 0,10.43 -0.82,17.969 -2.46,22.617 -1.98,4.414 -4.99,7.305 -9.05,8.672 -6.03,1.582 -12,2.266 -17.92,2.043 -3.73,0 -5.48,1.035 -5.26,3.125 0,1.317 0.88,2.196 2.63,2.637 1.75,0.215 3.78,0.332 6.09,0.332 18.84,-0.234 32.42,-0.578 40.75,-1.027 1.98,0 5.86,0.234 11.67,0.683 5.92,0.227 12.98,0.344 21.2,0.344 4.93,0.223 7.5,-0.773 7.72,-2.969 0,-2.09 -1.98,-3.125 -5.94,-3.125 -2.97,0 -6.39,-0.343 -10.23,-1.027 -4.74,-1.133 -7.87,-3.906 -9.42,-8.328 -1.87,-4.426 -2.92,-11.504 -3.13,-21.25 l -3.64,-219.637 c 0,-7.125 -1.47,-10.684 -4.43,-10.684 -1.76,0 -3.51,0.961 -5.26,2.891 -2.08,1.359 -4.11,2.938 -6.08,4.75 -26.29,26.723 -59.36,60.805 -99.23,102.238 -41.95,44.836 -68.67,74.043 -80.17,87.629 h -1.02 l 3.87,-146.199"
         style="fill:#1f315c;fill-opacity:1;fill-rule:nonzero;stroke:none"
         id="path102" />
      <path
         d="m 3256.65,417.301 c -46.26,-0.449 -84.74,12.16 -115.42,37.855 -16.22,15.391 -27.24,32.078 -33.05,50.078 -6.04,18.106 -8.94,35.645 -8.71,52.618 -0.23,12.449 2.35,27.5 7.73,45.156 5.36,17.539 15.89,34.226 31.56,50.078 11.95,11.543 26.53,20.535 43.73,26.992 17.1,6.563 37.98,9.844 62.64,9.844 19.07,0 35.35,-1.192 48.83,-3.567 6.58,-0.671 12.66,-1.582 18.25,-2.714 5.37,-1.356 10.52,-2.422 15.45,-3.211 3.4,-0.461 5.1,-1.809 5.1,-4.075 -0.22,-1.582 -0.77,-7.968 -1.65,-19.16 -0.22,-14.804 -0.6,-27.293 -1.15,-37.461 0,-5.32 -1.33,-7.976 -3.99,-7.976 -2.55,0 -3.71,2.547 -3.48,7.637 -0.22,11.562 -4.6,22.214 -13.14,31.972 -12.7,13.711 -35.41,20.906 -68.14,21.59 -28.24,-0.223 -49.31,-7.418 -63.21,-21.59 -11.94,-11.562 -20.14,-25.109 -24.63,-40.637 -4.5,-15.75 -6.63,-32.246 -6.4,-49.472 0.98,-41.367 13.14,-72.371 36.48,-92.996 22.35,-20.637 45.51,-30.949 69.51,-30.949 28.81,-0.672 49.35,5.839 61.62,19.55 6.13,7.825 9.97,15.481 11.5,22.961 0.66,4.871 2.09,7.196 4.3,6.965 2.09,-0.226 3.14,-1.976 3.14,-5.246 0,-3.059 -0.77,-9.668 -2.31,-19.836 -1.66,-10.625 -3.36,-19.383 -5.13,-26.269 -0.44,-2.598 -1.37,-4.579 -2.79,-5.938 -1.1,-1.582 -3.07,-2.996 -5.92,-4.238 -7.02,-2.481 -16.13,-4.453 -27.32,-5.922 -11.08,-1.36 -22.21,-2.039 -33.4,-2.039"
         style="fill:#1f315c;fill-opacity:1;fill-rule:nonzero;stroke:none"
         id="path104" />
      <path
         d="m 3414.18,584.168 c 0,45.586 -0.19,70.187 -0.56,73.809 -0.22,6.125 -1.26,10.664 -3.12,13.613 -1.98,3.281 -5.76,5.383 -11.35,6.289 -3.4,0.684 -7.79,1.027 -13.16,1.027 -3.84,-0.234 -5.76,0.809 -5.76,3.125 0,1.973 2.47,2.969 7.42,2.969 20.43,-0.234 36.62,-0.578 48.59,-1.027 30.32,0 58.43,0.117 84.36,0.343 6.69,0.684 11.52,1.356 14.49,2.039 1.76,0.676 3.57,1.125 5.44,1.36 1.32,-0.235 1.97,-1.25 1.97,-3.047 -0.22,-0.684 -1.13,-8.195 -2.72,-22.531 -0.46,-7.223 -1.08,-14.844 -1.88,-22.86 0,-2.382 -1.13,-3.683 -3.38,-3.906 -2.37,0 -3.38,1.641 -3.04,4.922 0,3.289 -0.71,7.488 -2.14,12.598 -0.66,3.183 -2.58,5.847 -5.76,8.007 -3.07,2.04 -8.67,3.516 -16.79,4.422 -3.84,0.45 -11.58,0.782 -23.21,1.008 -11.74,0.223 -19.97,0.34 -24.69,0.34 -1.54,0 -2.3,-1.129 -2.3,-3.406 v -88.098 c -0.23,-2.617 0.54,-3.914 2.31,-3.914 5.16,0 14.29,0.117 27.37,0.34 12.86,0 21.76,0.109 26.71,0.344 7.92,0.566 13.3,2.324 16.16,5.273 2.31,3.055 4.12,4.59 5.44,4.59 1.54,0 2.31,-0.965 2.31,-2.891 -0.23,-0.676 -1.13,-9.101 -2.73,-25.285 -0.9,-9.957 -1.35,-17.703 -1.35,-23.25 0,-1.476 -0.11,-2.891 -0.33,-4.25 -0.22,-1.59 -1.16,-2.383 -2.81,-2.383 -2.21,0 -3.21,1.028 -2.98,3.059 0,3.742 -0.44,7.93 -1.31,12.566 -0.77,3.508 -2.48,6.504 -5.1,8.996 -2.97,2.383 -7.58,3.907 -13.83,4.59 -4.06,0.449 -11.68,0.789 -22.87,1.016 -11.52,0 -19.86,0 -25.02,0 -1.54,0 -2.2,-1.133 -1.97,-3.391 v -27.508 c -0.23,-18.789 -0.23,-36.796 0,-53.996 0,-11.55 2.58,-19.304 7.77,-23.261 5.18,-4.2 16.14,-6.172 32.9,-5.946 4.74,0 10.02,0.223 15.87,0.684 6.06,0.223 11.35,1.406 15.87,3.562 8.38,3.508 13.45,12.055 15.21,25.637 0.22,2.149 0.66,3.563 1.33,4.246 0.76,0.676 1.59,1.016 2.47,1.016 1.99,-0.223 2.88,-2.313 2.65,-6.278 0,-4.64 -0.44,-11.085 -1.32,-19.347 -0.88,-8.602 -1.87,-15 -2.96,-19.176 -0.99,-4.187 -2.7,-6.738 -5.12,-7.637 -2.52,-0.91 -6.92,-1.371 -13.18,-1.371 -46.6,0.672 -77.75,1.352 -93.46,2.012 -11.32,-0.211 -25.49,-0.539 -42.53,-0.981 -4.5,0 -6.76,1.09 -6.76,3.29 -0.22,1.863 1.53,2.8 5.25,2.8 5.24,0 9.29,0.45 12.13,1.356 3.39,0.91 5.74,3.125 7.05,6.633 1.42,3.171 2.34,7.371 2.78,12.586 1.1,15.976 1.64,40.687 1.64,74.132 v 61.141"
         style="fill:#1f315c;fill-opacity:1;fill-rule:nonzero;stroke:none"
         id="path106" />
      <path
         d="m 3646.34,683.457 c 1.1,5.996 2.96,8.992 5.59,8.992 1.42,0 2.79,-0.566 4.11,-1.699 1.31,-1.582 3.01,-4.578 5.1,-8.992 l 91.91,-196.067 91.59,198.438 c 2.19,5.547 4.66,8.32 7.4,8.32 3.17,0 5.21,-3.562 6.08,-10.691 l 30.59,-214.903 c 2.08,-21.054 7.56,-32.765 16.44,-35.136 9.64,-2.492 16.6,-3.625 20.88,-3.399 3.4,0 5.21,-0.82 5.42,-2.468 0,-1.102 -0.76,-1.973 -2.3,-2.641 -1.86,-0.652 -4,-0.981 -6.41,-0.981 -20.18,0.211 -42.99,0.872 -68.43,1.969 -6.91,0.66 -10.14,1.922 -9.7,3.789 0,1.582 1.21,2.832 3.62,3.739 1.2,0.449 2.02,1.867 2.46,4.238 0.22,2.265 0,5.832 -0.66,10.695 l -20.23,152.938 h -1.31 l -73.53,-157.539 c -6.47,-13.672 -10.64,-20.18 -12.5,-19.489 -1.31,0 -2.85,1.629 -4.6,4.91 -2.09,3.153 -4.45,7.286 -7.07,12.364 -4.72,9.715 -11.58,23.719 -20.57,42.019 -9.21,18.067 -15.3,30.325 -18.26,36.77 -7.13,16.512 -18.81,42.265 -35.03,77.226 h -1.32 l -17.6,-138.339 c -0.65,-5.774 -0.98,-11.27 -0.98,-16.465 0.22,-6.231 3.62,-9.903 10.2,-11.035 6.03,-1.114 10.74,-1.661 14.14,-1.661 3.07,0 4.71,-0.832 4.93,-2.488 -0.22,-2.43 -2.89,-3.641 -8.03,-3.641 -15.65,0.442 -27.41,0.77 -35.29,0.981 -8.97,-0.211 -20.02,-0.539 -33.14,-0.981 -3.83,0 -5.86,1.2 -6.07,3.622 0,1.648 1.75,2.468 5.25,2.468 2.29,-0.226 5.68,0.106 10.16,1.016 4.49,1.355 7.82,4.812 10.01,10.359 2.07,5.09 3.33,10.801 3.77,17.141 l 33.38,226.621"
         style="fill:#1f315c;fill-opacity:1;fill-rule:nonzero;stroke:none"
         id="path108" />
      <path
         d="m 3996.42,584.168 c 0,45.586 -0.18,70.187 -0.56,73.809 -0.22,6.125 -1.26,10.664 -3.12,13.613 -1.98,3.281 -5.76,5.383 -11.35,6.289 -3.4,0.684 -7.79,1.027 -13.16,1.027 -3.84,-0.234 -5.76,0.809 -5.76,3.125 0,1.973 2.47,2.969 7.42,2.969 20.42,-0.234 36.62,-0.578 48.6,-1.027 30.3,0 58.42,0.117 84.34,0.343 6.7,0.684 11.53,1.356 14.5,2.039 1.76,0.676 3.57,1.125 5.44,1.36 1.32,-0.235 1.98,-1.25 1.98,-3.047 -0.23,-0.684 -1.14,-8.195 -2.73,-22.531 -0.46,-7.223 -1.09,-14.844 -1.88,-22.86 0,-2.382 -1.13,-3.683 -3.38,-3.906 -2.37,0 -3.38,1.641 -3.04,4.922 0,3.289 -0.71,7.488 -2.14,12.598 -0.66,3.183 -2.58,5.847 -5.76,8.007 -3.08,2.04 -8.67,3.516 -16.79,4.422 -3.84,0.45 -11.58,0.782 -23.21,1.008 -11.74,0.223 -19.97,0.34 -24.69,0.34 -1.54,0 -2.3,-1.129 -2.3,-3.406 v -88.098 c -0.23,-2.617 0.54,-3.914 2.3,-3.914 5.17,0 14.29,0.117 27.38,0.34 12.86,0 21.76,0.109 26.71,0.344 7.91,0.566 13.3,2.324 16.16,5.273 2.31,3.055 4.12,4.59 5.44,4.59 1.54,0 2.31,-0.965 2.31,-2.891 -0.23,-0.676 -1.14,-9.101 -2.72,-25.285 -0.91,-9.957 -1.37,-17.703 -1.37,-23.25 0,-1.476 -0.1,-2.891 -0.33,-4.25 -0.22,-1.59 -1.15,-2.383 -2.8,-2.383 -2.21,0 -3.2,1.028 -2.97,3.059 0,3.742 -0.44,7.93 -1.32,12.566 -0.77,3.508 -2.47,6.504 -5.11,8.996 -2.95,2.383 -7.56,3.907 -13.82,4.59 -4.06,0.449 -11.68,0.789 -22.87,1.016 -11.52,0 -19.86,0 -25.01,0 -1.55,0 -2.21,-1.133 -1.98,-3.391 v -27.508 c -0.23,-18.789 -0.23,-36.796 0,-53.996 0,-11.55 2.59,-19.304 7.77,-23.261 5.18,-4.2 16.14,-6.172 32.9,-5.946 4.73,0 10.03,0.223 15.87,0.684 6.06,0.223 11.35,1.406 15.87,3.562 8.37,3.508 13.45,12.055 15.21,25.637 0.22,2.149 0.66,3.563 1.32,4.246 0.77,0.676 1.6,1.016 2.48,1.016 1.99,-0.223 2.87,-2.313 2.65,-6.278 0,-4.64 -0.44,-11.085 -1.32,-19.347 -0.88,-8.602 -1.87,-15 -2.97,-19.176 -0.98,-4.187 -2.69,-6.738 -5.1,-7.637 -2.53,-0.91 -6.93,-1.371 -13.19,-1.371 -46.59,0.672 -77.75,1.352 -93.46,2.012 -11.32,-0.211 -25.5,-0.539 -42.53,-0.981 -4.51,0 -6.76,1.09 -6.76,3.29 -0.23,1.863 1.53,2.8 5.25,2.8 5.24,0 9.28,0.45 12.13,1.356 3.38,0.91 5.73,3.125 7.05,6.633 1.42,3.171 2.35,7.371 2.78,12.586 1.09,15.976 1.64,40.687 1.64,74.132 v 61.141"
         style="fill:#1f315c;fill-opacity:1;fill-rule:nonzero;stroke:none"
         id="path110" />
      <path
         d="m 4235.06,469.289 c 0.44,-13.148 1.64,-22.668 3.62,-28.559 1.96,-5.554 4.65,-8.894 8.05,-10.027 6.03,-1.816 11.89,-2.609 17.59,-2.383 3.84,0 5.75,-0.937 5.75,-2.8 -0.32,-2.2 -2.96,-3.29 -7.89,-3.29 -21.48,0.442 -35.4,0.77 -41.75,0.981 -4.94,-0.211 -17.04,-0.539 -36.33,-0.981 -4.94,-0.23 -7.4,0.872 -7.4,3.29 0,1.863 1.82,2.8 5.44,2.8 4.94,0 10,0.567 15.16,1.7 4.29,1.132 7.2,4.988 8.73,11.562 1.43,6.457 2.04,16.992 1.82,31.609 l 2.97,206.036 c -0.23,7.578 1.25,11.484 4.43,11.711 1.97,0 3.89,-0.958 5.75,-2.891 1.97,-2.031 4.17,-4.699 6.58,-7.981 12.38,-14.148 47.16,-51.347 104.34,-111.57 12.82,-13.254 27.44,-28.652 43.87,-46.203 16.1,-17.891 26.18,-28.926 30.24,-33.113 h 1.63 l -3.29,156.394 c 0,10.43 -0.83,17.969 -2.47,22.617 -1.97,4.414 -4.98,7.305 -9.04,8.672 -6.02,1.582 -12,2.266 -17.91,2.043 -3.74,0 -5.49,1.035 -5.27,3.125 0,1.317 0.88,2.196 2.63,2.637 1.76,0.215 3.78,0.332 6.08,0.332 18.85,-0.234 32.43,-0.578 40.76,-1.027 1.97,0 5.86,0.234 11.67,0.683 5.92,0.227 12.98,0.344 21.2,0.344 4.93,0.223 7.51,-0.773 7.73,-2.969 0,-2.09 -1.99,-3.125 -5.95,-3.125 -2.97,0 -6.38,-0.343 -10.24,-1.027 -4.73,-1.133 -7.87,-3.906 -9.41,-8.328 -1.87,-4.426 -2.91,-11.504 -3.13,-21.25 l -3.64,-219.637 c 0,-7.125 -1.48,-10.684 -4.43,-10.684 -1.75,0 -3.51,0.961 -5.26,2.891 -2.08,1.359 -4.11,2.938 -6.08,4.75 -26.28,26.723 -59.36,60.805 -99.23,102.238 -41.95,44.836 -68.67,74.043 -80.17,87.629 h -1.02 l 3.87,-146.199"
         style="fill:#1f315c;fill-opacity:1;fill-rule:nonzero;stroke:none"
         id="path112" />
      <path
         d="m 4590.03,665.652 -50.25,-1.347 c -9.44,-0.235 -16.64,-0.907 -21.58,-2.039 -4.94,-1.594 -8.68,-4.25 -11.2,-7.989 -3.08,-5.332 -4.95,-9.414 -5.6,-12.246 -0.44,-2.726 -1.71,-4.082 -3.79,-4.082 -2.21,0 -3.2,1.805 -2.97,5.418 0,1.692 0.43,4.453 1.32,8.293 0.65,3.945 1.32,8.231 1.97,12.86 2.09,10.156 3.35,16.418 3.79,18.781 0.88,4.414 2.2,6.621 3.95,6.621 1.43,0 3.24,-0.625 5.43,-1.867 1.98,-1.133 4.99,-1.922 9.06,-2.383 10.64,-1.133 21.88,-1.699 33.73,-1.699 h 133.45 c 10.53,0 18.27,0.566 23.2,1.699 4.94,1.133 8.01,1.699 9.22,1.699 1.76,0 2.65,-2.371 2.65,-7.109 -0.22,-12.469 -0.55,-25.907 -1,-40.293 -0.22,-3.739 -1.27,-5.606 -3.14,-5.606 -2.43,-0.222 -3.65,2.102 -3.65,6.965 l -0.33,3.914 c 0,4.883 -2.9,9.25 -8.71,13.106 -5.92,3.742 -16.27,5.84 -31.07,6.3 l -42.41,1.004 V 523.016 c -0.23,-33.434 0.32,-58.321 1.64,-74.637 0.55,-4.875 1.7,-8.899 3.46,-12.07 1.53,-3.516 4.76,-5.723 9.69,-6.633 5.6,-0.887 11.35,-1.328 17.26,-1.328 3.62,0 5.43,-0.934 5.43,-2.809 -0.33,-2.207 -2.47,-3.309 -6.41,-3.309 -24.13,0.442 -41.77,0.77 -52.96,0.981 -11.18,-0.211 -25.33,-0.539 -42.43,-0.981 -4.49,0 -6.74,1.09 -6.74,3.29 -0.23,1.863 1.58,2.8 5.43,2.8 5.17,0 9.23,0.45 12.2,1.356 3.29,0.91 5.76,3.125 7.41,6.633 1.32,3.171 2.09,7.371 2.31,12.578 1.1,15.984 1.64,40.695 1.64,74.129 v 142.636"
         style="fill:#1f315c;fill-opacity:1;fill-rule:nonzero;stroke:none"
         id="path114" />
      <path
         d="m 1714.02,70.7383 c -13.71,0 -25.63,2.1914 -35.75,6.543 -1.76,0.9101 -2.99,1.9375 -3.7,3.0898 -0.64,1.1602 -0.97,3.0078 -0.97,5.5703 0.16,16.0466 0.6,27.0896 1.31,33.0896 0.16,4.289 1.11,6.508 2.85,6.668 1.35,0 2.1,-0.449 2.25,-1.347 0.17,-0.832 0.24,-1.813 0.24,-2.973 0,-3.699 0.73,-8.027 2.16,-12.969 2.96,-9.2186 7.64,-15.7694 14.04,-19.6405 6.4,-3.9609 13.44,-5.9375 21.12,-5.9375 11.12,0.2578 19.4,3.4688 24.84,9.6368 5.36,5.9414 8.04,12.3632 8.04,19.2812 0,3.211 -0.16,6.422 -0.48,9.641 -0.64,3.039 -1.88,6.168 -3.72,9.39 -3.03,6.34 -9.62,13.508 -19.77,21.489 l -11.38,9.019 c -13.18,10.793 -22.57,21 -28.16,30.641 -5.6,9.64 -8.31,19.441 -8.15,29.41 0,14.172 5.23,25.699 15.68,34.59 10.13,8.652 23.78,13.05 40.93,13.218 8.06,0 14.76,-0.449 20.11,-1.359 5.26,-0.969 9.45,-1.957 12.56,-2.949 2.24,-0.328 3.36,-1.352 3.36,-3.07 0,-1.321 -0.17,-4.231 -0.5,-8.739 -0.32,-4.601 -0.49,-11.742 -0.49,-21.429 0,-5.262 -0.88,-7.821 -2.64,-7.661 -1.69,0 -2.53,1.528 -2.53,4.579 0,1.312 -0.31,3.57 -0.95,6.769 -0.96,3.211 -2.76,6.481 -5.39,9.852 -1.68,2.691 -4.56,5.398 -8.63,8.109 -4.07,2.621 -10.1,4.051 -18.09,4.301 -9.18,0 -16.21,-2.391 -21.08,-7.172 -5.43,-4.848 -8.14,-11.149 -8.14,-18.899 -0.17,-5.601 1.71,-11.121 5.63,-16.558 3.76,-5.352 10.55,-11.981 20.38,-19.891 l 6.84,-5.301 c 14.62,-11.378 25.06,-22.011 31.29,-31.89 5.99,-9.801 8.99,-20.711 8.99,-32.731 0,-7.429 -1.55,-15 -4.67,-22.738 -3.6,-7.9101 -9.71,-14.9921 -18.34,-21.2499 -6.07,-3.8711 -12.46,-6.5508 -19.17,-8.0313 -6.56,-1.5703 -13.19,-2.3515 -19.9,-2.3515 h -0.02"
         style="fill:#1f315c;fill-opacity:1;fill-rule:nonzero;stroke:none"
         id="path116" />
      <path
         d="m 2271.41,139.762 c 0,6.597 -0.48,11.828 -1.44,15.707 -0.96,3.883 -2.36,7.511 -4.19,10.89 -0.33,1.403 -2.28,5.192 -5.87,11.379 -3.6,6.274 -7.95,13.571 -13.06,21.903 -10.63,17.898 -18.7,31.14 -24.2,39.711 -6.4,9.5 -12.07,15.679 -17.02,18.57 -3.59,1.969 -7.03,3.047 -10.3,3.207 -2.24,-0.16 -3.44,0.601 -3.6,2.281 0.16,1.43 1.72,2.16 4.67,2.16 8.46,-0.172 18.76,-0.41 30.88,-0.75 2.71,0 6.46,0.168 11.25,0.5 4.55,0.168 9.54,0.25 14.97,0.25 2.39,0 3.59,-0.73 3.59,-2.16 0,-1.211 -1.8,-2.129 -5.39,-2.781 -2.24,-0.649 -3.35,-2.18 -3.35,-4.578 0,-1.969 0.96,-4.821 2.87,-8.52 1.2,-2.07 3.83,-6.652 7.9,-13.742 3.91,-7.09 8.22,-15.141 12.93,-24.129 10.62,-19.39 17.55,-32.039 20.83,-37.98 0.87,1.89 3.11,6.14 6.7,12.742 3.43,6.18 7.26,13.359 11.49,21.527 9.5,17.731 15.72,29.531 18.68,35.391 2.23,5.601 3.35,10.019 3.35,13.242 0,1.316 -0.32,2.68 -0.96,4.078 -0.64,0.988 -2.04,1.731 -4.19,2.231 -2.79,0.32 -4.27,1.16 -4.43,2.519 0,1.43 1.4,2.16 4.19,2.16 8.22,-0.172 15.92,-0.41 23.11,-0.75 9.09,0.168 17.83,0.41 26.21,0.75 2.79,0 4.27,-0.64 4.42,-1.922 -0.15,-1.679 -1.71,-2.519 -4.66,-2.519 -2.95,0 -6.54,-0.981 -10.76,-2.969 -4.31,-2.058 -8.74,-6.23 -13.28,-12.5 -5.03,-7.09 -13.2,-20.328 -24.52,-39.711 -5.19,-8.988 -9.81,-17.277 -13.88,-24.867 -4.31,-7.594 -7.1,-12.91 -8.37,-15.961 -0.8,-2.23 -1.44,-4.332 -1.92,-6.312 -0.55,-2.227 -0.99,-4.329 -1.31,-6.309 -0.32,-4.289 -0.48,-8.539 -0.48,-12.738 v -20.801 c -0.17,-5.031 0.07,-13.43 0.71,-25.2305 0.16,-3.8008 1.08,-6.8516 2.75,-9.1602 1.28,-2.5508 3.7,-4.1601 7.29,-4.8203 4.14,-0.6484 8.24,-0.9687 12.3,-0.9687 2.63,0 3.94,-0.6797 3.94,-2.043 -0.24,-1.6094 -1.99,-2.4063 -5.27,-2.4063 -16.75,0.3164 -29.24,0.5469 -37.45,0.7188 -8.62,-0.1719 -18.84,-0.4024 -30.64,-0.7188 -3.59,0 -5.39,0.7969 -5.39,2.3868 0,1.3632 1.32,2.0429 3.97,2.0429 3.43,0 6.32,0.3281 8.64,0.9883 2.4,0.6602 4.28,2.2695 5.64,4.832 1.12,2.2969 1.76,5.3477 1.92,9.1485 0.49,11.8005 0.73,20.1995 0.73,25.2305 v 20.801"
         style="fill:#1f315c;fill-opacity:1;fill-rule:nonzero;stroke:none"
         id="path118" />
      <path
         d="m 2840.44,70.7383 c -13.71,0 -25.63,2.1914 -35.75,6.543 -1.76,0.9101 -3,1.9375 -3.71,3.0898 -0.64,1.1602 -0.96,3.0078 -0.96,5.5703 0.16,16.0466 0.59,27.0896 1.31,33.0976 0.16,4.281 1.11,6.512 2.85,6.672 1.34,0 2.09,-0.461 2.25,-1.359 0.16,-0.832 0.24,-1.813 0.24,-2.961 0,-3.711 0.72,-8.032 2.16,-12.969 2.96,-9.2306 7.64,-15.7814 14.04,-19.6525 6.4,-3.9609 13.44,-5.9375 21.12,-5.9375 11.12,0.2578 19.39,3.4688 24.84,9.6368 5.35,5.9414 8.03,12.3632 8.03,19.2812 0,3.211 -0.16,6.422 -0.47,9.641 -0.64,3.039 -1.88,6.168 -3.72,9.39 -3.03,6.34 -9.62,13.508 -19.77,21.489 l -11.38,9.019 c -13.19,10.793 -22.57,21 -28.16,30.641 -5.6,9.64 -8.32,19.441 -8.15,29.41 0,14.172 5.22,25.699 15.68,34.59 10.13,8.652 23.77,13.05 40.93,13.218 8.06,0 14.76,-0.449 20.1,-1.359 5.27,-0.98 9.46,-1.957 12.57,-2.949 2.23,-0.328 3.35,-1.352 3.35,-3.078 0,-1.313 -0.16,-4.231 -0.49,-8.742 -0.33,-4.598 -0.49,-11.75 -0.49,-21.438 0,-5.273 -0.88,-7.82 -2.65,-7.652 -1.68,0 -2.52,1.519 -2.52,4.57 0,1.309 -0.32,3.57 -0.96,6.77 -0.95,3.21 -2.75,6.492 -5.39,9.851 -1.67,2.711 -4.55,5.418 -8.62,8.117 -4.07,2.633 -10.1,4.063 -18.09,4.313 -9.19,0 -16.21,-2.391 -21.08,-7.172 -5.43,-4.848 -8.15,-11.149 -8.15,-18.899 -0.16,-5.601 1.71,-11.121 5.64,-16.558 3.75,-5.352 10.55,-11.981 20.38,-19.891 l 6.84,-5.301 c 14.62,-11.378 25.05,-22.011 31.29,-31.89 5.99,-9.801 8.99,-20.711 8.99,-32.731 0,-7.429 -1.56,-15 -4.67,-22.738 -3.6,-7.9101 -9.72,-14.9921 -18.34,-21.2499 -6.07,-3.8711 -12.46,-6.5508 -19.18,-8.0313 -6.55,-1.5703 -13.18,-2.3515 -19.89,-2.3515 h -0.02"
         style="fill:#1f315c;fill-opacity:1;fill-rule:nonzero;stroke:none"
         id="path120" />
      <path
         d="m 3402.89,251.488 -36.58,-0.976 c -6.87,-0.172 -12.11,-0.672 -15.7,-1.492 -3.6,-1.149 -6.32,-3.09 -8.16,-5.821 -2.24,-3.867 -3.6,-6.84 -4.08,-8.898 -0.31,-1.992 -1.24,-2.969 -2.75,-2.969 -1.61,0 -2.33,1.309 -2.16,3.938 0,1.23 0.31,3.25 0.96,6.031 0.47,2.879 0.96,5.988 1.43,9.359 1.52,7.399 2.45,11.949 2.76,13.68 0.64,3.211 1.6,4.808 2.88,4.808 1.04,0 2.35,-0.449 3.95,-1.359 1.44,-0.82 3.63,-1.398 6.59,-1.73 7.75,-0.829 15.93,-1.239 24.55,-1.239 h 97.13 c 7.66,0 13.29,0.41 16.89,1.239 3.58,0.82 5.82,1.23 6.7,1.23 1.28,0 1.93,-1.707 1.93,-5.168 -0.16,-9.07 -0.41,-18.851 -0.72,-29.332 -0.17,-2.707 -0.93,-4.07 -2.29,-4.07 -1.77,-0.168 -2.66,1.519 -2.66,5.07 l -0.24,2.852 c 0,3.539 -2.11,6.73 -6.34,9.531 -4.3,2.726 -11.84,4.25 -22.61,4.578 l -30.86,0.738 V 147.68 c -0.17,-24.34 0.23,-42.45 1.19,-54.3206 0.4,-3.5508 1.24,-6.4805 2.51,-8.7891 1.11,-2.5508 3.47,-4.1601 7.06,-4.8203 4.07,-0.6484 8.25,-0.9687 12.57,-0.9687 2.63,0 3.94,-0.6797 3.94,-2.043 -0.24,-1.6094 -1.79,-2.4063 -4.67,-2.4063 -17.55,0.3164 -30.4,0.5469 -38.54,0.7188 -8.14,-0.1719 -18.43,-0.4024 -30.88,-0.7188 -3.27,0 -4.91,0.7969 -4.91,2.3868 -0.16,1.3632 1.16,2.0429 3.96,2.0429 3.76,0 6.72,0.3281 8.87,0.9883 2.4,0.6602 4.2,2.2695 5.4,4.832 0.96,2.2969 1.52,5.3477 1.68,9.1485 0.8,11.6285 1.2,29.6215 1.2,53.9495 v 103.808"
         style="fill:#1f315c;fill-opacity:1;fill-rule:nonzero;stroke:none"
         id="path122" />
      <path
         d="m 3954.73,192.191 c 0,33.168 -0.14,51.079 -0.41,53.719 -0.16,4.449 -0.92,7.75 -2.27,9.899 -1.44,2.39 -4.19,3.921 -8.26,4.582 -2.48,0.5 -5.67,0.738 -9.58,0.738 -2.79,-0.16 -4.19,0.601 -4.19,2.281 0,1.43 1.8,2.16 5.4,2.16 14.86,-0.172 26.65,-0.41 35.37,-0.75 22.06,0 42.52,0.09 61.39,0.262 4.88,0.488 8.39,0.977 10.55,1.469 1.28,0.5 2.6,0.828 3.95,1 0.96,-0.172 1.44,-0.91 1.44,-2.231 -0.16,-0.488 -0.83,-5.961 -1.98,-16.39 -0.33,-5.258 -0.79,-10.809 -1.37,-16.641 0,-1.719 -0.82,-2.68 -2.46,-2.84 -1.72,0 -2.46,1.192 -2.21,3.59 0,2.391 -0.52,5.449 -1.56,9.172 -0.48,2.309 -1.88,4.238 -4.19,5.82 -2.24,1.481 -6.31,2.559 -12.22,3.219 -2.79,0.32 -8.42,0.57 -16.89,0.73 -8.55,0.168 -14.54,0.25 -17.97,0.25 -1.12,0 -1.67,-0.82 -1.67,-2.468 v -64.133 c -0.17,-1.899 0.39,-2.848 1.68,-2.848 3.75,0 10.4,0.09 19.92,0.25 9.36,0 15.84,0.078 19.44,0.25 5.76,0.41 9.68,1.688 11.76,3.84 1.68,2.231 3,3.34 3.96,3.34 1.12,0 1.68,-0.699 1.68,-2.102 -0.17,-0.5 -0.83,-6.629 -1.98,-18.398 -0.66,-7.262 -1,-12.902 -1,-16.93 0,-1.082 -0.08,-2.101 -0.24,-3.09 -0.16,-1.152 -0.84,-1.73 -2.04,-1.73 -1.61,0 -2.33,0.73 -2.16,2.219 0,2.718 -0.33,5.769 -0.96,9.152 -0.56,2.547 -1.8,4.738 -3.71,6.539 -2.16,1.731 -5.51,2.848 -10.07,3.34 -2.95,0.328 -8.5,0.578 -16.64,0.738 -8.39,0 -14.45,0 -18.21,0 -1.12,0 -1.6,-0.82 -1.43,-2.469 v -20.019 c -0.17,-13.672 -0.17,-26.77 0,-39.289 0,-8.41 1.88,-14.0626 5.65,-16.9415 3.77,-3.0391 11.75,-4.4922 23.95,-4.3203 3.44,0 7.29,0.1601 11.54,0.5 4.42,0.1601 8.26,1.0195 11.56,2.5781 6.09,2.5625 9.78,8.7812 11.06,18.6717 0.17,1.57 0.49,2.59 0.97,3.09 0.56,0.5 1.16,0.738 1.8,0.738 1.45,-0.156 2.09,-1.687 1.93,-4.566 0,-3.383 -0.32,-8.07 -0.96,-14.0822 -0.64,-6.2578 -1.36,-10.9179 -2.16,-13.9609 -0.72,-3.0469 -1.96,-4.9101 -3.72,-5.5586 -1.84,-0.6484 -5.04,-0.9883 -9.59,-0.9883 -33.91,0.4883 -56.59,0.9766 -68.03,1.4688 -8.23,-0.1719 -18.55,-0.4024 -30.95,-0.7188 -3.27,0 -4.91,0.7969 -4.91,2.3868 -0.17,1.3632 1.1,2.0429 3.81,2.0429 3.82,0 6.76,0.3281 8.83,0.9883 2.46,0.6602 4.18,2.2695 5.13,4.832 1.03,2.2969 1.71,5.3594 2.03,9.1485 0.8,11.6285 1.19,29.6215 1.19,53.9495 v 44.511"
         style="fill:#1f315c;fill-opacity:1;fill-rule:nonzero;stroke:none"
         id="path124" />
      <path
         d="m 4528.52,264.441 c 0.8,4.368 2.15,6.559 4.07,6.559 1.03,0 2.03,-0.418 2.99,-1.238 0.96,-1.16 2.19,-3.332 3.71,-6.551 l 66.9,-142.691 66.65,144.421 c 1.59,4.028 3.39,6.059 5.39,6.059 2.31,0 3.79,-2.602 4.43,-7.789 l 22.25,-156.402 c 1.52,-15.3285 5.5,-23.8481 11.97,-25.5785 7.02,-1.8203 12.08,-2.6407 15.2,-2.4688 2.47,0 3.79,-0.6015 3.95,-1.8008 0,-0.8007 -0.56,-1.4296 -1.68,-1.9101 -1.36,-0.4805 -2.91,-0.7188 -4.67,-0.7188 -14.69,0.1485 -31.28,0.6289 -49.8,1.4297 -5.03,0.4766 -7.38,1.3985 -7.06,2.7578 0,1.1602 0.88,2.0625 2.63,2.7188 0.88,0.3203 1.48,1.3633 1.8,3.0937 0.16,1.6485 0,4.2266 -0.48,7.7774 l -14.72,111.3126 h -0.96 L 4607.58,88.7617 c -4.71,-9.9531 -7.75,-14.6797 -9.1,-14.1914 -0.96,0 -2.08,1.1914 -3.35,3.5703 -1.52,2.3086 -3.24,5.3086 -5.15,9.0078 -3.43,7.0704 -8.42,17.2616 -14.97,30.5706 -6.7,13.16 -11.13,22.07 -13.29,26.761 -5.18,12.032 -13.68,30.758 -25.49,56.211 h -0.96 l -12.81,-100.679 c -0.48,-4.2034 -0.71,-8.1917 -0.71,-11.9807 0.15,-4.5313 2.63,-7.211 7.41,-8.043 4.39,-0.7969 7.83,-1.1992 10.3,-1.1992 2.23,0 3.43,-0.6094 3.59,-1.8086 -0.16,-1.7813 -2.11,-2.6485 -5.85,-2.6485 -11.38,0.3164 -19.94,0.5469 -25.68,0.7188 -6.53,-0.1719 -14.57,-0.4024 -24.12,-0.7188 -2.79,0 -4.26,0.8672 -4.42,2.6289 0,1.1993 1.27,1.8008 3.82,1.8008 1.67,-0.1719 4.14,0.0781 7.4,0.7383 3.26,0.9883 5.69,3.5 7.28,7.5391 1.51,3.6992 2.43,7.8593 2.75,12.4726 l 24.29,164.9293"
         style="fill:#1f315c;fill-opacity:1;fill-rule:nonzero;stroke:none"
         id="path126" />
    </g>
  </g>
</svg>
